<?xml version="1.0" encoding="UTF-8" standalone="no"?>
<!-- Created with Inkscape (http://www.inkscape.org/) -->

<svg
   width="1021.33"
   height="1021.33"
   viewBox="0 0 1021.33 1021.3301"
   version="1.1"
   id="svg5"
   sodipodi:docname="AAAF.svg"
   inkscape:version="1.2.2 (732a01da63, 2022-12-09)"
   xmlns:inkscape="http://www.inkscape.org/namespaces/inkscape"
   xmlns:sodipodi="http://sodipodi.sourceforge.net/DTD/sodipodi-0.dtd"
   xmlns="http://www.w3.org/2000/svg"
   xmlns:svg="http://www.w3.org/2000/svg">
  <sodipodi:namedview
     id="namedview7"
     pagecolor="#ffffff"
     bordercolor="#111111"
     borderopacity="1"
     inkscape:pageshadow="0"
     inkscape:pageopacity="0"
     inkscape:pagecheckerboard="1"
     inkscape:document-units="px"
     showgrid="false"
     units="px"
     inkscape:showpageshadow="0"
     inkscape:deskcolor="#d1d1d1"
     inkscape:zoom="0.59"
     inkscape:cx="1095.7627"
     inkscape:cy="486.44068"
     inkscape:window-width="1920"
     inkscape:window-height="1057"
     inkscape:window-x="-8"
     inkscape:window-y="-8"
     inkscape:window-maximized="1"
     inkscape:current-layer="layer1" />
  <defs
     id="defs2" />
  <g
     inkscape:label="Lager 1"
     inkscape:groupmode="layer"
     id="layer1"
     transform="translate(0,442.66)">
    <rect
       style="fill:#fddc04;fill-opacity:1;fill-rule:evenodd;stroke:none;stroke-width:5.67811;stroke-linecap:round;stroke-linejoin:round"
       id="rect785"
       width="750"
       height="750"
       x="-61.992268"
       y="34.181477"
       rx="50"
       ry="50"
       transform="rotate(-45)" />
    <rect
       style="fill:#000000;fill-rule:evenodd;stroke:none;stroke-width:5.52669;stroke-linecap:round;stroke-linejoin:round"
       id="rect841"
       width="730"
       height="730"
       x="-51.992271"
       y="44.18148"
       rx="40"
       ry="40"
       transform="rotate(-45)" />
    <rect
       style="fill:#fddc04;fill-opacity:1;fill-rule:evenodd;stroke:none;stroke-width:5.22386;stroke-linecap:round;stroke-linejoin:round"
       id="rect1465"
       width="690"
       height="690"
       x="-31.992281"
       y="64.181488"
       rx="20"
       ry="20"
       transform="rotate(-45)" />
    <path
       d="m 287.23955,5.6928042 q 0,17.1641698 -11.19402,28.3581898 -11.19402,11.19402 -28.35818,11.19402 -26.30595,0 -37.3134,-22.76118 -8.20895,-17.5372898 -8.20895,-41.79101 0,-15.11192 3.73134,-28.91788 3.91791,-13.80596 10.26118,-21.82834 11.00746,-13.99252 32.08953,-13.99252 14.36566,0 23.50744,6.52984 9.14178,6.34328 15.48506,21.08207 l -18.84327,7.46268 q -4.10447,-8.39551 -8.58208,-11.56715 -4.47761,-3.35821 -11.56715,-3.35821 -14.92536,0 -21.08207,15.2985 -4.85075,11.94028 -4.85075,29.29101 0,22.5746102 6.15672,34.32833 5.22387,10.07462 16.97759,10.07462 9.70149,0 15.8582,-5.41044 6.15671,-5.41044 6.15671,-13.9925298 V 0.46893418 H 244.70228 V -19.307176 h 42.53727 z"
       id="path1021"
       style="font-size:186.567px;line-height:1.25;font-family:'Roadgeek 2000 Series D';-inkscape-font-specification:'Roadgeek 2000 Series D';text-align:center;letter-spacing:0.13px;text-anchor:middle;fill:#000000;fill-rule:evenodd;stroke:none;stroke-width:0.971697" />
    <path
       d="m 409.01191,43.005014 h -20.8955 L 375.80298,7.9304242 h -38.9925 L 324.49706,43.005014 h -21.08207 l 42.91041,-124.99989 h 19.7761 z m -40.29847,-55.22383 -12.31342,-35.0746 -12.68656,35.0746 z"
       id="path1023"
       style="font-size:186.567px;line-height:1.25;font-family:'Roadgeek 2000 Series D';-inkscape-font-specification:'Roadgeek 2000 Series D';text-align:center;letter-spacing:0.13px;text-anchor:middle;fill:#000000;fill-rule:evenodd;stroke:none;stroke-width:0.971697" />
    <path
       d="m 513.24454,-46.920276 q 0,9.88805 -5.59701,18.6567 -5.41044,8.76865 -13.80595,12.49999 -9.70149,4.47761 -22.76118,4.47761 h -23.13431 v 54.29099 h -19.7761 v -124.99989 h 42.91041 q 14.36566,0 22.76118,4.10448 8.39551,3.9179 13.80595,12.87312 5.59701,8.76865 5.59701,18.097 z m -20.14923,0 q 0,-8.95522 -7.46268,-13.05969 -3.91791,-2.23881 -11.94029,-2.23881 h -25.74625 v 30.78356 h 25.74625 q 7.46268,0 11.94029,-2.2388 7.46268,-3.73134 7.46268,-13.24626 z"
       id="path1025"
       style="font-size:186.567px;line-height:1.25;font-family:'Roadgeek 2000 Series D';-inkscape-font-specification:'Roadgeek 2000 Series D';text-align:center;letter-spacing:0.13px;text-anchor:middle;fill:#000000;fill-rule:evenodd;stroke:none;stroke-width:0.971697" />
    <path
       d="m 608.16454,6.9987742 q 0,17.7238698 -12.31342,28.5447498 -11.00745,9.70149 -27.23878,9.70149 -15.67163,0 -27.61192,-8.76865 -11.38058,-8.20895 -17.91043,-22.76118 l 18.84327,-7.0895398 q 8.20895,18.4701298 26.67908,18.4701298 8.58208,0 13.99253,-5.22387 5.41044,-5.22388 5.41044,-13.2462598 0,-10.63432 -11.75372,-16.7910302 -11.94029,-4.47761 -23.88058,-9.14179 -24.06714,-9.70148 -24.06714,-31.15668 0,-33.58206 38.9925,-33.58206 25.37311,0 35.6343,25.37311 l -17.5373,5.22387 q -1.6791,-2.98507 -4.10447,-5.22387 -5.59701,-5.41045 -14.36566,-5.78358 -8.20895,-0.18657 -13.43283,2.79851 -6.52984,3.9179 -5.97014,11.75372 0.74627,8.95521 16.60446,14.17909 23.32088,7.83581 28.73132,11.38059 15.29849,10.26118 15.29849,31.3432502 z"
       id="path1027"
       style="font-size:186.567px;line-height:1.25;font-family:'Roadgeek 2000 Series D';-inkscape-font-specification:'Roadgeek 2000 Series D';text-align:center;letter-spacing:0.13px;text-anchor:middle;fill:#000000;fill-rule:evenodd;stroke:none;stroke-width:0.971697" />
    <path
       d="M 704.31423,43.005014 H 684.165 v -124.99989 h 20.14923 z"
       id="path1034"
       style="font-size:186.567px;line-height:1.25;font-family:'Roadgeek 2000 Series D';-inkscape-font-specification:'Roadgeek 2000 Series D';text-align:center;letter-spacing:0.13px;text-anchor:middle;fill:#000000;fill-rule:evenodd;stroke:none;stroke-width:0.944202" />
    <path
       d="m 819.16544,43.005014 h -17.53729 l -47.76116,-84.70141 v 84.70141 h -19.7761 v -124.99989 h 19.7761 l 45.52235,79.8506802 V -81.994876 h 19.7761 z"
       id="path1036"
       style="font-size:186.567px;line-height:1.25;font-family:'Roadgeek 2000 Series D';-inkscape-font-specification:'Roadgeek 2000 Series D';text-align:center;letter-spacing:0.13px;text-anchor:middle;fill:#000000;fill-rule:evenodd;stroke:none;stroke-width:0.944202" />
    <path
       d="m 391.23955,160.31863 q 0,37.8731 -22.0149,55.59697 -7.83582,6.52984 -17.91044,7.08954 0,0 -7.08954,0 H 306.165 V 98.005244 h 40.29847 q 8.76865,0 12.68656,0.93284 6.34328,1.305966 11.38058,5.783576 20.70894,17.35073 20.70894,55.59697 z m -20.14923,0 q 0,-15.8582 -4.10448,-26.67908 -5.78358,-15.8582 -18.84326,-15.8582 H 325.9411 v 85.07456 h 19.58954 q 9.32835,0 14.17909,-4.85075 11.38059,-11.38058 11.38059,-37.68653 z"
       id="path1097"
       style="font-size:186.567px;line-height:1.25;font-family:'Roadgeek 2000 Series D';-inkscape-font-specification:'Roadgeek 2000 Series D';text-align:center;letter-spacing:0.39px;text-anchor:middle;fill:#000000;fill-rule:evenodd;stroke:none;stroke-width:0.917483" />
    <path
       d="M 496.48008,223.00514 H 418.8682 V 98.005244 h 73.69397 v 19.776106 h -53.91786 v 30.78356 h 36.38056 v 20.14923 h -36.38056 v 34.14177 h 57.83577 z"
       id="path1099"
       style="font-size:186.567px;line-height:1.25;font-family:'Roadgeek 2000 Series D';-inkscape-font-specification:'Roadgeek 2000 Series D';text-align:center;letter-spacing:0.39px;text-anchor:middle;fill:#000000;fill-rule:evenodd;stroke:none;stroke-width:0.917483" />
    <path
       d="m 600.41464,197.6331 q -11.19402,27.61192 -37.68654,27.61192 -26.67908,0 -38.24623,-22.38804 -9.14179,-17.91044 -9.14179,-42.53728 0,-33.02236 13.99253,-50.37309 11.19402,-13.992536 32.08952,-13.992536 26.86565,0 38.99251,25.373126 l -18.47014,7.83581 q -5.22387,-7.83581 -9.32835,-10.44775 -4.10447,-2.61194 -11.19402,-2.61194 -14.92536,0 -21.08207,15.29849 -4.85074,11.94029 -4.85074,28.91789 0,22.57461 7.83581,35.0746 6.15671,9.70148 18.84327,9.70148 12.49999,0 19.40297,-14.55223 z"
       id="path1101"
       style="font-size:186.567px;line-height:1.25;font-family:'Roadgeek 2000 Series D';-inkscape-font-specification:'Roadgeek 2000 Series D';text-align:center;letter-spacing:0.39px;text-anchor:middle;fill:#000000;fill-rule:evenodd;stroke:none;stroke-width:0.917483" />
    <path
       d="m 715.16519,223.00514 h -22.94774 l -31.52982,-59.14174 -13.05969,16.23133 v 42.91041 h -19.7761 V 98.005244 h 19.7761 v 49.626826 l 39.36564,-49.626826 h 25.37311 l -38.4328,48.693996 z"
       id="path1103"
       style="font-size:186.567px;line-height:1.25;font-family:'Roadgeek 2000 Series D';-inkscape-font-specification:'Roadgeek 2000 Series D';text-align:center;letter-spacing:0.39px;text-anchor:middle;fill:#000000;fill-rule:evenodd;stroke:none;stroke-width:0.917483" />
  </g>
</svg>
