<?xml version="1.0" encoding="UTF-8" standalone="no"?>
<!-- Created with Inkscape (http://www.inkscape.org/) -->

<svg
   xmlns:dc="http://purl.org/dc/elements/1.1/"
   xmlns:cc="http://creativecommons.org/ns#"
   xmlns:rdf="http://www.w3.org/1999/02/22-rdf-syntax-ns#"
   xmlns:svg="http://www.w3.org/2000/svg"
   xmlns="http://www.w3.org/2000/svg"
   xmlns:sodipodi="http://sodipodi.sourceforge.net/DTD/sodipodi-0.dtd"
   xmlns:inkscape="http://www.inkscape.org/namespaces/inkscape"
   width="815.86383"
   height="815.86383"
   viewBox="0 0 815.86383 815.86384"
   id="svg4206"
   version="1.1"
   inkscape:version="0.91 r13725"
   sodipodi:docname="black koala.svg">
  <defs
     id="defs4208" />
  <sodipodi:namedview
     id="base"
     pagecolor="#ffffff"
     bordercolor="#666666"
     borderopacity="1.0"
     inkscape:pageopacity="0.0"
     inkscape:pageshadow="2"
     inkscape:zoom="0.95405974"
     inkscape:cx="330.68919"
     inkscape:cy="391.29975"
     inkscape:document-units="px"
     inkscape:current-layer="layer1"
     showgrid="false"
     inkscape:window-width="1920"
     inkscape:window-height="1057"
     inkscape:window-x="-8"
     inkscape:window-y="-8"
     inkscape:window-maximized="1"
     fit-margin-top="0.2"
     fit-margin-left="0.2"
     fit-margin-right="0.2"
     fit-margin-bottom="0.2"
     units="px"
     showguides="true" />
  <metadata
     id="metadata4211">
    <rdf:RDF>
      <cc:Work
         rdf:about="">
        <dc:format>image/svg+xml</dc:format>
        <dc:type
           rdf:resource="http://purl.org/dc/dcmitype/StillImage" />
        <dc:title></dc:title>
      </cc:Work>
    </rdf:RDF>
  </metadata>
  <g
     inkscape:label="Layer 1"
     inkscape:groupmode="layer"
     id="layer1"
     transform="translate(-856.93573,2358.0603)">
    <rect
       ry="40"
       rx="40"
       y="-2573.3455"
       x="-784.55249"
       height="600"
       width="600"
       id="rect4770"
       style="fill:#fee011;fill-opacity:1;stroke:none;stroke-width:8;stroke-linejoin:miter;stroke-miterlimit:4;stroke-dasharray:none;stroke-dashoffset:0;stroke-opacity:1"
       transform="matrix(0.70710678,0.70710678,-0.70710678,0.70710678,0,0)" />
    <rect
       ry="32"
       rx="32"
       y="-2565.3452"
       x="-776.55249"
       height="584"
       width="584"
       id="rect4778"
       style="fill:#000000;fill-opacity:1;stroke:none;stroke-width:8;stroke-linejoin:miter;stroke-miterlimit:4;stroke-dasharray:none;stroke-dashoffset:0;stroke-opacity:1"
       transform="matrix(0.70710678,0.70710678,-0.70710678,0.70710678,0,0)" />
    <rect
       style="fill:#fee011;fill-opacity:1;stroke:none;stroke-width:8;stroke-linejoin:miter;stroke-miterlimit:4;stroke-dasharray:none;stroke-dashoffset:0;stroke-opacity:1"
       id="rect4789"
       width="552"
       height="552"
       x="-760.55243"
       y="-2549.3452"
       rx="16"
       ry="16"
       transform="matrix(0.70710678,0.70710678,-0.70710678,0.70710678,0,0)" />
    <path
       d="m 1236.8403,-2162.0284 c -68.1455,-62.2286 -149.757,82.1204 -31.8281,97.9321 -281.661,195.5628 -29.2775,413.5679 66.4112,291.9678 6.8354,4.794 12.9569,13.0566 20.7106,14.5864 40.5998,-9.2833 62.1263,-17.6484 93.3403,-39.8861 -2.0387,-15.3026 10.7135,-19.3827 11.2226,-36.3174 -7.4467,-4.3872 -10.7108,-6.0193 -23.2583,-1.6322 -11.018,2.2434 -16.8325,-1.5298 -25.1976,9.4854 -1.6321,-27.4409 -13.3634,-54.984 -50.0904,-65.7972 2.9598,-8.4672 5.4079,-17.7506 6.0193,-27.7478 78.8589,-13.0593 124.969,-70.2893 159.0404,-111.81 -10.7108,-6.119 -8.365,-16.5255 -10.4037,-23.3608 -6.9376,-0.6113 -13.8752,6.531 -23.3633,5.2033 -26.4202,30.1959 -62.024,58.353 -112.2141,54.5773 1.632,-7.4466 3.2641,-13.9749 2.5504,-22.3399 29.2776,-8.7744 46.5166,-39.9911 48.3534,-84.1621 65.7997,-24.2817 15.3026,-107.3205 -36.2152,-67.5342 -26.625,-23.5652 -61.6174,-29.073 -95.0775,6.8354 z"
       style="fill:#fee011;fill-opacity:1;fill-rule:evenodd;stroke:#000000;stroke-width:10;stroke-linecap:butt;stroke-linejoin:miter;stroke-miterlimit:10;stroke-dasharray:none;stroke-opacity:1"
       id="path4372"
       inkscape:connector-curvature="0" />
    <path
       d="m 1236.6366,-2162.0284 c 6.0193,5.5074 8.1604,9.69 9.0788,13.7728"
       style="fill:none;stroke:#000000;stroke-width:10;stroke-linecap:butt;stroke-linejoin:miter;stroke-miterlimit:10;stroke-dasharray:none;stroke-opacity:1"
       id="path4376"
       inkscape:connector-curvature="0" />
    <path
       d="m 1205.0122,-2064.2988 c 5.2034,-0.4094 9.1812,-1.4274 12.5476,-3.2642"
       style="fill:none;stroke:#000000;stroke-width:10;stroke-linecap:butt;stroke-linejoin:miter;stroke-miterlimit:10;stroke-dasharray:none;stroke-opacity:1"
       id="path4380"
       inkscape:connector-curvature="0" />
    <path
       d="m 1298.0496,-1891.588 c -22.6469,-4.1825 -48.0491,-6.3263 -70.3891,14.0772"
       style="fill:none;stroke:#000000;stroke-width:10;stroke-linecap:butt;stroke-linejoin:miter;stroke-miterlimit:10;stroke-dasharray:none;stroke-opacity:1"
       id="path4384"
       inkscape:connector-curvature="0" />
    <path
       d="m 1304.0685,-1919.5402 c -11.7316,-0.4093 -29.9914,-4.1826 -40.7049,-13.0593"
       style="fill:none;stroke:#000000;stroke-width:10;stroke-linecap:butt;stroke-linejoin:miter;stroke-miterlimit:10;stroke-dasharray:none;stroke-opacity:1"
       id="path4388"
       inkscape:connector-curvature="0" />
    <path
       d="m 1319.6767,-2017.27 c -10.9154,2.5505 -21.6263,2.4483 -32.1351,0.7137"
       style="fill:none;stroke:#000000;stroke-width:10;stroke-linecap:butt;stroke-linejoin:miter;stroke-miterlimit:10;stroke-dasharray:none;stroke-opacity:1"
       id="path4392"
       inkscape:connector-curvature="0" />
    <path
       d="m 1317.1263,-1994.8271 c -8.6722,0.1029 -14.0774,-0.4094 -21.015,-2.6527"
       style="fill:none;stroke:#000000;stroke-width:10;stroke-linecap:butt;stroke-linejoin:miter;stroke-miterlimit:10;stroke-dasharray:none;stroke-opacity:1"
       id="path4396"
       inkscape:connector-curvature="0" />
    <path
       d="m 1266.3226,-2114.9995 c 20.6081,0 19.7922,22.9539 0,19.4852 -19.2806,-3.3666 -20.3011,-19.4852 0,-19.4852 z"
       style="fill:#000000;fill-opacity:1;fill-rule:evenodd;stroke:#000000;stroke-width:5.19999981;stroke-linecap:butt;stroke-linejoin:miter;stroke-miterlimit:10;stroke-dasharray:none;stroke-opacity:1"
       id="path4400"
       inkscape:connector-curvature="0" />
    <path
       d="m 1338.8552,-2114.3883 c 15.8117,1.2255 14.6912,18.5669 2.6527,17.0372 -13.4659,-1.7346 -12.7522,-17.853 -2.6527,-17.0372 z"
       style="fill:#000000;fill-opacity:1;fill-rule:evenodd;stroke:#000000;stroke-width:5.19999981;stroke-linecap:butt;stroke-linejoin:miter;stroke-miterlimit:10;stroke-dasharray:none;stroke-opacity:1"
       id="path4404"
       inkscape:connector-curvature="0" />
    <path
       d="m 1317.0242,-2092.7612 c 6.733,0 13.1588,8.3651 12.1407,22.7494 -0.9183,14.3842 -4.0827,20.0964 -10.813,20.0964 -6.7329,0 -18.0577,-10.0994 -18.0577,-22.34 0,-12.2432 9.9971,-20.5058 16.73,-20.5058 z"
       style="fill:#000000;fill-opacity:1;fill-rule:evenodd;stroke:#000000;stroke-width:5.19999981;stroke-linecap:butt;stroke-linejoin:miter;stroke-miterlimit:10;stroke-dasharray:none;stroke-opacity:1"
       id="path4408"
       inkscape:connector-curvature="0" />
    <path
       d="m 1331.816,-2169.1696 c 4.5891,4.9984 8.6719,10.2017 10.304,16.73"
       style="fill:none;stroke:#000000;stroke-width:10;stroke-linecap:butt;stroke-linejoin:miter;stroke-miterlimit:10;stroke-dasharray:none;stroke-opacity:1"
       id="path4412"
       inkscape:connector-curvature="0" />
  </g>
</svg>
