<?xml version="1.0" encoding="UTF-8" standalone="no"?>
<!-- Created with Inkscape (http://www.inkscape.org/) -->

<svg
   xmlns:dc="http://purl.org/dc/elements/1.1/"
   xmlns:cc="http://creativecommons.org/ns#"
   xmlns:rdf="http://www.w3.org/1999/02/22-rdf-syntax-ns#"
   xmlns:svg="http://www.w3.org/2000/svg"
   xmlns="http://www.w3.org/2000/svg"
   xmlns:sodipodi="http://sodipodi.sourceforge.net/DTD/sodipodi-0.dtd"
   xmlns:inkscape="http://www.inkscape.org/namespaces/inkscape"
   width="606mm"
   height="1506mm"
   viewBox="0 0 606 1506"
   version="1.1"
   id="svg8"
   inkscape:version="0.92.4 (5da689c313, 2019-01-14)"
   sodipodi:docname="AU-QLD_road_sign_R4-Q05.svg">
  <defs
     id="defs2" />
  <sodipodi:namedview
     id="base"
     pagecolor="#ffffff"
     bordercolor="#666666"
     borderopacity="1.0"
     inkscape:pageopacity="0.0"
     inkscape:pageshadow="2"
     inkscape:zoom="0.0875"
     inkscape:cx="2123.2451"
     inkscape:cy="1812.7988"
     inkscape:document-units="mm"
     inkscape:current-layer="layer1"
     showgrid="false"
     showguides="true"
     inkscape:window-width="1920"
     inkscape:window-height="1057"
     inkscape:window-x="-8"
     inkscape:window-y="-8"
     inkscape:window-maximized="1" />
  <metadata
     id="metadata5">
    <rdf:RDF>
      <cc:Work
         rdf:about="">
        <dc:format>image/svg+xml</dc:format>
        <dc:type
           rdf:resource="http://purl.org/dc/dcmitype/StillImage" />
        <dc:title></dc:title>
      </cc:Work>
    </rdf:RDF>
  </metadata>
  <g
     inkscape:label="Layer 1"
     inkscape:groupmode="layer"
     id="layer1"
     transform="translate(0,1209)">
    <rect
       style="opacity:1;fill:#000000;fill-opacity:1;fill-rule:nonzero;stroke:none;stroke-width:198.11943054;stroke-linecap:square;stroke-linejoin:round;stroke-miterlimit:4;stroke-dasharray:none;stroke-opacity:1"
       id="rect10"
       width="604"
       height="1504"
       x="1"
       y="-1208"
       rx="77"
       ry="77" />
    <rect
       y="-1206"
       x="3"
       height="1500"
       width="600"
       id="rect12"
       style="opacity:1;fill:#ffffff;fill-opacity:1;fill-rule:nonzero;stroke:none;stroke-width:197.19955444;stroke-linecap:square;stroke-linejoin:round;stroke-miterlimit:4;stroke-dasharray:none;stroke-opacity:1"
       ry="75"
       rx="75" />
    <circle
       style="opacity:1;fill:#be121e;fill-opacity:1;fill-rule:nonzero;stroke:none;stroke-width:73.34971619;stroke-linecap:square;stroke-linejoin:round;stroke-miterlimit:4;stroke-dasharray:none;stroke-opacity:1"
       id="path23"
       cx="303"
       cy="-856"
       r="290" />
    <circle
       r="230"
       cy="-856"
       cx="303"
       id="circle830"
       style="opacity:1;fill:#ffffff;fill-opacity:1;fill-rule:nonzero;stroke:none;stroke-width:58.17391205;stroke-linecap:square;stroke-linejoin:round;stroke-miterlimit:4;stroke-dasharray:none;stroke-opacity:1" />
    <g
       aria-label="ROAD"
       style="font-style:normal;font-variant:normal;font-weight:normal;font-stretch:normal;font-size:194.52449036px;line-height:0;font-family:'Roadgeek 2005 Series D';-inkscape-font-specification:'Roadgeek 2005 Series D';letter-spacing:0px;word-spacing:0px;fill:#000000;fill-opacity:1;stroke:none;stroke-width:4.86311245"
       id="text843"
       transform="translate(-771.09524,103.41667)">
      <path
         d="m 922.42809,-456.75096 -21.00864,-56.80115 h -24.70461 v 56.80115 h -20.6196 v -130.33141 h 42.98991 q 7.58646,0 13.03314,0.97262 5.44669,0.7781 10.3098,3.1124 4.27954,2.13977 7.78098,5.64121 3.69597,3.30691 6.22478,7.78098 2.72335,4.27953 4.08502,9.33717 1.55619,4.86311 1.55619,9.72623 0,5.25216 -1.55619,10.30979 -1.36167,4.86312 -4.08502,9.33718 -2.52881,4.27954 -6.4193,7.78098 -3.69597,3.50144 -8.17003,5.44668 l 22.95389,60.88617 z m -0.97262,-93.7608 q 0,-4.08502 -2.13977,-7.78098 -2.13977,-3.69597 -6.03026,-5.83574 -2.52882,-1.36167 -4.66859,-1.75072 -2.13977,-0.58357 -7.1974,-0.58357 h -24.70461 v 31.90201 h 24.70461 q 4.86311,0 7.00288,-0.38904 2.33429,-0.38905 4.86311,-1.75073 3.89049,-2.13976 6.03026,-5.83573 2.13977,-3.89049 2.13977,-7.9755 z"
         style="font-style:normal;font-variant:normal;font-weight:normal;font-stretch:normal;line-height:0;font-family:'Roadgeek 2005 Series D';-inkscape-font-specification:'Roadgeek 2005 Series D';fill:#000000;fill-opacity:1;stroke:none;stroke-width:4.86311245"
         id="path890"
         inkscape:connector-curvature="0" />
      <path
         d="m 1056.3308,-521.72214 q 0,15.56196 -3.696,29.76225 -3.6959,14.20029 -10.5043,22.95389 -10.8933,14.58933 -31.5129,14.58933 -13.81127,0 -22.75938,-5.64121 -8.94812,-5.64121 -14.78386,-17.70172 -4.08501,-8.36456 -6.61383,-20.23055 -2.52882,-12.06052 -2.52882,-23.73199 0,-16.14553 3.69597,-29.95677 3.89049,-13.81124 10.50432,-23.14842 5.83573,-7.39193 13.81124,-10.89337 8.16996,-3.69596 19.45246,-3.69596 12.4495,0 21.2031,5.64121 8.7536,5.64121 14.9784,17.70173 4.085,8.7536 6.4193,20.42507 2.3343,11.67147 2.3343,23.92651 z m -20.6196,0 q 0,-11.0879 -1.9452,-20.42507 -1.9453,-9.5317 -5.8358,-16.14553 -3.1124,-5.05764 -7.1974,-7.39193 -3.8905,-2.3343 -9.7262,-2.72335 -7.5865,-0.38905 -12.64407,3.50144 -5.05762,3.89049 -8.36454,12.6441 -2.52882,5.83573 -3.89049,14.20028 -1.16714,8.17003 -1.16714,16.34006 0,10.50432 1.94524,20.23055 1.94525,9.72622 5.83574,15.95101 3.11239,5.05763 7.39186,7.58645 4.2796,2.52882 10.5044,2.52882 7.1974,0 11.8659,-3.89049 4.8632,-3.89049 8.1701,-12.64409 0.9726,-2.52882 1.9452,-6.03026 0.9726,-3.69597 1.5562,-7.58646 0.7781,-4.08501 1.1672,-8.17003 0.389,-4.08501 0.389,-7.9755 z"
         style="font-style:normal;font-variant:normal;font-weight:normal;font-stretch:normal;line-height:0;font-family:'Roadgeek 2005 Series D';-inkscape-font-specification:'Roadgeek 2005 Series D';fill:#000000;fill-opacity:1;stroke:none;stroke-width:4.86311245"
         id="path892"
         inkscape:connector-curvature="0" />
      <path
         d="m 1161.6906,-456.75096 -12.8387,-36.5706 h -40.6556 l -12.8386,36.5706 h -21.9813 l 44.9352,-130.33141 h 20.4251 l 44.9351,130.33141 z m -32.8747,-94.14985 -13.4222,36.5706 h 26.0663 z"
         style="font-style:normal;font-variant:normal;font-weight:normal;font-stretch:normal;line-height:0;font-family:'Roadgeek 2005 Series D';-inkscape-font-specification:'Roadgeek 2005 Series D';fill:#000000;fill-opacity:1;stroke:none;stroke-width:4.86311245"
         id="path894"
         inkscape:connector-curvature="0" />
      <path
         d="m 1292.0949,-522.11119 q 0,19.64698 -6.0303,34.62536 -5.8357,14.78386 -16.9236,23.34294 -3.6959,3.50144 -8.7536,5.25216 -4.8631,1.75072 -9.9207,2.13977 h -7.392 -39.683 v -130.33141 h 42.0173 q 4.8631,0 8.3646,0.38905 3.6959,0.19453 6.6138,0.97262 2.9179,0.7781 5.2522,2.13977 2.3343,1.36167 5.0576,3.30692 10.3098,8.94813 15.7565,23.92651 5.6412,14.78386 5.6412,34.23631 z m -21.0086,0 q 0,-13.22766 -2.9179,-23.53746 -2.7233,-10.3098 -7.5865,-15.36744 -2.5288,-2.33429 -5.8357,-3.89049 -3.3069,-1.55619 -7.3919,-1.55619 h -23.343 v 88.70317 h 20.6196 q 5.0577,0 8.3646,-1.16715 3.5014,-1.16715 6.2248,-3.89049 5.8357,-5.83574 8.7536,-15.95101 3.1124,-10.3098 3.1124,-23.34294 z"
         style="font-style:normal;font-variant:normal;font-weight:normal;font-stretch:normal;line-height:0;font-family:'Roadgeek 2005 Series D';-inkscape-font-specification:'Roadgeek 2005 Series D';fill:#000000;fill-opacity:1;stroke:none;stroke-width:4.86311245"
         id="path896"
         inkscape:connector-curvature="0" />
    </g>
    <g
       aria-label="TRAIN"
       style="font-style:normal;font-variant:normal;font-weight:normal;font-stretch:normal;font-size:201.49253845px;line-height:0;font-family:'Roadgeek 2005 Series D';-inkscape-font-specification:'Roadgeek 2005 Series D';letter-spacing:0px;word-spacing:0px;fill:#000000;fill-opacity:1;stroke:none;stroke-width:5.03731346"
       id="text847"
       transform="translate(-784.70238,103.38095)">
      <path
         d="m 896.78895,-375.44065 v 116.0597 h -21.35821 v -116.0597 h -30.82836 v -18.9403 h 83.41791 v 18.9403 z"
         style="font-style:normal;font-variant:normal;font-weight:normal;font-stretch:normal;line-height:0;font-family:'Roadgeek 2005 Series D';-inkscape-font-specification:'Roadgeek 2005 Series D';fill:#000000;fill-opacity:1;stroke:none;stroke-width:5.03731346"
         id="path879"
         inkscape:connector-curvature="0" />
      <path
         d="m 1016.5007,-259.38095 -21.76119,-58.83582 h -25.58955 v 58.83582 h -21.35821 v -135 h 44.52985 q 7.8582,0 13.5,1.00746 5.6418,0.80597 10.6791,3.22388 4.4329,2.21642 8.0597,5.84329 3.8284,3.42537 6.4478,8.0597 2.8209,4.43283 4.2314,9.67164 1.6119,5.03731 1.6119,10.07463 0,5.4403 -1.6119,10.6791 -1.4105,5.03731 -4.2314,9.67164 -2.6194,4.43284 -6.6492,8.0597 -3.8284,3.62687 -8.4627,5.6418 l 23.7761,63.06716 z m -1.0074,-97.1194 q 0,-4.23135 -2.2164,-8.05971 -2.2165,-3.82835 -6.2463,-6.04477 -2.6194,-1.41045 -4.8359,-1.81343 -2.21639,-0.60448 -7.45519,-0.60448 h -25.58955 v 33.04477 h 25.58955 q 5.03731,0 7.25369,-0.40298 2.418,-0.40299 5.0374,-1.81343 4.0298,-2.21642 6.2463,-6.04478 2.2164,-4.02985 2.2164,-8.26119 z"
         style="font-style:normal;font-variant:normal;font-weight:normal;font-stretch:normal;line-height:0;font-family:'Roadgeek 2005 Series D';-inkscape-font-specification:'Roadgeek 2005 Series D';fill:#000000;fill-opacity:1;stroke:none;stroke-width:5.03731346"
         id="path881"
         inkscape:connector-curvature="0" />
      <path
         d="m 1141.9014,-259.38095 -13.2984,-37.8806 h -42.112 l -13.2985,37.8806 h -22.7687 l 46.5448,-135 h 21.1567 l 46.5448,135 z m -34.0522,-97.52239 -13.9029,37.8806 h 27 z"
         style="font-style:normal;font-variant:normal;font-weight:normal;font-stretch:normal;line-height:0;font-family:'Roadgeek 2005 Series D';-inkscape-font-specification:'Roadgeek 2005 Series D';fill:#000000;fill-opacity:1;stroke:none;stroke-width:5.03731346"
         id="path883"
         inkscape:connector-curvature="0" />
      <path
         d="m 1185.0064,-259.38095 v -135 h 21.7612 v 135 z"
         style="font-style:normal;font-variant:normal;font-weight:normal;font-stretch:normal;line-height:0;font-family:'Roadgeek 2005 Series D';-inkscape-font-specification:'Roadgeek 2005 Series D';fill:#000000;fill-opacity:1;stroke:none;stroke-width:5.03731346"
         id="path885"
         inkscape:connector-curvature="0" />
      <path
         d="m 1311.8618,-259.38095 -51.5821,-91.47761 v 91.47761 h -21.3582 v -135 h 21.3582 l 49.1642,86.23881 v -86.23881 h 21.3581 v 135 z"
         style="font-style:normal;font-variant:normal;font-weight:normal;font-stretch:normal;line-height:0;font-family:'Roadgeek 2005 Series D';-inkscape-font-specification:'Roadgeek 2005 Series D';fill:#000000;fill-opacity:1;stroke:none;stroke-width:5.03731346"
         id="path887"
         inkscape:connector-curvature="0" />
    </g>
    <g
       aria-label="SPEED"
       style="font-style:normal;font-variant:normal;font-weight:normal;font-stretch:normal;font-size:194.52449036px;line-height:0;font-family:'Roadgeek 2005 Series D';-inkscape-font-specification:'Roadgeek 2005 Series D';letter-spacing:0px;word-spacing:0px;fill:#000000;fill-opacity:1;stroke:none;stroke-width:4.86311245"
       id="text851"
       transform="translate(-775.63095,94.27381)">
      <path
         d="m 910.83412,-95.151329 q 0,8.94813 -3.30692,16.53459 -3.30691,7.58645 -9.5317,13.22766 -5.44668,4.86311 -12.83861,7.58646 -7.19741,2.52881 -15.56196,2.52881 -16.92363,0 -28.98415,-8.94812 -11.866,-9.14265 -18.47983,-24.12104 l 19.64697,-7.19741 q 4.08502,9.33718 11.28242,14.39482 7.19741,4.86311 16.53459,4.86311 9.14265,0 14.58933,-5.44669 5.64121,-5.64121 5.64121,-13.81124 0,-6.419301 -3.50144,-10.504321 -3.30691,-4.08501 -8.7536,-6.80835 -5.44669,-2.91787 -12.06052,-5.05764 -6.41931,-2.13977 -12.83861,-4.66859 -2.91787,-1.16715 -7.19741,-3.30692 -4.27954,-2.13977 -8.36455,-5.83573 -3.89049,-3.89049 -6.80836,-9.5317 -2.72334,-5.64121 -2.72334,-13.81124 0,-9.5317 3.11239,-16.14553 3.11239,-6.80836 8.36455,-10.89337 5.44669,-4.27954 12.83862,-6.22479 7.58645,-1.94524 16.34005,-1.94524 13.81124,0 22.95389,7.1974 9.33718,7.19741 14.20029,19.45245 l -18.2853,5.44669 q -1.5562,-3.11239 -4.08501,-5.64121 -2.13977,-2.13977 -6.03026,-3.89049 -3.69597,-1.75072 -9.14265,-1.94525 -3.50145,-0.19452 -7.39193,0.58358 -3.69597,0.58357 -6.61384,2.33429 -2.91786,1.75072 -4.66859,4.86311 -1.75072,2.91787 -1.36167,7.39193 0.38905,6.03026 5.25216,9.33718 4.86312,3.11239 11.866,5.44669 7.00288,2.33429 14.97838,4.86311 8.17003,2.33429 14.97839,7.00288 6.80836,4.47406 11.28242,12.25504 4.66859,7.58646 4.66859,20.425071 z"
         style="font-style:normal;font-variant:normal;font-weight:normal;font-stretch:normal;line-height:0;font-family:'Roadgeek 2005 Series D';-inkscape-font-specification:'Roadgeek 2005 Series D';fill:#000000;fill-opacity:1;stroke:none;stroke-width:4.86311245"
         id="path868"
         inkscape:connector-curvature="0" />
      <path
         d="m 1021.3633,-151.3689 q 0,5.25216 -1.5562,10.30979 -1.5562,4.86312 -4.2795,9.33718 -2.7234,4.27954 -6.4194,7.58645 -3.5014,3.30692 -7.781,5.25217 -4.47403,2.13977 -10.50429,3.30691 -5.83574,1.16715 -13.42219,1.16715 h -24.12104 v 56.801151 h -20.6196 V -187.93951 h 44.74064 q 7.9755,0 13.42219,0.97262 5.64121,0.7781 10.50429,3.1124 4.2796,2.13977 7.781,5.64121 3.696,3.30691 6.4194,7.78098 2.7233,4.27953 4.2795,9.33717 1.5562,4.86311 1.5562,9.72623 z m -21.0087,0 q 0,-4.08502 -2.33429,-7.78098 -2.13977,-3.69597 -5.44668,-5.83574 -2.72335,-1.55619 -5.25216,-1.94524 -2.3343,-0.38905 -7.19741,-0.38905 h -26.84438 v 31.90201 h 26.84438 q 4.86311,0 7.19741,-0.38904 2.52881,-0.38905 5.25216,-1.75073 3.30691,-1.75072 5.44668,-5.64121 2.33429,-4.08501 2.33429,-8.17002 z"
         style="font-style:normal;font-variant:normal;font-weight:normal;font-stretch:normal;line-height:0;font-family:'Roadgeek 2005 Series D';-inkscape-font-specification:'Roadgeek 2005 Series D';fill:#000000;fill-opacity:1;stroke:none;stroke-width:4.86311245"
         id="path870"
         inkscape:connector-curvature="0" />
      <path
         d="M 1040.5054,-57.608099 V -187.93951 h 76.8372 v 20.6196 h -56.2176 v 31.90201 h 37.9323 v 21.00865 h -37.9323 v 35.792511 h 60.3026 v 21.00864 z"
         style="font-style:normal;font-variant:normal;font-weight:normal;font-stretch:normal;line-height:0;font-family:'Roadgeek 2005 Series D';-inkscape-font-specification:'Roadgeek 2005 Series D';fill:#000000;fill-opacity:1;stroke:none;stroke-width:4.86311245"
         id="path872"
         inkscape:connector-curvature="0" />
      <path
         d="M 1143.4666,-57.608099 V -187.93951 h 76.8372 v 20.6196 h -56.2176 v 31.90201 h 37.9323 v 21.00865 h -37.9323 v 35.792511 h 60.3026 v 21.00864 z"
         style="font-style:normal;font-variant:normal;font-weight:normal;font-stretch:normal;line-height:0;font-family:'Roadgeek 2005 Series D';-inkscape-font-specification:'Roadgeek 2005 Series D';fill:#000000;fill-opacity:1;stroke:none;stroke-width:4.86311245"
         id="path874"
         inkscape:connector-curvature="0" />
      <path
         d="m 1335.131,-122.96833 q 0,19.64698 -6.0303,34.625361 -5.8357,14.78386 -16.9236,23.34294 -3.696,3.50144 -8.7536,5.25216 -4.8631,1.75072 -9.9207,2.13977 h -7.392 -39.683 V -187.93951 h 42.0173 q 4.8631,0 8.3646,0.38905 3.6959,0.19453 6.6138,0.97262 2.9179,0.7781 5.2522,2.13977 2.3343,1.36167 5.0576,3.30692 10.3098,8.94813 15.7565,23.92651 5.6412,14.78386 5.6412,34.23631 z m -21.0087,0 q 0,-13.22766 -2.9178,-23.53746 -2.7234,-10.3098 -7.5865,-15.36744 -2.5288,-2.33429 -5.8357,-3.89049 -3.3069,-1.55619 -7.3919,-1.55619 h -23.343 v 88.703171 h 20.6196 q 5.0577,0 8.3646,-1.16715 3.5014,-1.16715 6.2248,-3.89049 5.8357,-5.83574 8.7536,-15.95101 3.1123,-10.309801 3.1123,-23.342941 z"
         style="font-style:normal;font-variant:normal;font-weight:normal;font-stretch:normal;line-height:0;font-family:'Roadgeek 2005 Series D';-inkscape-font-specification:'Roadgeek 2005 Series D';fill:#000000;fill-opacity:1;stroke:none;stroke-width:4.86311245"
         id="path876"
         inkscape:connector-curvature="0" />
    </g>
    <g
       aria-label="LIMIT"
       style="font-style:normal;font-variant:normal;font-weight:normal;font-stretch:normal;font-size:201.49253845px;line-height:0;font-family:'Roadgeek 2005 Series D';-inkscape-font-specification:'Roadgeek 2005 Series D';letter-spacing:0px;word-spacing:0px;fill:#000000;fill-opacity:1;stroke:none;stroke-width:5.03731346"
       id="text855"
       transform="translate(-804.35714,104.82143)">
      <path
         d="M 897.05714,129.17857 V -5.8214285 h 21.35821 V 109.23081 h 62.46268 v 19.94776 z"
         style="font-style:normal;font-variant:normal;font-weight:normal;font-stretch:normal;line-height:0;font-family:'Roadgeek 2005 Series D';-inkscape-font-specification:'Roadgeek 2005 Series D';fill:#000000;fill-opacity:1;stroke:none;stroke-width:5.03731346"
         id="path857"
         inkscape:connector-curvature="0" />
      <path
         d="M 1000.9517,129.17857 V -5.8214285 h 21.7612 V 129.17857 Z"
         style="font-style:normal;font-variant:normal;font-weight:normal;font-stretch:normal;line-height:0;font-family:'Roadgeek 2005 Series D';-inkscape-font-specification:'Roadgeek 2005 Series D';fill:#000000;fill-opacity:1;stroke:none;stroke-width:5.03731346"
         id="path859"
         inkscape:connector-curvature="0" />
      <path
         d="M 1138.6876,129.17857 V 50.999472 l -31.2313,78.179098 -31.2314,-78.179098 v 78.179098 h -21.3582 V -5.8214285 h 21.3582 l 31.2314,75.7611905 31.2313,-75.7611905 h 21.3582 V 129.17857 Z"
         style="font-style:normal;font-variant:normal;font-weight:normal;font-stretch:normal;line-height:0;font-family:'Roadgeek 2005 Series D';-inkscape-font-specification:'Roadgeek 2005 Series D';fill:#000000;fill-opacity:1;stroke:none;stroke-width:5.03731346"
         id="path861"
         inkscape:connector-curvature="0" />
      <path
         d="M 1192.2122,129.17857 V -5.8214285 h 21.7612 V 129.17857 Z"
         style="font-style:normal;font-variant:normal;font-weight:normal;font-stretch:normal;line-height:0;font-family:'Roadgeek 2005 Series D';-inkscape-font-specification:'Roadgeek 2005 Series D';fill:#000000;fill-opacity:1;stroke:none;stroke-width:5.03731346"
         id="path863"
         inkscape:connector-curvature="0" />
      <path
         d="M 1286.4258,13.118872 V 129.17857 h -21.3583 V 13.118872 h -30.8283 V -5.8214285 h 83.4179 V 13.118872 Z"
         style="font-style:normal;font-variant:normal;font-weight:normal;font-stretch:normal;line-height:0;font-family:'Roadgeek 2005 Series D';-inkscape-font-specification:'Roadgeek 2005 Series D';fill:#000000;fill-opacity:1;stroke:none;stroke-width:5.03731346"
         id="path865"
         inkscape:connector-curvature="0" />
    </g>
    <path
       d="m 260.0239,-797.902 v 57.7521 H 223.7127 V -797.902 H 108.9 v -21.7868 l 114.8127,-152.16144 h 36.3112 v 140.74934 h 22.1326 v 33.1989 z m -36.3112,-120.34594 -66.0519,87.14704 h 66.0519 z"
       style="font-style:normal;font-variant:normal;font-weight:normal;font-stretch:normal;font-size:345.82131958px;line-height:0;font-family:'Roadgeek 2005 Series D';-inkscape-font-specification:'Roadgeek 2005 Series D';letter-spacing:0px;word-spacing:0px;fill:#000000;fill-opacity:1;stroke:none;stroke-width:8.64553261"
       id="path15-1"
       inkscape:connector-curvature="0" />
    <path
       d="m 497.0997,-855.6542 q 0,27.6657 -6.5705,52.9107 -6.5707,25.2449 -18.6744,40.8069 Q 452.4887,-736 415.8317,-736 q -24.5533,0 -40.4611,-10.0288 -15.9078,-10.0288 -26.2825,-31.4698 -7.2622,-14.8703 -11.7579,-35.9654 -4.4957,-21.4409 -4.4957,-42.1902 0,-28.7032 6.5706,-53.25654 6.9165,-24.5533 18.6744,-41.1527 10.3746,-13.1412 24.5533,-19.366 14.5245,-6.5706 34.5822,-6.5706 22.1325,0 37.6945,10.0288 15.5619,10.0288 26.6282,31.4697 7.2624,15.562 11.4122,36.3113 4.1498,20.74924 4.1498,42.53604 z m -36.6571,0 q 0,-19.7118 -3.4582,-36.3112 -3.4582,-16.94534 -10.3746,-28.70324 -5.5332,-8.9914 -12.7954,-13.1412 -6.9165,-4.1499 -17.2911,-4.8415 -13.487,-0.6917 -22.4784,6.2248 -8.9913,6.9164 -14.8703,22.4783 -4.4957,10.3747 -6.9164,25.24504 -2.075,14.5245 -2.075,29.049 0,18.6744 3.4584,35.9654 3.4581,17.2911 10.3745,28.3574 5.5331,8.9913 13.1412,13.487 7.6081,4.4957 18.6744,4.4957 12.7953,0 21.0951,-6.9164 8.6455,-6.9165 14.5244,-22.4784 1.7292,-4.4957 3.4583,-10.7205 1.7291,-6.5706 2.7665,-13.487 1.3833,-7.2623 2.075,-14.5245 0.6916,-7.2623 0.6916,-14.1787 z"
       style="font-style:normal;font-variant:normal;font-weight:normal;font-stretch:normal;font-size:345.82131958px;line-height:0;font-family:'Roadgeek 2005 Series D';-inkscape-font-specification:'Roadgeek 2005 Series D';letter-spacing:0px;word-spacing:0px;fill:#000000;fill-opacity:1;stroke:none;stroke-width:8.64553261"
       id="path17-5"
       inkscape:connector-curvature="0" />
  </g>
</svg>
