<?xml version="1.0" encoding="UTF-8" standalone="no"?>
<!-- Created with Inkscape (http://www.inkscape.org/) -->

<svg
   xmlns:dc="http://purl.org/dc/elements/1.1/"
   xmlns:cc="http://creativecommons.org/ns#"
   xmlns:rdf="http://www.w3.org/1999/02/22-rdf-syntax-ns#"
   xmlns:svg="http://www.w3.org/2000/svg"
   xmlns="http://www.w3.org/2000/svg"
   xmlns:sodipodi="http://sodipodi.sourceforge.net/DTD/sodipodi-0.dtd"
   xmlns:inkscape="http://www.inkscape.org/namespaces/inkscape"
   width="815.86383"
   height="815.86383"
   viewBox="0 0 815.86384 815.86384"
   id="svg2"
   version="1.1"
   inkscape:version="0.91 r13725"
   sodipodi:docname="drawing-1.svg">
  <defs
     id="defs4" />
  <sodipodi:namedview
     id="base"
     pagecolor="#ffffff"
     bordercolor="#666666"
     borderopacity="1.0"
     inkscape:pageopacity="0.0"
     inkscape:pageshadow="2"
     inkscape:zoom="0.7"
     inkscape:cx="461.30513"
     inkscape:cy="383.62182"
     inkscape:document-units="px"
     inkscape:current-layer="layer1"
     showgrid="false"
     fit-margin-top="0.2"
     fit-margin-bottom="0.2"
     fit-margin-left="0.2"
     fit-margin-right="0.2"
     units="px"
     inkscape:window-width="1920"
     inkscape:window-height="1057"
     inkscape:window-x="-8"
     inkscape:window-y="-8"
     inkscape:window-maximized="1" />
  <metadata
     id="metadata7">
    <rdf:RDF>
      <cc:Work
         rdf:about="">
        <dc:format>image/svg+xml</dc:format>
        <dc:type
           rdf:resource="http://purl.org/dc/dcmitype/StillImage" />
        <dc:title></dc:title>
      </cc:Work>
    </rdf:RDF>
  </metadata>
  <g
     inkscape:label="Layer 1"
     inkscape:groupmode="layer"
     id="layer1"
     transform="translate(0.20000345,-236.69838)">
    <rect
       ry="40"
       rx="40"
       y="-1044.1324"
       x="-467.51245"
       height="600"
       width="600"
       id="rect4770"
       style="fill:#fee011;fill-opacity:1;stroke:none;stroke-width:8;stroke-linejoin:miter;stroke-miterlimit:4;stroke-dasharray:none;stroke-dashoffset:0;stroke-opacity:1"
       transform="matrix(0.70710678,-0.70710678,-0.70710678,-0.70710678,0,0)" />
    <rect
       ry="32"
       rx="32"
       y="-1036.1324"
       x="-459.51245"
       height="584"
       width="584"
       id="rect4778"
       style="fill:#000000;fill-opacity:1;stroke:none;stroke-width:8;stroke-linejoin:miter;stroke-miterlimit:4;stroke-dasharray:none;stroke-dashoffset:0;stroke-opacity:1"
       transform="matrix(0.70710678,-0.70710678,-0.70710678,-0.70710678,0,0)" />
    <rect
       style="fill:#fee011;fill-opacity:1;stroke:none;stroke-width:8;stroke-linejoin:miter;stroke-miterlimit:4;stroke-dasharray:none;stroke-dashoffset:0;stroke-opacity:1"
       id="rect4789"
       width="552"
       height="552"
       x="-443.51239"
       y="-1020.1322"
       rx="16"
       ry="16"
       transform="matrix(0.70710678,-0.70710678,-0.70710678,-0.70710678,0,0)" />
    <path
       inkscape:connector-curvature="0"
       id="path4176"
       style="fill:#000000;fill-opacity:1;fill-rule:nonzero;stroke:none"
       d="m 214.47708,585.04434 16.84677,57.35221 -17.43706,0 -15.53633,-54.6487 -15.31203,0 0,54.6487 -16.13843,0 0,-117.7621 39.33668,0 c 2.90421,0.0284 5.63133,0.66112 8.15776,1.92433 2.56184,1.2396 4.85215,2.93962 6.92996,5.10008 2.066,2.16044 3.84866,4.61604 5.33618,7.34316 1.49933,2.73892 2.63268,5.60772 3.43547,8.61818 0.81412,2.99865 1.2278,5.9855 1.2278,8.92512 0,2.84518 -0.37778,5.74939 -1.10975,8.70083 -0.74422,2.91601 -1.81808,5.72577 -3.25837,8.37025 -1.42849,2.65629 -3.19935,4.97021 -5.27716,6.97719 -2.0778,1.99517 -4.49799,3.47088 -7.20149,4.45075 m -10.95572,-14.24951 c 1.85351,-0.0188 3.45908,-0.47223 4.81674,-1.33404 1.34586,-0.86229 2.44379,-2.00697 3.32921,-3.43546 0.86229,-1.4285 1.51114,-3.02228 1.94795,-4.76952 0.41273,-1.74724 0.62523,-3.51811 0.62523,-5.30077 0.0188,-1.84169 -0.14167,-3.62436 -0.425,-5.33619 -0.29468,-1.72363 -0.8264,-3.28199 -1.59378,-4.65145 -0.74328,-1.36947 -1.82988,-2.4556 -3.19935,-3.25839 -1.36947,-0.80279 -3.11671,-1.21598 -5.26535,-1.23959 l -20.71905,0 0,29.32541 20.48293,0 z" />
    <path
       inkscape:connector-curvature="0"
       id="path4178"
       style="fill:#000000;fill-opacity:1;fill-rule:nonzero;stroke:none"
       d="m 282.07109,644.6302 c -3.0813,-0.0188 -6.16259,-0.53172 -9.20847,-1.54654 -3.05768,-1.02711 -5.93828,-2.4556 -8.67721,-4.29729 -2.73892,-1.8535 -5.1591,-4.02575 -7.27232,-6.51676 -2.12504,-2.50281 -3.78964,-5.22993 -5.00563,-8.20498 -1.21599,-2.96324 -1.8417,-6.09176 -1.86531,-9.35013 l 0,-90.07769 16.48079,0 0,89.02697 c 0.0189,2.08962 0.47223,4.00214 1.38127,5.70217 0.88496,1.73544 2.07781,3.19935 3.55353,4.43895 1.48753,1.23961 3.14032,2.18406 4.9584,2.84519 1.80628,0.67339 3.64798,1.02709 5.53689,1.02709 1.95975,0 3.87228,-0.31828 5.72577,-0.92084 1.85351,-0.63752 3.54173,-1.53476 5.02925,-2.73894 1.48751,-1.19237 2.66809,-2.66809 3.55352,-4.39172 0.88496,-1.72364 1.33404,-3.73062 1.35766,-5.9619 l 0,-89.02697 16.83497,0 0,90.07769 c -0.0189,3.08128 -0.64885,6.09174 -1.8417,8.99595 -1.21599,2.90421 -2.8806,5.63134 -5.00563,8.14596 -2.12503,2.52642 -4.56881,4.7459 -7.31955,6.64662 -2.75073,1.91253 -5.67855,3.42366 -8.79526,4.47437 -3.10491,1.08612 -6.24524,1.62919 -9.42097,1.6528" />
    <path
       inkscape:connector-curvature="0"
       id="path4180"
       style="fill:#000000;fill-opacity:1;fill-rule:nonzero;stroke:none"
       d="m 338.83207,524.6302 16.7169,0 21.67531,63.24327 20.24682,-63.24327 17.79123,0 0,117.76211 -16.37453,0 0,-67.0093 -21.66352,67.0093 -21.67531,-67.0093 0,67.0093 -16.7169,0 0,-117.76211 z" />
    <path
       inkscape:connector-curvature="0"
       id="path4182"
       style="fill:#000000;fill-opacity:1;fill-rule:nonzero;stroke:none"
       d="m 455.41691,588.69373 0,37.09359 20.6128,0 c 1.48751,-0.0284 2.82157,-0.35418 4.03755,-1.00349 1.19238,-0.66112 2.25489,-1.52293 3.17574,-2.60906 0.92085,-1.07433 1.68822,-2.27851 2.31393,-3.55353 0.6375,-1.28682 1.09792,-2.58545 1.41668,-3.88408 0.31829,-1.29863 0.47223,-2.4674 0.47223,-3.55353 0.0189,-1.39307 -0.14167,-3.03406 -0.42501,-4.9584 -0.29467,-1.91252 -0.81506,-3.87228 -1.53474,-5.91466 -0.73195,-2.01878 -1.71183,-3.9077 -2.95144,-5.66676 -1.2514,-1.74724 -2.79795,-3.18754 -4.68686,-4.26186 -1.88892,-1.09793 -4.14382,-1.65281 -6.76469,-1.68822 l -15.66619,0 z m 0,-47.69513 0,30.86017 17.07107,0 c 1.80628,-0.0189 3.43547,-0.37779 4.85216,-1.08613 1.41669,-0.68474 2.63268,-1.60558 3.67158,-2.76254 1.03891,-1.15696 1.87711,-2.43198 2.57365,-3.81325 0.66111,-1.39307 1.15696,-2.76254 1.48752,-4.15562 0.33056,-1.39307 0.48451,-2.66808 0.48451,-3.84866 0.0472,-1.71183 -0.0567,-3.43547 -0.2484,-5.20632 -0.2125,-1.75906 -0.70834,-3.38825 -1.51113,-4.89938 -0.79145,-1.51113 -2.066,-2.72712 -3.78964,-3.64797 -1.74724,-0.93313 -4.1202,-1.41669 -7.16607,-1.4403 l -17.42525,0 z m -15.78426,101.39938 0,-117.76211 34.74425,0 c 4.1202,0.0378 7.69734,0.66112 10.75502,1.90072 3.05768,1.2396 5.65494,2.90421 7.76817,4.98202 2.12503,2.10142 3.83686,4.43895 5.11188,7.0244 1.28682,2.59726 2.23128,5.26535 2.82156,7.99247 0.59029,2.72713 0.88496,5.35981 0.8623,7.88623 0.0189,3.0813 -0.17756,5.83203 -0.59029,8.26401 -0.39006,2.43198 -1.07432,4.67506 -2.01878,6.71746 -0.96807,2.01878 -2.2785,3.97852 -3.94312,5.84383 -1.67641,1.8653 -3.76602,3.75422 -6.28064,5.67855 2.90421,1.6292 5.33619,3.58894 7.29594,5.86745 1.94795,2.29031 3.5181,4.80493 4.67507,7.56746 1.15696,2.75074 1.98336,5.67856 2.49101,8.73625 0.49584,3.06948 0.74422,6.18619 0.73195,9.38554 0,2.82157 -0.37779,5.65495 -1.12154,8.50013 -0.74424,2.82157 -1.86531,5.53688 -3.36464,8.08692 -1.4639,2.55004 -3.3056,4.82854 -5.51327,6.82371 -2.21948,2.00698 -4.76951,3.57713 -7.67372,4.7341 -2.90421,1.15695 -6.1626,1.74724 -9.77515,1.77086 l -36.97552,0 z" />
    <path
       inkscape:connector-curvature="0"
       id="path4184"
       style="fill:#000000;fill-opacity:1;fill-rule:nonzero;stroke:none"
       d="m 523.95235,524.6302 16.71691,0 0,102.21396 42.15824,0 0,15.54815 -58.87515,0 0,-117.76211 z" />
    <path
       inkscape:connector-curvature="0"
       id="path4186"
       style="fill:#000000;fill-opacity:1;fill-rule:nonzero;stroke:none"
       d="m 599.67239,524.6302 56.99805,0 0,16.61066 -40.85962,0 0,29.54972 25.07535,0 0,16.13843 -25.07535,0 0,38.85264 42.73672,0 0,16.61066 -58.87515,0 0,-117.76211 z" />
    <path
       inkscape:connector-curvature="0"
       id="path4188"
       style="fill:#000000;fill-opacity:1;fill-rule:nonzero;stroke:none"
       d="m 202.73246,778.82953 16.27943,0 c 0.0186,4.42301 0.54373,8.08182 1.58626,11.01119 1.01892,2.90622 2.65149,5.09456 4.9093,6.57662 2.23466,1.49362 5.19877,2.28096 8.86917,2.39675 2.31571,-0.0186 4.38826,-0.46314 6.24083,-1.35468 1.82941,-0.90313 3.38094,-2.13046 4.67773,-3.69356 1.28522,-1.57468 2.2694,-3.40409 2.9641,-5.48823 0.67156,-2.06098 1.01892,-4.29564 1.01892,-6.68081 0,-1.26207 -0.11578,-2.5936 -0.32421,-3.94829 -0.23157,-1.34311 -0.54372,-2.68622 -0.94943,-4.01775 -0.98418,-3.11463 -2.18835,-5.75454 -3.65882,-7.95446 -1.4589,-2.16519 -3.11463,-4.04091 -4.92088,-5.58086 -1.82941,-1.55153 -3.76303,-2.94094 -5.81243,-4.19143 -2.0494,-1.22733 -4.16827,-2.44307 -6.32189,-3.68198 -2.1536,-1.22732 -4.28406,-2.59359 -6.42608,-4.11037 -2.58201,-1.82941 -4.81668,-4.08723 -6.68082,-6.76188 -1.84099,-2.65148 -3.26515,-5.60401 -4.27248,-8.81126 -0.99576,-3.21884 -1.50521,-6.5882 -1.5168,-10.07334 0.01,-3.19567 0.55578,-6.19452 1.63258,-9.00811 1.07681,-2.81358 2.55886,-5.37244 4.44616,-7.67656 1.91046,-2.29255 4.09881,-4.27249 6.58819,-5.92822 2.50097,-1.67889 5.18719,-2.95253 8.05866,-3.85565 2.87148,-0.90313 5.81244,-1.34311 8.83443,-1.36627 4.00618,0.0186 7.69974,0.7753 11.09225,2.23466 3.38093,1.45889 6.35662,3.5083 8.86916,6.13663 2.50097,2.63991 4.46932,5.71979 5.87032,9.26283 1.38942,3.54303 2.1073,7.41027 2.11887,11.59012 l -15.93207,0 c -0.0185,-1.44732 -0.38162,-2.92937 -1.07681,-4.46932 -0.71786,-1.53994 -1.64414,-2.9641 -2.81358,-4.29563 -1.15786,-1.31996 -2.44307,-2.39677 -3.85566,-3.23042 -1.42416,-0.82161 -2.82516,-1.26206 -4.27248,-1.28522 -1.55152,0.0186 -3.09147,0.30104 -4.65457,0.92629 -1.5631,0.59004 -2.98727,1.43573 -4.27248,2.53569 -1.30838,1.09996 -2.35045,2.36203 -3.13779,3.85566 -0.78733,1.4589 -1.19258,3.0799 -1.21574,4.80509 -0.01,1.67889 0.1973,3.3462 0.65951,5.02509 0.43999,1.65573 1.25049,3.21883 2.38518,4.67773 1.15786,1.44732 2.75569,2.67465 4.8051,3.69356 3.35777,1.65573 6.63449,3.56619 9.8186,5.71979 3.21883,2.15362 6.20609,4.58511 8.99653,7.27133 2.79043,2.6978 5.25665,5.68506 7.3871,8.97337 2.11887,3.27673 3.79776,6.87765 5.00194,10.77962 1.19258,3.92513 1.81783,8.16287 1.8294,12.75956 -0.01,5.16402 -0.84569,9.7607 -2.45465,13.84792 -1.621,4.0525 -3.85565,7.52606 -6.72713,10.38595 -2.84832,2.84833 -6.15978,5.0251 -9.91124,6.53031 -3.75144,1.50521 -7.78077,2.25782 -12.08799,2.26939 -4.33037,0 -8.39444,-0.72898 -12.20378,-2.2115 -3.80934,-1.48205 -7.15554,-3.71671 -10.06176,-6.68082 -2.90621,-2.96411 -5.19876,-6.6924 -6.85449,-11.18487 -1.65573,-4.4809 -2.48939,-9.7144 -2.52412,-15.72366" />
    <path
       inkscape:connector-curvature="0"
       id="path4190"
       style="fill:#000000;fill-opacity:1;fill-rule:nonzero;stroke:none"
       d="m 276.64904,696.94238 57.75376,0 0,15.24894 -20.21613,0 0,100.24701 -16.97415,0 0,-100.24701 -20.56348,0 0,-15.24894 z" />
    <path
       inkscape:connector-curvature="0"
       id="path4192"
       style="fill:#000000;fill-opacity:1;fill-rule:nonzero;stroke:none"
       d="m 398.03374,756.1921 16.51099,56.24855 -17.08992,0 -15.24894,-53.59707 -15.00579,0 0,53.59707 -15.82787,0 0,-115.49595 38.57971,0 c 2.84831,0.0185 5.52296,0.6484 8.00077,1.8873 2.50096,1.21574 4.75878,2.88306 6.7966,5.00193 2.02624,2.11887 3.7746,4.52721 5.2335,7.20185 1.47047,2.68623 2.58202,5.49981 3.36936,8.45234 0.78734,2.94095 1.19258,5.87032 1.19258,8.75338 0,2.79042 -0.35846,5.63874 -1.0768,8.53338 -0.72898,2.8599 -1.7831,5.6156 -3.19567,8.20918 -1.40101,2.60518 -3.1378,4.87457 -5.17562,6.84292 -2.03782,1.95678 -4.41142,3.4041 -7.0629,4.36512 m -10.74489,-13.9753 c 1.81783,-0.0186 3.39251,-0.46314 4.72405,-1.30838 1.31994,-0.84477 2.39676,-1.96835 3.26514,-3.36935 0.8457,-1.40101 1.48206,-2.96411 1.91046,-4.67774 0.40479,-1.71362 0.61413,-3.4504 0.61413,-5.19876 0.0186,-1.80625 -0.13894,-3.55462 -0.42795,-5.2335 -0.289,-1.69047 -0.79938,-3.21884 -1.55151,-4.56195 -0.72992,-1.3431 -1.79468,-2.40833 -3.1378,-3.19567 -1.35468,-0.78734 -3.05673,-1.19259 -5.16403,-1.21575 l -20.32034,0 0,28.7611 20.08877,0 z" />
    <path
       inkscape:connector-curvature="0"
       id="path4194"
       style="fill:#000000;fill-opacity:1;fill-rule:nonzero;stroke:none"
       d="m 432.91071,696.94377 16.16355,0 0,115.49595 -16.16355,0 0,-115.49595 z" />
    <path
       inkscape:connector-curvature="0"
       id="path4196"
       style="fill:#000000;fill-opacity:1;fill-rule:nonzero;stroke:none"
       d="m 473.10538,696.94238 33.94829,0 c 4.52721,0.0185 8.56812,0.78735 12.16905,2.32729 3.60092,1.53995 6.65766,3.77461 9.20493,6.65766 2.53571,2.89463 4.4809,6.35662 5.81244,10.39753 1.34311,4.06407 2.02624,8.60286 2.03782,13.6511 -0.01,4.21459 -0.53261,8.04708 -1.55152,11.48591 -1.04207,3.47357 -2.46623,6.5303 -4.29565,9.18179 -1.85256,2.66307 -3.98302,4.89772 -6.44924,6.72713 -2.44307,1.80625 -5.11772,3.19568 -7.9892,4.11039 -2.87148,0.94943 -5.83558,1.41257 -8.93863,1.41257 l -17.90042,0 0,49.54458 -16.04787,0 0,-115.49595 z m 16.04787,16.17522 0,32.67465 20.21613,0 c 1.73678,-0.01 3.27672,-0.4511 4.61983,-1.31995 1.34312,-0.89109 2.47781,-2.1073 3.4041,-3.64725 0.92628,-1.53994 1.64415,-3.32304 2.11887,-5.36086 0.46314,-2.02625 0.71787,-4.20301 0.71787,-6.5303 0,-1.80625 -0.289,-3.63566 -0.86793,-5.48822 -0.55577,-1.84099 -1.3431,-3.55462 -2.38517,-5.09456 -1.01892,-1.56311 -2.23467,-2.81359 -3.62409,-3.77461 -1.38942,-0.94944 -2.90622,-1.44731 -4.56195,-1.4589 l -19.6372,0 z" />
    <path
       inkscape:connector-curvature="0"
       id="path4198"
       style="fill:#000000;fill-opacity:1;fill-rule:nonzero;stroke:none"
       d="m 549.55942,778.82953 16.27943,0 c 0.0185,4.42301 0.54373,8.08182 1.58626,11.01119 1.01891,2.90622 2.65148,5.09456 4.9093,6.57662 2.23466,1.49362 5.19876,2.28096 8.86916,2.39675 2.30413,-0.0186 4.38827,-0.46314 6.24084,-1.35468 1.8294,-0.90313 3.38093,-2.13046 4.67773,-3.69356 1.28522,-1.57468 2.26939,-3.40409 2.96411,-5.48823 0.67155,-2.06098 1.01891,-4.29564 1.01891,-6.68081 0,-1.26207 -0.11579,-2.5936 -0.3242,-3.94829 -0.23157,-1.34311 -0.54466,-2.68622 -0.94944,-4.01775 -0.98418,-3.11463 -2.18835,-5.75454 -3.65882,-7.95446 -1.4589,-2.16519 -3.11463,-4.04091 -4.92088,-5.58086 -1.82941,-1.55153 -3.76303,-2.94094 -5.81243,-4.19143 -2.0494,-1.22733 -4.16827,-2.44307 -6.32189,-3.68198 -2.15361,-1.22732 -4.28405,-2.59359 -6.42608,-4.11037 -2.58202,-1.82941 -4.81668,-4.08723 -6.68083,-6.76188 -1.84098,-2.65148 -3.26514,-5.60401 -4.27248,-8.81126 -0.99575,-3.21884 -1.50521,-6.5882 -1.51678,-10.07334 0.01,-3.19567 0.55577,-6.19452 1.63257,-9.00811 1.0768,-2.81358 2.55886,-5.37244 4.44616,-7.67656 1.91046,-2.29255 4.09881,-4.27249 6.58819,-5.92822 2.50097,-1.67889 5.18719,-2.95253 8.05867,-3.85565 2.87148,-0.90313 5.81242,-1.34311 8.83442,-1.36627 4.00617,0.0186 7.69973,0.7753 11.09225,2.23466 3.38093,1.45889 6.35661,3.5083 8.86916,6.13663 2.50096,2.63991 4.46931,5.71979 5.87032,9.26283 1.38942,3.54303 2.10729,7.41027 2.11887,11.59012 l -15.93207,0 c -0.0186,-1.44732 -0.39367,-2.92937 -1.0768,-4.46932 -0.71788,-1.53994 -1.64416,-2.9641 -2.81359,-4.29563 -1.15785,-1.31996 -2.44308,-2.39677 -3.85565,-3.23042 -1.42416,-0.82161 -2.82517,-1.26206 -4.27249,-1.28522 -1.55152,0.0186 -3.09147,0.30104 -4.65457,0.92629 -1.5631,0.59004 -2.98726,1.43573 -4.27249,2.53569 -1.30837,1.09996 -2.35044,2.36203 -3.13778,3.85566 -0.78734,1.4589 -1.19259,3.0799 -1.21575,4.80509 -0.01,1.67889 0.1973,3.3462 0.66044,5.02509 0.43999,1.65573 1.25048,3.21883 2.38518,4.67773 1.15786,1.44732 2.7557,2.67465 4.8051,3.69356 3.35778,1.65573 6.62293,3.56619 9.8186,5.71979 3.21884,2.15362 6.2061,4.58511 8.99653,7.27133 2.79042,2.6978 5.24508,5.68506 7.38711,8.97337 2.11887,3.27673 3.79776,6.87765 5.00192,10.77962 1.1926,3.92513 1.81784,8.16287 1.82942,12.75956 -0.01,5.16402 -0.8457,9.7607 -2.45465,13.84792 -1.621,4.0525 -3.85566,7.52606 -6.72713,10.38595 -2.84832,2.84833 -6.15979,5.0251 -9.91124,6.53031 -3.75144,1.50521 -7.78077,2.25782 -12.08799,2.26939 -4.33038,0 -8.39444,-0.72898 -12.20379,-2.2115 -3.80933,-1.48205 -7.15554,-3.71671 -10.06175,-6.68082 -2.90621,-2.96411 -5.19876,-6.6924 -6.85449,-11.18487 -1.65573,-4.4809 -2.48939,-9.7144 -2.52412,-15.72366" />
  </g>
</svg>
