<?xml version="1.0" encoding="UTF-8" standalone="no"?>
<!-- Created with Inkscape (http://www.inkscape.org/) -->

<svg
   xmlns:dc="http://purl.org/dc/elements/1.1/"
   xmlns:cc="http://creativecommons.org/ns#"
   xmlns:rdf="http://www.w3.org/1999/02/22-rdf-syntax-ns#"
   xmlns:svg="http://www.w3.org/2000/svg"
   xmlns="http://www.w3.org/2000/svg"
   xmlns:sodipodi="http://sodipodi.sourceforge.net/DTD/sodipodi-0.dtd"
   xmlns:inkscape="http://www.inkscape.org/namespaces/inkscape"
   width="815.86383"
   height="815.86383"
   viewBox="0 0 815.86382 815.86383"
   id="svg2"
   version="1.1"
   inkscape:version="0.91 r13725"
   sodipodi:docname="Drawing-1.svg">
  <defs
     id="defs4">
    <pattern
       y="0"
       x="0"
       height="6"
       width="6"
       patternUnits="userSpaceOnUse"
       id="EMFhbasepattern" />
  </defs>
  <sodipodi:namedview
     id="base"
     pagecolor="#ffffff"
     bordercolor="#666666"
     borderopacity="1.0"
     inkscape:pageopacity="0.0"
     inkscape:pageshadow="2"
     inkscape:zoom="0.43159647"
     inkscape:cx="305.36694"
     inkscape:cy="277.9002"
     inkscape:document-units="px"
     inkscape:current-layer="layer1"
     showgrid="false"
     fit-margin-top="0.2"
     fit-margin-bottom="0.2"
     fit-margin-left="0.2"
     fit-margin-right="0.2"
     units="px"
     inkscape:window-width="1920"
     inkscape:window-height="1057"
     inkscape:window-x="-8"
     inkscape:window-y="-8"
     inkscape:window-maximized="1"
     showguides="false" />
  <metadata
     id="metadata7">
    <rdf:RDF>
      <cc:Work
         rdf:about="">
        <dc:format>image/svg+xml</dc:format>
        <dc:type
           rdf:resource="http://purl.org/dc/dcmitype/StillImage" />
        <dc:title></dc:title>
      </cc:Work>
    </rdf:RDF>
  </metadata>
  <g
     inkscape:label="Layer 1"
     inkscape:groupmode="layer"
     id="layer1"
     transform="translate(195.48102,2795.7647)">
    <rect
       ry="40"
       rx="40"
       y="1238.2273"
       x="1538.6782"
       height="600"
       width="600"
       id="rect4770"
       style="fill:#fee011;fill-opacity:1;stroke:none;stroke-width:8;stroke-linejoin:miter;stroke-miterlimit:4;stroke-dasharray:none;stroke-dashoffset:0;stroke-opacity:1"
       transform="matrix(0.70710678,-0.70710678,-0.70710678,-0.70710678,0,0)" />
    <rect
       ry="32"
       rx="32"
       y="1246.2273"
       x="1546.6782"
       height="584"
       width="584"
       id="rect4778"
       style="fill:#000000;fill-opacity:1;stroke:none;stroke-width:8;stroke-linejoin:miter;stroke-miterlimit:4;stroke-dasharray:none;stroke-dashoffset:0;stroke-opacity:1"
       transform="matrix(0.70710678,-0.70710678,-0.70710678,-0.70710678,0,0)" />
    <rect
       style="fill:#fee011;fill-opacity:1;stroke:none;stroke-width:8;stroke-linejoin:miter;stroke-miterlimit:4;stroke-dasharray:none;stroke-dashoffset:0;stroke-opacity:1"
       id="rect4789"
       width="552"
       height="552"
       x="1562.6785"
       y="1262.2273"
       rx="16"
       ry="16"
       transform="matrix(0.70710678,-0.70710678,-0.70710678,-0.70710678,0,0)" />
    <path
       d="m -111.281,-2430.8277 25.160427,0 c 13.20852,0 20.88165,10.8758 20.88165,24.0841 0,11.5164 -9.59481,23.8796 -20.88165,23.8796 l -13.22076,0 0,36.024 -11.939667,0 0,-83.9877 z m 11.939667,11.7213 0,23.8792 15.13008,0 c 5.12436,0 7.89147,-8.3134 7.89147,-12.3617 0,-4.0615 -3.62595,-11.5175 -8.53197,-11.5175 l -14.48958,0 z"
       style="fill:#000000;fill-opacity:1;fill-rule:evenodd;stroke:none"
       id="path142870"
       inkscape:connector-curvature="0" />
    <path
       d="m -45.197693,-2430.8277 40.5078399,0 0,12.58 -28.3632099,0 0,20.6767 16.84681,0 0,11.0809 -16.84681,0 0,27.7103 29.8492599,0 0,11.9398 -41.9938899,0 0,-83.9877 z"
       style="fill:#000000;fill-opacity:1;fill-rule:evenodd;stroke:none"
       id="path142874"
       inkscape:connector-curvature="0" />
    <path
       d="m 37.513097,-2430.8277 c 21.53544,0 26.22423,22.803 26.22423,39.649 0,17.2688 -2.78049,44.3387 -26.22423,44.3387 l -19.83114,0 0,-83.9877 19.83114,0 z m -0.42024,11.9396 -7.4682,0 0,60.1083 8.74929,0 c 13.00353,0 13.20849,-19.3956 13.20849,-32.1806 0,-10.0181 -0.63546,-27.9277 -14.48958,-27.9277"
       style="fill:#000000;fill-opacity:1;fill-rule:evenodd;stroke:none"
       id="path142878"
       inkscape:connector-curvature="0" />
    <path
       d="m 83.770397,-2430.8277 40.507753,0 0,12.58 -28.363113,0 0,20.6767 16.846703,0 0,11.0809 -16.846703,0 0,27.7103 29.849153,0 0,11.9398 -41.993793,0 0,-83.9877 z"
       style="fill:#000000;fill-opacity:1;fill-rule:evenodd;stroke:none"
       id="path142882"
       inkscape:connector-curvature="0" />
    <path
       d="m 140.47412,-2371.9932 11.93967,0 c 0,9.3774 1.92168,13.6439 11.50415,14.0661 8.73697,0 12.15798,-9.5948 9.81308,-17.6911 -3.40769,-11.082 -12.36193,-11.7225 -19.83117,-17.4741 -5.53427,-4.2664 -9.15922,-10.8767 -9.15922,-18.1278 0,-12.1445 10.4403,-19.6128 21.73947,-19.6128 11.93968,0 20.03611,8.7493 20.03611,20.4717 l -11.50411,0 c 0,-4.0482 -4.2655,-9.3776 -8.532,-9.3776 -4.47047,0 -9.79977,3.6249 -9.79977,8.5187 0,3.4077 2.76712,8.1097 5.53428,9.8132 11.29913,5.9696 24.3016,14.7067 24.3016,28.773 0,15.1302 -7.03262,25.801 -22.59827,25.801 -14.4885,0 -23.44382,-8.327 -23.44382,-25.1603"
       style="fill:#000000;fill-opacity:1;fill-rule:evenodd;stroke:none"
       id="path142886"
       inkscape:connector-curvature="0" />
    <path
       d="m 198.03261,-2430.8277 41.99387,0 0,11.0807 -15.34736,0 0,72.907 -11.93967,0 0,-72.907 -14.70684,0 0,-11.0807 z"
       style="fill:#000000;fill-opacity:1;fill-rule:evenodd;stroke:none"
       id="path142890"
       inkscape:connector-curvature="0" />
    <path
       d="m 292.03739,-2387.3428 12.58022,40.5078 -12.7975,0 -11.28686,-39.0095 -10.01805,0 0,39.0095 -11.93968,0 0,-83.9876 26.85147,0 c 10.65861,0 19.19062,12.7851 19.19062,23.2255 0,8.1098 -4.68877,17.4872 -12.58022,20.2543 m -6.6104,-10.0181 c 5.54761,0 6.6104,-6.188 6.6104,-10.6586 0,-5.1119 -0.21523,-10.2364 -6.6104,-10.2364 l -14.91179,0 0,20.895 14.91179,0 z"
       style="fill:#000000;fill-opacity:1;fill-rule:evenodd;stroke:none"
       id="path142894"
       inkscape:connector-curvature="0" />
    <path
       d="m 324.65578,-2430.8268 13.00348,0 0,83.9877 -13.00348,0 0,-83.9877 z"
       style="fill:#000000;fill-opacity:1;fill-rule:evenodd;stroke:none"
       id="path142896"
       inkscape:connector-curvature="0" />
    <path
       d="m 376.45554,-2381.5859 11.93969,0 -6.39209,-22.8157 -5.5476,22.8157 z m -20.25338,34.7426 20.25338,-83.9877 11.93969,0 20.24109,83.9877 -11.72138,0 -5.53428,-23.0204 -16.84673,0 -5.75155,23.0204 -12.58022,0 z"
       style="fill:#000000;fill-opacity:1;fill-rule:evenodd;stroke:none"
       id="path142900"
       inkscape:connector-curvature="0" />
    <path
       d="m 428.4685,-2430.8277 11.72241,0 22.59829,48.6041 0,-48.6041 11.72138,0 0,83.9877 -9.15922,0 -25.16045,-54.7792 0,54.7792 -11.72241,0 0,-83.9877 z"
       style="fill:#000000;fill-opacity:1;fill-rule:evenodd;stroke:none"
       id="path142904"
       inkscape:connector-curvature="0" />
    <path
       d="m 494.337,-2371.9932 11.93968,0 c 0,9.3774 1.92163,13.6439 11.50413,14.0661 8.75031,0 12.15798,-9.5948 9.81308,-17.6911 -3.40767,-11.082 -12.36192,-11.7225 -19.83116,-17.4741 -5.53426,-4.2664 -9.15921,-10.8767 -9.15921,-18.1278 0,-12.1445 10.4403,-19.6128 21.73945,-19.6128 11.93969,0 20.03612,8.7493 20.03612,20.4717 l -11.50412,0 c 0,-4.0482 -4.26549,-9.3776 -8.532,-9.3776 -4.47047,0 -9.79977,3.6249 -9.79977,8.5187 0,3.4077 2.76715,8.1097 5.53427,9.8132 11.29916,5.9696 24.30162,14.7067 24.30162,28.773 0,15.1302 -7.03262,25.801 -22.59828,25.801 -14.48854,0 -23.44381,-8.327 -23.44381,-25.1603"
       style="fill:#000000;fill-opacity:1;fill-rule:evenodd;stroke:none"
       id="path142908"
       inkscape:connector-curvature="0" />
    <path
       d="m 209.03521,-2499.0969 11.93984,0 c 0.0825,9.7344 3.13522,14.3992 11.26411,14.6531 6.77721,0 10.92608,-5.6795 10.92608,-12.6256 0,-1.8586 -0.33792,-3.8861 -0.92961,-5.8385 -3.55718,-11.5171 -12.11793,-13.0377 -19.89988,-18.7172 -5.67853,-3.9799 -9.15167,-11.1791 -9.15167,-18.8012 0,-11.6867 10.67242,-20.4066 21.68331,-20.4066 11.68607,0 20.4908,9.2268 20.4908,21.4294 l -11.68607,0 c 0,-4.1488 -4.65575,-9.7433 -8.80473,-9.7433 -4.49658,0 -9.74336,3.8109 -9.74336,8.8895 0,3.6421 1.18272,7.622 5.76345,9.8275 12.19295,6.1014 24.21771,16.5117 24.21771,33.3604 0,15.075 -10.33516,24.2365 -22.86603,24.2365 -12.61579,0 -23.20395,-8.6448 -23.20395,-26.264"
       style="fill:#000000;fill-opacity:1;fill-rule:evenodd;stroke:none"
       id="path144614"
       inkscape:connector-curvature="0" />
    <path
       d="m 267.12918,-2559.1396 42.34307,0 0,11.18 -14.82129,0 0,73.5069 -12.44672,0 0,-73.5069 -15.07506,0 0,-11.18 z"
       style="fill:#000000;fill-opacity:1;fill-rule:evenodd;stroke:none"
       id="path144618"
       inkscape:connector-curvature="0" />
    <path
       d="m 326.73791,-2559.1349 11.85943,0 0,84.6835 -11.85943,0 0,-84.6835 z"
       style="fill:#000000;fill-opacity:1;fill-rule:nonzero;stroke:none"
       id="path148626"
       inkscape:connector-curvature="0" />
    <path
       d="m 388.78825,-2496.9797 11.76824,0 c 0,15.1543 -8.89141,24.1468 -21.67528,24.1468 -22.95073,0 -24.6433,-27.5319 -24.6433,-45.6533 0,-17.4444 2.96714,-42.3467 24.47357,-42.3467 12.53659,0 21.76647,8.8914 21.76647,22.1835 l -11.6897,0 c 0,-4.5703 -4.49086,-10.0767 -10.07677,-10.0767 -11.6897,0 -12.70522,21.5968 -12.70522,30.2399 0,9.4783 0,33.8733 13.0438,33.8733 5.41607,0 9.73819,-4.9982 9.73819,-12.3668"
       style="fill:#000000;fill-opacity:1;fill-rule:nonzero;stroke:none"
       id="path148630"
       inkscape:connector-curvature="0" />
    <path
       inkscape:connector-curvature="0"
       id="path4229"
       style="fill:#000000;fill-opacity:1;fill-rule:evenodd;stroke:none"
       d="m 24.34696,-2499.104 11.9438,0 c 0.0957,9.7396 3.1262,14.3991 11.26059,14.6511 6.76786,0 10.92509,-5.6782 10.92509,-12.6147 0,-1.8687 -0.34496,-3.9052 -0.9295,-5.8458 -3.55839,-11.5241 -12.11155,-13.045 -19.89812,-18.7118 -5.6782,-3.9886 -9.15222,-11.1761 -9.15222,-18.8074 0,-11.6794 10.67407,-20.4003 21.68254,-20.4003 11.68035,0 20.49707,9.224 20.49707,21.419 l -11.69179,0 c 0,-4.1448 -4.66048,-9.7396 -8.80528,-9.7396 -4.49174,0 -9.73874,3.8094 -9.73874,8.8886 0,3.6417 1.18547,7.6313 5.76158,9.823 12.19493,6.098 24.21067,16.5199 24.21067,33.3743 0,15.07 -10.32614,24.2347 -22.85646,24.2347 -12.61469,0 -23.20439,-8.6615 -23.20439,-26.2711" />
    <path
       inkscape:connector-curvature="0"
       id="path4231"
       style="fill:#000000;fill-opacity:1;fill-rule:evenodd;stroke:none"
       d="m 90.14214,-2559.1443 24.893,0 c 13.21364,0 21.43141,9.4876 21.43141,24.2221 0,15.4054 -10.15839,24.1264 -21.43141,24.1264 l -13.11684,0 0,36.3337 -11.77616,0 0,-84.6822 z m 11.77616,11.8595 0,23.9586 14.81788,0 c 5.07925,0 7.95432,-5.5823 7.95432,-12.3626 0,-5.247 -3.5574,-11.596 -8.38552,-11.596 l -14.38668,0 z" />
    <path
       d="m 163.21404,-2509.678 11.76351,0 -5.84331,-22.7764 -5.9202,22.7764 z m -20.06708,35.2336 20.06708,-84.6909 11.76351,0 21.08502,84.6909 -11.93566,0 -6.094,-23.5469 -17.10698,0 -5.59262,23.5469 -12.18635,0 z"
       style="fill:#000000;fill-opacity:1;fill-rule:nonzero;stroke:none"
       id="path147200"
       inkscape:connector-curvature="0" />
  </g>
</svg>
