<?xml version="1.0" encoding="UTF-8" standalone="no"?>
<!-- Created with Inkscape (http://www.inkscape.org/) -->

<svg
   xmlns:dc="http://purl.org/dc/elements/1.1/"
   xmlns:cc="http://creativecommons.org/ns#"
   xmlns:rdf="http://www.w3.org/1999/02/22-rdf-syntax-ns#"
   xmlns:svg="http://www.w3.org/2000/svg"
   xmlns="http://www.w3.org/2000/svg"
   xmlns:sodipodi="http://sodipodi.sourceforge.net/DTD/sodipodi-0.dtd"
   xmlns:inkscape="http://www.inkscape.org/namespaces/inkscape"
   width="802mm"
   height="1452mm"
   viewBox="0 0 802 1452"
   version="1.1"
   id="svg8"
   sodipodi:docname="AU-QLD_road_sign_R4-Q03.svg"
   inkscape:version="0.92.4 (5da689c313, 2019-01-14)">
  <defs
     id="defs2" />
  <sodipodi:namedview
     id="base"
     pagecolor="#ffffff"
     bordercolor="#666666"
     borderopacity="1.0"
     inkscape:pageopacity="0.0"
     inkscape:pageshadow="2"
     inkscape:zoom="0.0875"
     inkscape:cx="2869.0764"
     inkscape:cy="1351.3894"
     inkscape:document-units="mm"
     inkscape:current-layer="layer1"
     showgrid="false"
     inkscape:snap-global="false"
     inkscape:window-width="1920"
     inkscape:window-height="1057"
     inkscape:window-x="-8"
     inkscape:window-y="-8"
     inkscape:window-maximized="1" />
  <metadata
     id="metadata5">
    <rdf:RDF>
      <cc:Work
         rdf:about="">
        <dc:format>image/svg+xml</dc:format>
        <dc:type
           rdf:resource="http://purl.org/dc/dcmitype/StillImage" />
        <dc:title />
      </cc:Work>
    </rdf:RDF>
  </metadata>
  <g
     inkscape:label="Layer 1"
     inkscape:groupmode="layer"
     id="layer1"
     transform="translate(0,1155)">
    <rect
       style="opacity:1;fill:#f54b05;fill-opacity:1;fill-rule:nonzero;stroke:none;stroke-width:69.7713623;stroke-linecap:square;stroke-linejoin:round;stroke-miterlimit:4;stroke-dasharray:none;stroke-dashoffset:0;stroke-opacity:1"
       id="rect10"
       width="800"
       height="1450"
       x="1"
       y="-1154"
       rx="100"
       ry="100" />
    <rect
       ry="50"
       rx="50"
       y="-1054"
       x="101"
       height="1250"
       width="600"
       id="rect1372"
       style="opacity:1;fill:#ffffff;fill-opacity:1;fill-rule:nonzero;stroke:none;stroke-width:56.10206223;stroke-linecap:square;stroke-linejoin:round;stroke-miterlimit:4;stroke-dasharray:none;stroke-dashoffset:0;stroke-opacity:1" />
    <rect
       style="opacity:1;fill:#000000;fill-opacity:1;fill-rule:nonzero;stroke:none;stroke-width:26.76968956;stroke-linecap:square;stroke-linejoin:round;stroke-miterlimit:4;stroke-dasharray:none;stroke-dashoffset:0;stroke-opacity:1"
       id="rect2272"
       width="588"
       height="392"
       x="107"
       y="-1048"
       rx="44"
       ry="44" />
    <rect
       ry="32"
       rx="32"
       y="-1036"
       x="119"
       height="368"
       width="564"
       id="rect2274"
       style="opacity:1;fill:#cdff00;fill-opacity:1;fill-rule:nonzero;stroke:none;stroke-width:25.40242004;stroke-linecap:square;stroke-linejoin:round;stroke-miterlimit:4;stroke-dasharray:none;stroke-dashoffset:0;stroke-opacity:1" />
    <g
       aria-label="SCHOOL"
       style="font-style:normal;font-variant:normal;font-weight:normal;font-stretch:normal;font-size:144.09222412px;line-height:0;font-family:'Roadgeek 2005 Series D';-inkscape-font-specification:'Roadgeek 2005 Series D';letter-spacing:1.61924994px;word-spacing:0px;fill:#000000;fill-opacity:1;stroke:none;stroke-width:3.60230541"
       id="text2316"
       transform="translate(106.99999,-953.00007)">
      <path
         d="m 109.70605,41.4611 q 0,6.62824 -2.44957,12.24783 -2.44957,5.6196 -7.06052,9.79828 -4.03458,3.6023 -9.51008,5.61959 Q 85.35446,71 79.1585,71 66.62247,71 57.68876,64.37176 48.89913,57.59942 44,46.50432 l 14.55331,-5.33141 q 3.02594,6.91643 8.35735,10.66283 5.33141,3.6023 12.24784,3.6023 6.77233,0 10.80691,-4.03458 4.17868,-4.17868 4.17868,-10.23055 0,-4.75504 -2.59366,-7.78098 Q 89.10086,30.36599 85.06628,28.3487 81.0317,26.18732 76.13256,24.60231 71.37752,23.01729 66.62247,21.14409 64.46109,20.27954 61.29107,18.69452 58.12104,17.10951 55.0951,14.37176 52.21326,11.48991 50.05187,7.31124 48.03458,3.13256 48.03458,-2.91931 q 0,-7.06052 2.30548,-11.95965 2.30547,-5.04323 6.19596,-8.06917 4.03458,-3.17003 9.51009,-4.61095 Q 71.6657,-29 78.14985,-29 q 10.23055,0 17.00288,5.33141 6.91643,5.33141 10.51874,14.40922 L 92.1268,-5.22479 q -1.15274,-2.30547 -3.02594,-4.17867 -1.58501,-1.58501 -4.46686,-2.88184 -2.73775,-1.29683 -6.77233,-1.44093 -2.59366,-0.14409 -5.47551,0.43228 -2.73775,0.43228 -4.89913,1.72911 -2.16139,1.29683 -3.45822,3.6023 -1.29683,2.16139 -1.00864,5.47551 0.28818,4.46686 3.89049,6.91642 3.6023,2.30548 8.78962,4.03459 5.18732,1.7291 11.09511,3.6023 6.05187,1.72911 11.0951,5.18732 5.04323,3.31412 8.35735,9.07781 3.45821,5.6196 3.45821,15.12969 z"
         style="font-style:normal;font-variant:normal;font-weight:normal;font-stretch:normal;line-height:0;font-family:'Roadgeek 2005 Series D';-inkscape-font-specification:'Roadgeek 2005 Series D';letter-spacing:1.83356249px;fill:#000000;stroke:none;stroke-width:3.60230541"
         id="path2318"
         inkscape:connector-curvature="0" />
      <path
         d="M 191.43851,49.67435 Q 182.79297,71 162.33188,71 q -10.80692,0 -17.86744,-4.17867 -7.06052,-4.17868 -11.67147,-13.1124 -3.31412,-6.48415 -5.18732,-15.12968 -1.8732,-8.64553 -1.8732,-17.72334 0,-11.52738 2.88184,-22.04611 2.88185,-10.51874 7.92508,-17.00289 4.32276,-5.33141 10.37464,-8.06916 Q 153.10998,-29 161.32323,-29 q 10.95101,0 18.01153,4.75504 7.20461,4.75504 12.10375,14.98559 l -14.26513,6.05188 q -2.01729,-3.02594 -3.7464,-5.04323 -1.58501,-2.01729 -3.45821,-3.17003 -1.72911,-1.15274 -3.89049,-1.58502 -2.01729,-0.43227 -4.75505,-0.43227 -5.90778,0 -9.94236,2.73775 -3.89049,2.73775 -6.34006,9.2219 -1.8732,4.32277 -2.88185,10.23055 -0.86455,5.90778 -0.86455,12.10375 0,7.92507 1.58501,15.27377 1.58502,7.20461 4.46687,11.81557 2.59366,3.74639 6.05187,5.61959 3.45821,1.8732 8.50144,1.8732 4.89914,0 8.50144,-2.59366 3.60231,-2.73775 6.48415,-8.64553 z"
         style="font-style:normal;font-variant:normal;font-weight:normal;font-stretch:normal;line-height:0;font-family:'Roadgeek 2005 Series D';-inkscape-font-specification:'Roadgeek 2005 Series D';letter-spacing:1.83356249px;fill:#000000;stroke:none;stroke-width:3.60230541"
         id="path2320"
         inkscape:connector-curvature="0" />
      <path
         d="M 264.72609,69.27089 V 27.19597 H 229.56755 V 69.27089 H 214.29377 V -27.2709 h 15.27378 V 11.634 h 35.15854 v -38.9049 h 15.2737 v 96.54179 z"
         style="font-style:normal;font-variant:normal;font-weight:normal;font-stretch:normal;line-height:0;font-family:'Roadgeek 2005 Series D';-inkscape-font-specification:'Roadgeek 2005 Series D';letter-spacing:1.83356249px;fill:#000000;stroke:none;stroke-width:3.60230541"
         id="path2322"
         inkscape:connector-curvature="0" />
      <path
         d="m 371.20429,21.14409 q 0,11.52738 -2.7377,22.04611 -2.7378,10.51873 -7.781,17.00288 Q 352.61649,71 337.34269,71 q -10.2306,0 -16.8588,-4.17867 -6.6283,-4.17868 -10.951,-13.1124 -3.026,-6.19596 -4.8992,-14.98559 -1.8732,-8.93371 -1.8732,-17.57925 0,-11.95965 2.7378,-22.1902 2.8818,-10.23055 7.781,-17.14698 4.3227,-5.4755 10.2305,-8.06916 Q 329.56169,-29 337.91899,-29 q 9.2219,0 15.7061,4.17867 6.4841,4.17868 11.0951,13.11239 3.0259,6.48415 4.755,15.12969 1.7291,8.64553 1.7291,17.72334 z m -15.2737,0 q 0,-8.21326 -1.4409,-15.12968 -1.441,-7.06052 -4.3228,-11.95966 -2.3055,-3.74639 -5.3314,-5.4755 -2.8819,-1.72911 -7.2046,-2.01729 -5.6196,-0.28819 -9.366,2.59366 -3.7464,2.88184 -6.196,9.36599 -1.8732,4.32277 -2.8818,10.51873 -0.8646,6.05188 -0.8646,12.10375 0,7.78098 1.4409,14.98559 1.4409,7.20461 4.3228,11.81557 2.3055,3.74639 5.4755,5.61959 3.17,1.8732 7.781,1.8732 5.3314,0 8.7896,-2.88184 3.6023,-2.88185 6.0519,-9.366 0.7204,-1.8732 1.4409,-4.46686 0.7205,-2.73775 1.1527,-5.61959 0.5764,-3.02594 0.8646,-6.05188 0.2882,-3.02593 0.2882,-5.90778 z"
         style="font-style:normal;font-variant:normal;font-weight:normal;font-stretch:normal;line-height:0;font-family:'Roadgeek 2005 Series D';-inkscape-font-specification:'Roadgeek 2005 Series D';letter-spacing:1.83356249px;fill:#000000;stroke:none;stroke-width:3.60230541"
         id="path2324"
         inkscape:connector-curvature="0" />
      <path
         d="m 460.84409,21.14409 q 0,11.52738 -2.7377,22.04611 -2.7378,10.51873 -7.781,17.00288 Q 442.25619,71 426.98239,71 q -10.2305,0 -16.8588,-4.17867 -6.6282,-4.17868 -10.951,-13.1124 -3.0259,-6.19596 -4.8991,-14.98559 -1.8732,-8.93371 -1.8732,-17.57925 0,-11.95965 2.7378,-22.1902 2.8818,-10.23055 7.7809,-17.14698 4.3228,-5.4755 10.2306,-8.06916 Q 419.20149,-29 427.55879,-29 q 9.2219,0 15.7061,4.17867 6.4841,4.17868 11.0951,13.11239 3.0259,6.48415 4.755,15.12969 1.7291,8.64553 1.7291,17.72334 z m -15.2738,0 q 0,-8.21326 -1.4409,-15.12968 -1.4409,-7.06052 -4.3228,-11.95966 -2.3054,-3.74639 -5.3314,-5.4755 -2.8818,-1.72911 -7.2046,-2.01729 -5.6196,-0.28819 -9.366,2.59366 -3.7464,2.88184 -6.1959,9.36599 -1.8732,4.32277 -2.8819,10.51873 -0.8645,6.05188 -0.8645,12.10375 0,7.78098 1.4409,14.98559 1.4409,7.20461 4.3227,11.81557 2.3055,3.74639 5.4756,5.61959 3.17,1.8732 7.7809,1.8732 5.3314,0 8.7897,-2.88184 3.6023,-2.88185 6.0518,-9.366 0.7205,-1.8732 1.441,-4.46686 0.7204,-2.73775 1.1527,-5.61959 0.5764,-3.02594 0.8645,-6.05188 0.2882,-3.02593 0.2882,-5.90778 z"
         style="font-style:normal;font-variant:normal;font-weight:normal;font-stretch:normal;line-height:0;font-family:'Roadgeek 2005 Series D';-inkscape-font-specification:'Roadgeek 2005 Series D';letter-spacing:1.83356249px;fill:#000000;stroke:none;stroke-width:3.60230541"
         id="path2326"
         inkscape:connector-curvature="0" />
      <path
         d="M 484.05739,69.27089 V -27.2709 h 15.2737 v 82.27666 h 44.6686 v 14.26513 z"
         style="font-style:normal;font-variant:normal;font-weight:normal;font-stretch:normal;line-height:0;font-family:'Roadgeek 2005 Series D';-inkscape-font-specification:'Roadgeek 2005 Series D';letter-spacing:1.83356249px;fill:#000000;stroke:none;stroke-width:3.60230541"
         id="path2328"
         inkscape:connector-curvature="0" />
      <g
         aria-label="ZONE"
         style="font-style:normal;font-variant:normal;font-weight:normal;font-stretch:normal;font-size:144.09222412px;line-height:0;font-family:'Roadgeek 2005 Series D';-inkscape-font-specification:'Roadgeek 2005 Series D';letter-spacing:6.56166649px;word-spacing:0px;fill:#000000;fill-opacity:1;stroke:none;stroke-width:12.97660542"
         id="text2347">
        <path
           d="m 125,229.27089 v -12.8242 l 44.09222,-68.44381 H 128.7464 V 132.7291 h 61.95965 v 9.07781 l -44.66859,71.90202 h 44.66859 v 15.56196 z"
           style="font-style:normal;font-variant:normal;font-weight:normal;font-stretch:normal;line-height:0;font-family:'Roadgeek 2005 Series D';-inkscape-font-specification:'Roadgeek 2005 Series D';letter-spacing:6.56166649px;fill:#000000;stroke:none;stroke-width:12.97660542"
           id="path2361"
           inkscape:connector-curvature="0" />
        <path
           d="m 279.90436,181.14409 q 0,11.52738 -2.73775,22.04611 -2.73775,10.51873 -7.78098,17.00288 Q 261.31647,231 246.04269,231 q -10.23055,0 -16.85879,-4.17867 -6.62824,-4.17868 -10.95101,-13.1124 -3.02594,-6.19596 -4.89914,-14.98559 -1.87319,-8.93371 -1.87319,-17.57925 0,-11.95965 2.73775,-22.1902 2.88184,-10.23055 7.78098,-17.14698 4.32277,-5.4755 10.23055,-8.06916 Q 238.26171,131 246.61906,131 q 9.2219,0 15.70605,4.17867 6.48415,4.17868 11.0951,13.11239 3.02594,6.48415 4.75505,15.12969 1.7291,8.64553 1.7291,17.72334 z m -15.27377,0 q 0,-8.21326 -1.44092,-15.12968 -1.44093,-7.06052 -4.32277,-11.95966 -2.30548,-3.74639 -5.33141,-5.4755 -2.88185,-1.72911 -7.20461,-2.01729 -5.6196,-0.28819 -9.366,2.59366 -3.7464,2.88184 -6.19596,9.36599 -1.8732,4.32277 -2.88185,10.51873 -0.86455,6.05188 -0.86455,12.10375 0,7.78098 1.44092,14.98559 1.44092,7.20461 4.32277,11.81557 2.30547,3.74639 5.4755,5.61959 3.17003,1.8732 7.78098,1.8732 5.33141,0 8.78963,-2.88184 3.6023,-2.88185 6.05187,-9.366 0.72046,-1.8732 1.44092,-4.46686 0.72046,-2.73775 1.15274,-5.61959 0.57637,-3.02594 0.86455,-6.05188 0.28819,-3.02593 0.28819,-5.90778 z"
           style="font-style:normal;font-variant:normal;font-weight:normal;font-stretch:normal;line-height:0;font-family:'Roadgeek 2005 Series D';-inkscape-font-specification:'Roadgeek 2005 Series D';letter-spacing:6.56166649px;fill:#000000;stroke:none;stroke-width:12.97660542"
           id="path2363"
           inkscape:connector-curvature="0" />
        <path
           d="m 360.0071,229.27089 -36.8876,-65.41787 v 65.41787 H 307.8457 V 132.7291 h 15.2738 l 35.1585,61.67148 V 132.7291 h 15.2738 v 96.54179 z"
           style="font-style:normal;font-variant:normal;font-weight:normal;font-stretch:normal;line-height:0;font-family:'Roadgeek 2005 Series D';-inkscape-font-specification:'Roadgeek 2005 Series D';letter-spacing:6.56166649px;fill:#000000;stroke:none;stroke-width:12.97660542"
           id="path2365"
           inkscape:connector-curvature="0" />
        <path
           d="M 403.0579,229.27089 V 132.7291 h 56.9164 v 15.27378 H 418.3316 V 171.634 h 28.098 v 15.56197 h -28.098 v 26.51296 h 44.6686 v 15.56196 z"
           style="font-style:normal;font-variant:normal;font-weight:normal;font-stretch:normal;line-height:0;font-family:'Roadgeek 2005 Series D';-inkscape-font-specification:'Roadgeek 2005 Series D';letter-spacing:6.56166649px;fill:#000000;stroke:none;stroke-width:12.97660542"
           id="path2367"
           inkscape:connector-curvature="0" />
      </g>
    </g>
    <g
       aria-label="AHEAD"
       style="font-style:normal;font-variant:normal;font-weight:normal;font-stretch:normal;font-size:156.71641541px;line-height:0;font-family:'Roadgeek 2005 Series D';-inkscape-font-specification:'Roadgeek 2005 Series D';letter-spacing:10.24995613px;word-spacing:0px;fill:#000000;fill-opacity:1;stroke:none;stroke-width:3.91791034"
       id="text2372"
       transform="translate(0.9999873,14.72502)">
      <path
         d="m 225.14925,136.27493 -10.34328,-29.46269 h -32.75373 l -10.34329,29.46269 H 154 L 190.20149,31.274928 h 16.45522 l 36.2015,105.000002 z m -26.48507,-75.850752 -10.81344,29.46269 h 21 z"
         style="font-style:normal;font-variant:normal;font-weight:normal;font-stretch:normal;line-height:0;font-family:'Roadgeek 2005 Series D';-inkscape-font-specification:'Roadgeek 2005 Series D';letter-spacing:10.23143768px;fill:#000000;stroke:none;stroke-width:3.91791034"
         id="path2387"
         inkscape:connector-curvature="0" />
      <path
         d="M 323.82752,136.27493 V 90.513738 h -38.2388 V 136.27493 H 268.97678 V 31.274928 h 16.61194 v 42.31343 h 38.2388 v -42.31343 h 16.61194 V 136.27493 Z"
         style="font-style:normal;font-variant:normal;font-weight:normal;font-stretch:normal;line-height:0;font-family:'Roadgeek 2005 Series D';-inkscape-font-specification:'Roadgeek 2005 Series D';letter-spacing:10.23143768px;fill:#000000;stroke:none;stroke-width:3.91791034"
         id="path2389"
         inkscape:connector-curvature="0" />
      <path
         d="M 375.62554,136.27493 V 31.274928 h 61.90299 v 16.61194 h -45.29105 v 25.70149 h 30.5597 v 16.92538 h -30.5597 v 28.835822 h 48.58209 v 16.92537 z"
         style="font-style:normal;font-variant:normal;font-weight:normal;font-stretch:normal;line-height:0;font-family:'Roadgeek 2005 Series D';-inkscape-font-specification:'Roadgeek 2005 Series D';letter-spacing:10.23143768px;fill:#000000;stroke:none;stroke-width:3.91791034"
         id="path2391"
         inkscape:connector-curvature="0" />
      <path
         d="m 530.70946,136.27493 -10.34328,-29.46269 h -32.75373 l -10.34328,29.46269 H 459.56021 L 495.7617,31.274928 h 16.45523 l 36.20149,105.000002 z m -26.48507,-75.850752 -10.81343,29.46269 h 21 z"
         style="font-style:normal;font-variant:normal;font-weight:normal;font-stretch:normal;line-height:0;font-family:'Roadgeek 2005 Series D';-inkscape-font-specification:'Roadgeek 2005 Series D';letter-spacing:10.23143768px;fill:#000000;stroke:none;stroke-width:3.91791034"
         id="path2393"
         inkscape:connector-curvature="0" />
      <path
         d="m 645.99966,83.618208 q 0,15.82836 -4.8582,27.895532 -4.7015,11.91044 -13.63433,18.80597 -2.97761,2.82089 -7.05224,4.23134 -3.91791,1.41045 -7.99254,1.72388 h -5.95522 -31.97015 V 31.274928 h 33.85074 q 3.91792,0 6.73881,0.31343 2.97761,0.15672 5.32836,0.78359 2.35074,0.62686 4.23134,1.72388 1.8806,1.09701 4.07463,2.66418 8.30597,7.20895 12.69403,19.27612 4.54477,11.91044 4.54477,27.58208 z m -16.92537,0 q 0,-10.65671 -2.35074,-18.96268 -2.19403,-8.30597 -6.11194,-12.3806 -2.03732,-1.8806 -4.7015,-3.13433 -2.66418,-1.25373 -5.95522,-1.25373 h -18.80597 v 71.462692 h 16.61194 q 4.07463,0 6.7388,-0.9403 2.8209,-0.9403 5.01493,-3.13433 4.70149,-4.70149 7.05224,-12.85075 2.50746,-8.305972 2.50746,-18.805972 z"
         style="font-style:normal;font-variant:normal;font-weight:normal;font-stretch:normal;line-height:0;font-family:'Roadgeek 2005 Series D';-inkscape-font-specification:'Roadgeek 2005 Series D';letter-spacing:10.23143768px;fill:#000000;stroke:none;stroke-width:3.91791034"
         id="path2395"
         inkscape:connector-curvature="0" />
    </g>
    <circle
       style="opacity:1;fill:#000000;fill-opacity:1;fill-rule:nonzero;stroke:none;stroke-width:14.94897175;stroke-linecap:square;stroke-linejoin:round;stroke-miterlimit:4;stroke-dasharray:none;stroke-dashoffset:0;stroke-opacity:1"
       id="path2398"
       cx="401"
       cy="-312.5"
       r="292.5" />
    <circle
       r="246"
       cy="-312.5"
       cx="401"
       id="circle30"
       style="opacity:1;fill:#ffffff;fill-opacity:1;fill-rule:nonzero;stroke:none;stroke-width:12.57246876;stroke-linecap:square;stroke-linejoin:round;stroke-miterlimit:4;stroke-dasharray:none;stroke-dashoffset:0;stroke-opacity:1" />
    <g
       aria-label="40"
       style="font-style:normal;font-variant:normal;font-weight:normal;font-stretch:normal;font-size:374.63977051px;line-height:0;font-family:'Roadgeek 2005 Series D';-inkscape-font-specification:'Roadgeek 2005 Series D';letter-spacing:0px;word-spacing:0px;fill:#000000;fill-opacity:1;stroke:none;stroke-width:9.36599445"
       id="text34"
       transform="translate(-1835.4005,791.17273)">
      <path
         d="m 2190.1182,-1040.7332 v 62.56485 h -39.3372 v -62.56485 h -124.3804 v -23.6023 l 124.3804,-164.8415 h 39.3372 v 152.4783 h 23.9769 v 35.9655 z m -39.3372,-130.3747 -71.5562,94.4092 h 71.5562 z"
         style="font-style:normal;font-variant:normal;font-weight:normal;font-stretch:normal;line-height:0;font-family:'Roadgeek 2005 Series D';-inkscape-font-specification:'Roadgeek 2005 Series D';fill:#000000;stroke:none;stroke-width:9.36599445"
         id="path36"
         inkscape:connector-curvature="0" />
      <path
         d="m 2446.4009,-1103.2981 q 0,29.9712 -7.1182,57.3199 -7.1181,27.3487 -20.2305,44.2075 -20.9798,28.09803 -60.6917,28.09803 -26.5994,0 -43.8328,-10.86455 -17.2335,-10.86454 -28.4727,-34.09228 -7.8674,-16.1095 -12.7377,-38.9625 -4.8703,-23.2277 -4.8703,-45.7061 0,-31.0951 7.1181,-57.6945 7.4928,-26.5994 20.2306,-44.5821 11.2392,-14.2363 26.5994,-20.9799 15.7349,-7.1181 37.464,-7.1181 23.9769,0 40.8357,10.8645 16.8588,10.8646 28.8473,34.0923 7.8674,16.8588 12.3631,39.3371 4.4957,22.4784 4.4957,46.0807 z m -39.7118,0 q 0,-21.3544 -3.7464,-39.3372 -3.7464,-18.3573 -11.2392,-31.095 -5.9943,-9.7407 -13.8617,-14.2364 -7.4928,-4.4956 -18.732,-5.2449 -14.611,-0.7493 -24.3516,6.7435 -9.7406,7.4928 -16.1095,24.3516 -4.8703,11.2392 -7.4928,27.3487 -2.2478,15.7349 -2.2478,31.4697 0,20.2306 3.7464,38.9626 3.7464,18.7319 11.2392,30.7204 5.9942,9.7407 14.2363,14.611 8.242,4.8703 20.2305,4.8703 13.8617,0 22.8531,-7.4928 9.366,-7.4928 15.7348,-24.3516 1.8732,-4.8703 3.7464,-11.6138 1.8732,-7.1182 2.9972,-14.611 1.4985,-7.8674 2.2478,-15.7348 0.7493,-7.8675 0.7493,-15.3603 z"
         style="font-style:normal;font-variant:normal;font-weight:normal;font-stretch:normal;line-height:0;font-family:'Roadgeek 2005 Series D';-inkscape-font-specification:'Roadgeek 2005 Series D';fill:#000000;stroke:none;stroke-width:9.36599445"
         id="path38"
         inkscape:connector-curvature="0" />
    </g>
  </g>
</svg>
