<?xml version="1.0" encoding="UTF-8" standalone="no"?>
<!-- Generator: Adobe Illustrator 12.0.1, SVG Export Plug-In  -->

<svg
   xmlns:dc="http://purl.org/dc/elements/1.1/"
   xmlns:cc="http://creativecommons.org/ns#"
   xmlns:rdf="http://www.w3.org/1999/02/22-rdf-syntax-ns#"
   xmlns:svg="http://www.w3.org/2000/svg"
   xmlns="http://www.w3.org/2000/svg"
   xmlns:sodipodi="http://sodipodi.sourceforge.net/DTD/sodipodi-0.dtd"
   xmlns:inkscape="http://www.inkscape.org/namespaces/inkscape"
   version="1.1"
   width="548.31256"
   height="439.12503"
   viewBox="-1 0 548.31248 439.125"
   enable-background="new -1 0 292 291"
   xml:space="preserve"
   id="svg2"
   inkscape:version="0.48.2 r9819"
   sodipodi:docname="AJAX1.svg"><metadata
   id="metadata24"><rdf:RDF><cc:Work
       rdf:about=""><dc:format>image/svg+xml</dc:format><dc:type
         rdf:resource="http://purl.org/dc/dcmitype/StillImage" /><dc:title /></cc:Work></rdf:RDF></metadata><sodipodi:namedview
   pagecolor="#ffffff"
   bordercolor="#666666"
   borderopacity="1"
   objecttolerance="10"
   gridtolerance="10"
   guidetolerance="10"
   inkscape:pageopacity="0"
   inkscape:pageshadow="2"
   inkscape:window-width="1280"
   inkscape:window-height="1004"
   id="namedview22"
   showgrid="false"
   fit-margin-top="0"
   fit-margin-left="0"
   fit-margin-right="0"
   fit-margin-bottom="0"
   inkscape:zoom="1.6219931"
   inkscape:cx="303.81846"
   inkscape:cy="134.55331"
   inkscape:window-x="-8"
   inkscape:window-y="-8"
   inkscape:window-maximized="1"
   inkscape:current-layer="svg2" />
<defs
   id="defs4">
</defs>





<polygon
   points="168.102,239.552 121.914,239.552 89.25,206.885 89.25,160.661 121.914,127.982 168.102,127.982 200.801,160.661 200.801,206.885 "
   id="polygon16"
   style="fill:none;stroke:none"
   transform="matrix(1.1719259,0,0,1.1719259,599.67888,814.44468)" />


<path
   d="m 54.840269,1.2395518 436.643041,0 c 30.02268,0 54.58135,24.5625862 54.58135,54.5813652 l 0,327.484203 c 0,30.01878 -24.56259,54.57744 -54.58135,54.57744 l -436.643041,0 c -30.018767,0 -54.58135655,-24.55866 -54.58135655,-54.57744 l 0,-327.484203 c 0,-30.018779 24.56258955,-54.5813652 54.58135655,-54.5813652 z"
   style="fill:#ffffff;fill-opacity:1;fill-rule:evenodd;stroke:#000000;stroke-width:2.50000358;stroke-linecap:butt;stroke-linejoin:miter;stroke-miterlimit:22.9260006;stroke-opacity:1;stroke-dasharray:none"
   id="path3039"
   inkscape:connector-curvature="0" /><path
   d="m 54.840269,8.2267455 c -26.163897,0 -47.5941609,21.4302655 -47.5941609,47.5941715 l 0,327.484203 c 0,26.16391 21.4302639,47.59418 47.5941609,47.59418 l 436.643041,0 c 26.16389,0 47.59415,-21.43027 47.59415,-47.59418 l 0,-327.484203 c 0,-26.163906 -21.43026,-47.5941715 -47.59415,-47.5941715 l -436.643041,0"
   style="fill:#000000;fill-opacity:1;fill-rule:evenodd;stroke:none"
   id="path3043"
   inkscape:connector-curvature="0" /><path
   d="m 54.840269,15.21394 c -22.305122,0 -40.606965,18.301843 -40.606965,40.606977 l 0,327.484203 c 0,22.30514 18.301843,40.60698 40.606965,40.60698 l 436.643041,0 c 22.30903,0 40.61086,-18.29794 40.61086,-40.60698 l 0,-327.484203 c 0,-22.305134 -18.30183,-40.606977 -40.61086,-40.606977 l -436.643041,0"
   style="fill:#ffffff;fill-opacity:1;fill-rule:evenodd;stroke:none"
   id="path3047"
   inkscape:connector-curvature="0" /><path
   d="m 55.902604,40.616244 434.264506,0 0,43.661181 -434.264506,0 0,-43.661181 z"
   style="fill:#000000;fill-opacity:1;fill-rule:evenodd;stroke:none"
   id="path3049"
   inkscape:connector-curvature="0" /><path
   d="m 70.747949,49.634373 7.334798,0 c 1.296672,0.0033 2.480082,0.222468 3.554133,0.652251 1.070147,0.429619 2.02703,1.046702 2.855026,1.85127 0.835808,0.796752 1.538823,1.757536 2.109047,2.878455 0.574129,1.120918 1.011562,2.36682 1.30839,3.753322 0.296829,1.382602 0.445245,2.866737 0.445245,4.46024 0,0.956884 -0.09765,1.933302 -0.292924,2.917521 -0.195282,0.988134 -0.4843,1.94892 -0.874865,2.890171 -0.386658,0.941268 -0.867052,1.816136 -1.445087,2.632404 -0.570224,0.824101 -1.241994,1.542735 -2.003595,2.163736 -0.761601,0.624901 -1.613031,1.109201 -2.55429,1.460703 -0.945166,0.355417 -1.976255,0.535067 -3.10108,0.538984 l -7.334798,0 0,-26.199057 z m 4.167322,21.953617 3.011249,0 c 0.81628,-0.0033 1.542729,-0.148501 2.175443,-0.429617 0.632715,-0.281201 1.18341,-0.660051 1.652088,-1.136536 0.468677,-0.476501 0.867053,-1.007668 1.195127,-1.597418 0.320261,-0.589751 0.58194,-1.202935 0.781127,-1.827836 0.199189,-0.624902 0.343697,-1.230286 0.429621,-1.81222 0.08983,-0.578035 0.132783,-1.093585 0.132783,-1.554452 0.0038,-0.617085 -0.03514,-1.281052 -0.113267,-1.984054 -0.07812,-0.703017 -0.210903,-1.409951 -0.398375,-2.124669 -0.183566,-0.706934 -0.429621,-1.386502 -0.745978,-2.030937 -0.31245,-0.644434 -0.706921,-1.222468 -1.175598,-1.722386 -0.468678,-0.507733 -1.03109,-0.906118 -1.679426,-1.195135 -0.648338,-0.292767 -1.398221,-0.445233 -2.253556,-0.45305 l -3.01125,0 0,17.86831"
   style="fill:#ffffff;fill-opacity:1;fill-rule:nonzero;stroke:none"
   id="path3053"
   inkscape:connector-curvature="0" /><path
   d="m 95.322252,67.764367 0,-18.129994 4.13998,0 0,18.129994 c 0.0036,0.578035 0.1367,1.124819 0.386659,1.655986 0.249959,0.523368 0.593659,0.995952 1.034999,1.413853 0.43744,0.414 0.93735,0.745984 1.49586,0.988118 0.56241,0.24215 1.15216,0.367134 1.77316,0.37105 0.59757,0 1.1717,-0.1015 1.73801,-0.300584 0.55851,-0.199033 1.06233,-0.4804 1.51929,-0.851434 0.44916,-0.367134 0.80457,-0.808469 1.07406,-1.324002 0.26558,-0.511651 0.40618,-1.081868 0.41009,-1.718486 l 0,-18.364344 4.05797,0 0,17.817543 c -0.004,0.980318 -0.1367,1.91767 -0.41791,2.800354 -0.27339,0.886585 -0.66786,1.698953 -1.18341,2.44102 -0.51945,0.738168 -1.13654,1.378703 -1.85909,1.921587 -0.72645,0.546783 -1.53491,0.964684 -2.43321,1.261518 -0.8983,0.296834 -1.8669,0.44915 -2.9058,0.453051 -0.98422,-0.0033 -1.91767,-0.160001 -2.80035,-0.464768 -0.88267,-0.304634 -1.691141,-0.73035 -2.425402,-1.277151 -0.730351,-0.538968 -1.370877,-1.171686 -1.905949,-1.894237 -0.542884,-0.718634 -0.956884,-1.499769 -1.249808,-2.33947 -0.296828,-0.835818 -0.445241,-1.698952 -0.449149,-2.589454"
   style="fill:#ffffff;fill-opacity:1;fill-rule:nonzero;stroke:none"
   id="path3057"
   inkscape:connector-curvature="0" /><path
   d="m 121.99388,49.634373 4.0072,0 0,22.348084 11.9747,0 0,3.850973 -15.9819,0 0,-26.199057"
   style="fill:#ffffff;fill-opacity:1;fill-rule:nonzero;stroke:none"
   id="path3061"
   inkscape:connector-curvature="0" /><path
   d="m 144.23652,49.634373 4.00719,0 0,10.635067 8.35808,-10.635067 5.1867,0 -8.14719,10.373383 8.61977,15.825674 -4.61258,0 -6.75676,-12.365269 -2.64802,3.222155 0,9.143114 -4.00719,0 0,-26.199057"
   style="fill:#ffffff;fill-opacity:1;fill-rule:nonzero;stroke:none"
   id="path3065"
   inkscape:connector-curvature="0" /><path
   d="m 175.20437,49.634373 -8.8541,26.171707 4.37433,0 2.38245,-7.385562 8.38542,0 2.54256,7.385562 4.24153,0 -8.95955,-26.171707 -4.11264,0 z m 4.74146,14.69694 -5.34293,0 2.61679,-7.807379 2.72614,7.807379"
   style="fill:#ffffff;fill-opacity:1;fill-rule:nonzero;stroke:none"
   id="path3069"
   inkscape:connector-curvature="0" /><path
   d="m 195.11535,49.634373 3.45648,0 9.98282,17.055943 0,-17.055943 4.16733,0 0,26.199057 -3.53851,0 -9.98283,-16.923159 0,16.923159 -4.08529,0 0,-26.199057"
   style="fill:#ffffff;fill-opacity:1;fill-rule:nonzero;stroke:none"
   id="path3073"
   inkscape:connector-curvature="0" /><path
   d="m 221.78307,75.83343 4.11343,0 0,-26.198673 -4.11343,0 0,26.198673 z"
   style="fill:#ffffff;fill-opacity:1;fill-rule:nonzero;stroke:none"
   id="path3075"
   inkscape:connector-curvature="0" /><path
   d="m 234.93728,49.634373 3.45648,0 9.98283,17.055943 0,-17.055943 4.16733,0 0,26.199057 -3.53851,0 -9.98285,-16.923159 0,16.923159 -4.08528,0 0,-26.199057"
   style="fill:#ffffff;fill-opacity:1;fill-rule:nonzero;stroke:none"
   id="path3079"
   inkscape:connector-curvature="0" /><path
   d="m 261.60501,49.634373 3.45649,0 9.98284,17.055943 0,-17.055943 4.1673,0 0,26.199057 -3.5385,0 -9.98282,-16.923159 0,16.923159 -4.08531,0 0,-26.199057"
   style="fill:#ffffff;fill-opacity:1;fill-rule:nonzero;stroke:none"
   id="path3083"
   inkscape:connector-curvature="0" /><path
   d="m 294.93186,49.634373 -8.85409,26.171707 4.37432,0 2.38244,-7.385562 8.38538,0 2.54259,7.385562 4.24152,0 -8.95952,-26.171707 -4.11264,0 z m 4.74141,14.69694 -5.34287,0 2.62069,-7.807379 2.72218,7.807379"
   style="fill:#ffffff;fill-opacity:1;fill-rule:nonzero;stroke:none"
   id="path3087"
   inkscape:connector-curvature="0" /><path
   d="m 331.1645,69.596121 3.98376,-1.335736 c 0.35931,0.738168 0.73816,1.351352 1.12873,1.855186 0.39057,0.496017 0.81628,0.894385 1.28105,1.191218 0.46087,0.296834 0.99204,0.511634 1.57397,0.644434 0.58586,0.125001 1.25762,0.191535 2.01533,0.187468 0.41399,-0.0033 0.82799,-0.109334 1.2537,-0.312451 0.42181,-0.199033 0.81628,-0.476484 1.1756,-0.820184 0.35931,-0.339801 0.65225,-0.730352 0.87097,-1.156069 0.22276,-0.429634 0.33588,-0.870968 0.33978,-1.327919 0.003,-0.679583 -0.0936,-1.277151 -0.30838,-1.788785 -0.21093,-0.511651 -0.57024,-0.952985 -1.06625,-1.320119 -0.49603,-0.371034 -1.17559,-0.675668 -2.03093,-0.921718 -0.85143,-0.246217 -1.91769,-0.437435 -3.19482,-0.581951 -0.20309,-0.015 -0.44524,-0.07033 -0.74207,-0.1525 -0.29277,-0.08184 -0.61318,-0.199033 -0.96079,-0.347601 -0.34761,-0.1485 -0.6991,-0.331983 -1.06234,-0.5468 -0.35932,-0.218718 -0.703,-0.472585 -1.03498,-0.757685 -0.37104,-0.3009 -0.71864,-0.671784 -1.0389,-1.120918 -0.32027,-0.449151 -0.58196,-0.976418 -0.77722,-1.585703 -0.19529,-0.609283 -0.30059,-1.296669 -0.30466,-2.06217 0.003,-1.011568 0.15217,-1.941102 0.44134,-2.788637 0.28496,-0.851434 0.6874,-1.609119 1.20295,-2.280886 0.51945,-0.667868 1.117,-1.242002 1.8083,-1.714586 0.6874,-0.464768 1.42947,-0.824085 2.23012,-1.074052 0.80067,-0.24215 1.62866,-0.371034 2.49181,-0.371034 1.21856,0 2.29262,0.207151 3.22216,0.621001 0.92562,0.414 1.7341,1.046701 2.42149,1.894236 0.68739,0.847518 1.27714,1.92157 1.76926,3.222155 l -3.90564,1.179502 c -0.17592,-0.531167 -0.4101,-0.972502 -0.6874,-1.316202 -0.28527,-0.347601 -0.60147,-0.613184 -0.95689,-0.808468 -0.35539,-0.195284 -0.73035,-0.339784 -1.12482,-0.433534 -0.39838,-0.08583 -0.80064,-0.144333 -1.21074,-0.164001 -0.51556,0.0033 -0.99594,0.117168 -1.4412,0.335884 -0.44522,0.214668 -0.83579,0.499934 -1.17168,0.863152 -0.3398,0.359317 -0.60146,0.757701 -0.79285,1.187318 -0.18747,0.433518 -0.28527,0.870951 -0.28901,1.304485 0.003,0.390567 0.0974,0.765502 0.27339,1.132636 0.17966,0.363216 0.41791,0.675667 0.71082,0.949068 0.29276,0.265583 0.60929,0.456967 0.95298,0.566317 0.41401,0.117167 0.85924,0.20685 1.34354,0.261834 0.4804,0.05067 0.97642,0.1015 1.48805,0.1485 0.51164,0.04316 1.01157,0.117166 1.51148,0.214967 0.49603,0.09367 0.9608,0.24215 1.39433,0.449151 0.67567,0.324166 1.30449,0.710834 1.88252,1.175602 0.58193,0.45695 1.09356,0.984217 1.53491,1.585685 0.43744,0.597568 0.78113,1.265435 1.0311,1.991886 0.24214,0.734251 0.37102,1.534903 0.37493,2.398054 -0.003,1.234185 -0.19903,2.36292 -0.58584,3.390105 -0.38275,1.031085 -0.94906,1.92157 -1.67551,2.679271 -0.73428,0.757684 -1.62086,1.347452 -2.65584,1.761436 -1.0389,0.414 -2.21451,0.628817 -3.519,0.632718 -0.63271,0 -1.31229,-0.101501 -2.02311,-0.300584 -0.71474,-0.203084 -1.43338,-0.496001 -2.14811,-0.878768 -0.71865,-0.378834 -1.40604,-0.847518 -2.05437,-1.398219 -0.6524,-0.542885 -1.23043,-1.167785 -1.73817,-1.866886 -0.51163,-0.695219 -0.91391,-1.46072 -1.20685,-2.288721"
   style="fill:#ffffff;fill-opacity:1;fill-rule:nonzero;stroke:none"
   id="path3091"
   inkscape:connector-curvature="0" /><path
   d="m 352.82909,49.634373 15.98189,0 0,3.850973 -5.99908,0 0,22.348084 -3.95643,0 0,-22.348084 -6.02638,0 0,-3.850973"
   style="fill:#ffffff;fill-opacity:1;fill-rule:nonzero;stroke:none"
   id="path3095"
   inkscape:connector-curvature="0" /><path
   d="m 381.85973,49.634373 -8.8541,26.171707 4.37432,0 2.38244,-7.385562 8.38541,0 2.54257,7.385562 4.24154,0 -8.95955,-26.171707 -4.11263,0 z m 4.74144,14.69694 -5.34292,0 2.62068,-7.807379 2.72224,7.807379"
   style="fill:#ffffff;fill-opacity:1;fill-rule:nonzero;stroke:none"
   id="path3099"
   inkscape:connector-curvature="0" /><path
   d="m 399.09922,49.634373 15.98189,0 0,3.850973 -5.99906,0 0,22.348084 -3.95642,0 0,-22.348084 -6.02641,0 0,-3.850973"
   style="fill:#ffffff;fill-opacity:1;fill-rule:nonzero;stroke:none"
   id="path3103"
   inkscape:connector-curvature="0" /><path
   d="m 421.49808,75.83343 4.11303,0 0,-26.198673 -4.11303,0 0,26.198673 z"
   style="fill:#ffffff;fill-opacity:1;fill-rule:nonzero;stroke:none"
   id="path3105"
   inkscape:connector-curvature="0" /><path
   d="m 441.82696,76.329447 c -1.36698,0.0033 -2.61678,-0.253717 -3.7416,-0.773317 -1.13265,-0.519451 -2.10515,-1.32792 -2.92534,-2.421505 -0.82019,-1.097484 -1.4529,-2.507419 -1.89813,-4.233723 -0.45305,-1.722385 -0.67959,-3.788472 -0.68349,-6.194342 0.003,-2.36292 0.21465,-4.401657 0.6327,-6.112325 0.42573,-1.718487 1.0311,-3.128422 1.83175,-4.233723 0.79675,-1.101385 1.76536,-1.925487 2.90581,-2.456654 1.14044,-0.531168 2.4332,-0.800652 3.8783,-0.796751 1.19513,0.0067 2.28089,0.23435 3.2495,0.683501 0.9686,0.449134 1.82004,1.085767 2.55818,1.905953 0.73817,0.827984 1.35917,1.800502 1.85519,2.933137 0.49602,1.124818 0.87487,2.37072 1.12484,3.737689 0.25401,1.359168 0.38275,2.812071 0.38275,4.339173 0.003,1.097485 -0.0546,2.19107 -0.164,3.284655 -0.11351,1.089668 -0.30057,2.144186 -0.56241,3.159655 -0.26184,1.011568 -0.62099,1.956736 -1.07015,2.823787 -0.44915,0.867052 -1.01157,1.624736 -1.68723,2.276987 -0.67959,0.656151 -1.48416,1.159968 -2.42541,1.523202 -0.93735,0.363217 -2.02704,0.550684 -3.26121,0.554601 z m 0,-4.139989 c 0.82409,0.0033 1.54662,-0.175901 2.15591,-0.531168 0.61711,-0.359318 1.12873,-0.913918 1.53492,-1.671602 0.40619,-0.761602 0.70691,-1.74192 0.90612,-2.948771 0.20308,-1.199036 0.30088,-2.648022 0.30088,-4.331357 0.003,-3.097171 -0.39447,-5.428842 -1.19904,-6.99501 -0.80846,-1.566152 -2.03873,-2.355104 -3.69863,-2.359004 -0.84752,-0.0033 -1.58961,0.1681 -2.22622,0.511634 -0.64444,0.343701 -1.17561,0.886585 -1.60913,1.632569 -0.42961,0.742068 -0.75377,1.706769 -0.97249,2.894071 -0.21872,1.195136 -0.32809,2.628504 -0.32809,4.31574 0.003,2.152003 0.20686,3.932989 0.60538,5.335108 0.39838,1.402136 0.98031,2.444937 1.74583,3.128421 0.76159,0.683485 1.68723,1.023285 2.78472,1.019369"
   style="fill:#ffffff;fill-opacity:1;fill-rule:nonzero;stroke:none"
   id="path3109"
   inkscape:connector-curvature="0" /><path
   d="m 457.96507,49.634373 3.45649,0 9.98284,17.055943 0,-17.055943 4.16732,0 0,26.199057 -3.53852,0 -9.98282,-16.923159 0,16.923159 -4.08531,0 0,-26.199057"
   style="fill:#ffffff;fill-opacity:1;fill-rule:nonzero;stroke:none"
   id="path3113"
   inkscape:connector-curvature="0" /><path
   d="m 218.58435,144.14703 0,-27.19499 6.20996,0 0,27.19499 c 0.003,0.86314 0.2031,1.69114 0.58196,2.48398 0.37493,0.78503 0.89048,1.49196 1.55052,2.12077 0.65616,0.62099 1.40214,1.12092 2.24184,1.48024 0.84363,0.36713 1.73021,0.55069 2.65975,0.5546 0.89829,0 1.76144,-0.14842 2.60506,-0.44916 0.83972,-0.29682 1.5974,-0.72254 2.2809,-1.27714 0.67567,-0.55069 1.21074,-1.21075 1.60912,-1.98407 0.40229,-0.76941 0.60929,-1.62474 0.61709,-2.57381 l 0,-27.5504 6.09283,0 0,26.7224 c -0.0101,1.47633 -0.21093,2.88237 -0.62882,4.20638 -0.414,1.32792 -1.00376,2.54648 -1.77707,3.65959 -0.77722,1.1092 -1.70287,2.06999 -2.78864,2.88236 -1.08967,0.82018 -2.30042,1.44899 -3.64787,1.89424 -1.35135,0.44524 -2.80425,0.67568 -4.3626,0.67958 -1.47243,-0.003 -2.87455,-0.24215 -4.19857,-0.69911 -1.32401,-0.46086 -2.53475,-1.09358 -3.63615,-1.91377 -1.10139,-0.81236 -2.05437,-1.76144 -2.86284,-2.8433 -0.81237,-1.07796 -1.43336,-2.25356 -1.8708,-3.51118 -0.44524,-1.2498 -0.66787,-2.54648 -0.67567,-3.8822"
   style="fill:#000000;fill-opacity:1;fill-rule:nonzero;stroke:none"
   id="path3117"
   inkscape:connector-curvature="0" /><path
   d="m 258.58986,116.95204 5.18669,0 14.97424,25.58196 0,-25.58196 6.24903,0 0,39.29858 -5.30778,0 -14.97032,-25.38668 0,25.38668 -6.13186,0 0,-39.29858"
   style="fill:#000000;fill-opacity:1;fill-rule:nonzero;stroke:none"
   id="path3121"
   inkscape:connector-curvature="0" /><path
   d="m 298.59536,116.95204 23.97283,0 0,6.13185 -17.72384,0 0,9.78364 11.55293,0 0,6.17091 -11.55293,0 0,17.21218 -6.24899,0 0,-39.29858"
   style="fill:#000000;fill-opacity:1;fill-rule:nonzero;stroke:none"
   id="path3125"
   inkscape:connector-curvature="0" /><path
   d="m 332.1956,116.95204 22.51601,0 0,6.28807 -16.42321,0 0,9.66647 11.47478,0 0,6.13186 -11.47478,0 0,11.08031 17.88,0 0,6.13187 -23.9728,0 0,-39.29858"
   style="fill:#000000;fill-opacity:1;fill-rule:nonzero;stroke:none"
   id="path3129"
   inkscape:connector-curvature="0" /><path
   d="m 367.01437,116.95204 5.1867,0 14.97424,25.58196 0,-25.58196 6.24902,0 0,39.29858 -5.30777,0 -14.97033,-25.38668 0,25.38668 -6.13186,0 0,-39.29858"
   style="fill:#000000;fill-opacity:1;fill-rule:nonzero;stroke:none"
   id="path3133"
   inkscape:connector-curvature="0" /><path
   d="m 424.27109,126.57944 c -0.45305,-0.9686 -0.94906,-1.77316 -1.49977,-2.40978 -0.54288,-0.64052 -1.1873,-1.12092 -1.91375,-1.43337 -0.73427,-0.32417 -1.59742,-0.4804 -2.59726,-0.4804 -1.06233,0.006 -1.99188,0.19529 -2.80425,0.56242 -0.80847,0.36713 -1.51539,0.87096 -2.10513,1.51539 -0.59367,0.64053 -1.09359,1.37478 -1.50369,2.20669 -0.41399,0.83189 -0.74597,1.71067 -1.00376,2.64411 -0.25401,0.93346 -0.45695,1.87472 -0.59364,2.8316 -0.14067,0.94907 -0.23809,1.8669 -0.28902,2.74957 -0.0546,0.88659 -0.0743,1.69114 -0.0743,2.42541 0,0.83189 0.0546,1.7341 0.164,2.71832 0.10533,0.98032 0.28901,1.98798 0.53898,3.01126 0.24622,1.02327 0.58195,2.00359 0.99985,2.94875 0.414,0.94907 0.93346,1.79269 1.53882,2.53867 0.61708,0.75379 1.33963,1.35135 2.17154,1.78487 0.8358,0.43744 1.79268,0.66788 2.87846,0.67178 0.59756,-0.003 1.21856,-0.14841 1.85518,-0.42572 0.64051,-0.27339 1.26543,-0.64833 1.85518,-1.11311 0.59365,-0.47258 1.11701,-0.99593 1.58179,-1.57787 0.46085,-0.58194 0.80065,-1.17951 1.03499,-1.7966 l 5.81551,1.45681 c -0.42962,1.40602 -1.01157,2.6988 -1.74192,3.87048 -0.72646,1.16389 -1.58961,2.17545 -2.59336,3.03079 -0.99983,0.85143 -2.12857,1.51538 -3.38619,1.98016 -1.2498,0.46477 -2.61677,0.69911 -4.10483,0.70692 -1.78098,-0.0125 -3.37448,-0.28901 -4.7805,-0.84362 -1.40993,-0.5507 -2.64804,-1.32011 -3.71427,-2.30042 -1.06624,-0.98422 -1.98016,-2.12076 -2.73004,-3.41744 -0.7616,-1.29668 -1.3787,-2.69489 -1.85518,-4.19466 -0.47649,-1.49195 -0.8319,-3.03078 -1.06234,-4.61647 -0.22654,-1.58569 -0.3476,-3.15185 -0.35932,-4.71021 0,-1.20294 0.0585,-2.46055 0.18372,-3.78456 0.125,-1.31621 0.32809,-2.64803 0.60928,-3.98767 0.28121,-1.33573 0.65616,-2.64021 1.12483,-3.90564 0.47258,-1.26152 1.05453,-2.44102 1.74973,-3.53461 0.6952,-1.09358 1.51538,-2.05827 2.45666,-2.88236 0.94906,-0.8319 2.03873,-1.47633 3.26901,-1.94501 1.23027,-0.46477 2.6207,-0.70302 4.16341,-0.70692 1.84347,-0.006 3.54632,0.26558 5.10859,0.82409 1.56615,0.5546 2.97609,1.42165 4.2181,2.59335 1.24589,1.17169 2.30041,2.67927 3.17136,4.51883 l -5.77644,2.47617"
   style="fill:#000000;fill-opacity:1;fill-rule:nonzero;stroke:none"
   id="path3137"
   inkscape:connector-curvature="0" /><path
   d="m 441.17082,116.95204 22.51603,0 0,6.28807 -16.42324,0 0,9.66647 11.47478,0 0,6.13186 -11.47478,0 0,11.08031 17.88004,0 0,6.13187 -23.97283,0 0,-39.29858"
   style="fill:#000000;fill-opacity:1;fill-rule:nonzero;stroke:none"
   id="path3141"
   inkscape:connector-curvature="0" /><path
   d="m 475.98572,116.95204 11.00218,0 c 1.94502,0.009 3.72209,0.33588 5.33121,0.9764 1.60522,0.64835 3.03859,1.57007 4.28449,2.77691 1.2498,1.19904 2.30434,2.64022 3.16357,4.32355 0.85924,1.67552 1.51149,3.55023 1.95672,5.62413 0.44915,2.0778 0.67178,4.30401 0.67178,6.69427 0,1.43337 -0.14466,2.89408 -0.44134,4.37432 -0.29277,1.48024 -0.72645,2.92142 -1.30839,4.33527 -0.58194,1.40993 -1.30449,2.72613 -2.16763,3.9525 -0.85924,1.23028 -1.86689,2.31214 -3.00735,3.24169 -1.14045,0.93735 -2.41759,1.6638 -3.83143,2.19497 -1.41384,0.52726 -2.96829,0.79675 -4.65163,0.80457 l -11.00218,0 0,-39.29858 z m 6.24902,32.93237 4.51883,0 c 1.22636,-0.006 2.31213,-0.22278 3.2612,-0.64833 0.94909,-0.42182 1.77707,-0.98813 2.484,-1.70286 0.6991,-0.71474 1.29667,-1.5154 1.78487,-2.39807 0.48821,-0.88268 0.87877,-1.8005 1.17561,-2.73786 0.30058,-0.93735 0.51555,-1.84736 0.64833,-2.71832 0.129,-0.87096 0.19529,-1.64427 0.19529,-2.33167 0.007,-0.92954 -0.0507,-1.92548 -0.17185,-2.98 -0.11717,-1.05453 -0.31245,-2.11687 -0.59366,-3.1831 -0.27715,-1.06233 -0.64833,-2.08171 -1.12091,-3.0464 -0.47259,-0.9686 -1.06234,-1.83175 -1.76145,-2.58554 -0.70692,-0.7616 -1.54664,-1.35526 -2.52305,-1.7966 -0.9686,-0.43743 -2.09343,-0.66786 -3.37838,-0.67177 l -4.51883,0 0,26.80052"
   style="fill:#000000;fill-opacity:1;fill-rule:nonzero;stroke:none"
   id="path3145"
   inkscape:connector-curvature="0" /><path
   d="m 297.25962,182.02784 0,9.62739 8.48692,0 c 0.68351,-0.008 1.31231,-0.164 1.88644,-0.45695 0.57803,-0.29683 1.08185,-0.6952 1.50757,-1.18731 0.43354,-0.49602 0.76552,-1.04672 1.00375,-1.65599 0.23436,-0.60147 0.35932,-1.21856 0.35932,-1.84737 -0.007,-0.621 -0.14467,-1.20685 -0.4179,-1.74192 -0.27714,-0.54288 -0.65223,-1.01546 -1.12092,-1.42947 -0.46477,-0.40618 -1.00375,-0.72645 -1.5935,-0.95297 -0.59365,-0.23825 -1.21855,-0.34759 -1.85909,-0.35541 l -8.25259,0 z m -6.01078,-6.13186 14.61879,0 c 1.15607,0.008 2.26528,0.2031 3.31979,0.58585 1.04672,0.38665 2.01531,0.92953 2.89409,1.61694 0.88267,0.6952 1.65209,1.50367 2.30042,2.43712 0.64833,0.92173 1.15216,1.9372 1.51151,3.02297 0.35932,1.09356 0.53899,2.23401 0.54289,3.42133 -0.003,1.21074 -0.15617,2.30433 -0.45305,3.26903 -0.29277,0.96078 -0.70695,1.82393 -1.23422,2.59333 -0.53116,0.76553 -1.14825,1.46072 -1.86298,2.08172 -0.70694,0.62098 -1.47244,1.19902 -2.30434,1.72239 l 7.07314,18.5479 -6.44433,0 -6.3662,-17.21219 -7.58473,0 0,17.21219 -6.01078,0 0,-39.29858"
   style="fill:#000000;fill-opacity:1;fill-rule:nonzero;stroke:none"
   id="path3149"
   inkscape:connector-curvature="0" /><path
   d="m 339.07343,215.94444 c -2.05046,0.008 -3.92517,-0.37886 -5.61241,-1.15998 -1.69505,-0.77722 -3.15576,-1.99188 -4.38993,-3.63615 -1.23027,-1.64037 -2.17936,-3.75723 -2.84722,-6.34667 -0.67568,-2.58554 -1.01546,-5.68271 -1.02328,-9.29153 0.007,-3.5424 0.32027,-6.60445 0.94908,-9.17045 0.63661,-2.5738 1.54663,-4.69067 2.74566,-6.34666 1.19904,-1.656 2.65194,-2.88627 4.36261,-3.68694 1.71066,-0.80065 3.64787,-1.19901 5.81549,-1.19122 1.7966,0.003 3.41744,0.3476 4.87425,1.01939 1.45289,0.67566 2.73005,1.63256 3.83533,2.86284 1.10922,1.23808 2.03875,2.69879 2.7847,4.39384 0.74597,1.69114 1.31229,3.55803 1.69114,5.6085 0.37885,2.04264 0.57024,4.2181 0.57024,6.5107 0.003,1.64429 -0.0782,3.28856 -0.24215,4.92502 -0.17186,1.63647 -0.45307,3.21434 -0.84754,4.74145 -0.39057,1.5193 -0.92954,2.93313 -1.60522,4.23761 -0.67174,1.29669 -1.51925,2.43712 -2.53472,3.41355 -1.01547,0.98031 -2.22622,1.74192 -3.63225,2.2848 -1.40994,0.54288 -3.03859,0.82408 -4.89378,0.8319 z m 0,-6.20998 c 1.23808,0.008 2.31995,-0.26166 3.23387,-0.79675 0.92564,-0.53897 1.69115,-1.37088 2.30044,-2.51132 0.60927,-1.13655 1.06233,-2.61289 1.36307,-4.42119 0.30056,-1.80051 0.45305,-3.96814 0.45305,-6.49509 0.003,-4.64381 -0.59757,-8.14326 -1.8044,-10.49446 -1.21076,-2.35119 -3.05813,-3.53069 -5.54603,-3.53459 -1.26933,-0.008 -2.38244,0.24605 -3.33932,0.76549 -0.96468,0.51556 -1.76143,1.32792 -2.40979,2.44884 -0.64834,1.11311 -1.13653,2.56211 -1.4607,4.34308 -0.32806,1.78878 -0.49212,3.9447 -0.49212,6.47164 0.007,3.22997 0.30871,5.90142 0.9022,8.00266 0.60539,2.10123 1.47634,3.66741 2.62069,4.69069 1.14827,1.02719 2.53477,1.53881 4.17904,1.531"
   style="fill:#000000;fill-opacity:1;fill-rule:nonzero;stroke:none"
   id="path3153"
   inkscape:connector-curvature="0" /><path
   d="m 373.45868,175.89988 -13.28308,39.25952 6.56147,0 3.57758,-11.08421 12.57616,0 3.81191,11.08421 6.36619,0 -13.43932,-39.25952 -6.17091,0 z m 7.11218,22.04735 -8.01438,0 3.92907,-11.71302 4.08531,11.71302"
   style="fill:#000000;fill-opacity:1;fill-rule:nonzero;stroke:none"
   id="path3157"
   inkscape:connector-curvature="0" /><path
   d="m 403.32513,175.89988 11.00219,0 c 1.94503,0.008 3.72208,0.33588 5.33121,0.97641 1.60522,0.64834 3.0386,1.57007 4.28449,2.77691 1.2498,1.19904 2.30433,2.64022 3.16358,4.32355 0.85923,1.67553 1.51148,3.55023 1.96063,5.62414 0.44523,2.07779 0.66785,4.304 0.66785,6.69425 0,1.43339 -0.14466,2.89408 -0.44134,4.37432 -0.29276,1.48024 -0.72645,2.92142 -1.30837,4.33528 -0.58194,1.40993 -1.30449,2.72614 -2.16765,3.9525 -0.85923,1.23027 -1.86688,2.31214 -3.00733,3.24169 -1.14045,0.93735 -2.4176,1.66381 -3.83144,2.19497 -1.41384,0.52725 -2.96829,0.79675 -4.65163,0.80456 l -11.00219,0 0,-39.29858 z m 6.24904,32.93238 4.51882,0 c 1.22247,-0.008 2.31214,-0.22262 3.26121,-0.64833 0.94907,-0.41791 1.77706,-0.98814 2.48398,-1.70287 0.69912,-0.71474 1.29669,-1.51539 1.78489,-2.39805 0.4882,-0.88269 0.87877,-1.80051 1.1756,-2.73786 0.30089,-0.93735 0.51554,-1.84737 0.64834,-2.71834 0.12866,-0.87095 0.19528,-1.64427 0.19528,-2.33167 0.007,-0.92953 -0.0507,-1.92547 -0.17185,-2.98 -0.11717,-1.05452 -0.31246,-2.11686 -0.59365,-3.18309 -0.27747,-1.06233 -0.64835,-2.08172 -1.12093,-3.0464 -0.47257,-0.9686 -1.06234,-1.83175 -1.76145,-2.58554 -0.70691,-0.76161 -1.54662,-1.35525 -2.52305,-1.79661 -0.96858,-0.43741 -2.09341,-0.66784 -3.37837,-0.67176 l -4.51882,0 0,26.80052"
   style="fill:#000000;fill-opacity:1;fill-rule:nonzero;stroke:none"
   id="path3161"
   inkscape:connector-curvature="0" /><path
   d="m 219.93571,289.31973 -80.50704,80.50702 c -3.41743,3.41744 -9.01422,3.41744 -12.43556,0 L 46.490004,289.31973 c -3.421343,-3.41742 -3.421343,-9.01421 0,-12.43555 l 80.503106,-80.50702 c 3.42134,-3.41743 9.01813,-3.41743 12.43556,0 l 80.50704,80.50702 c 3.41743,3.42134 3.41743,9.01813 0,12.43555"
   style="fill:#fee011;fill-opacity:1;fill-rule:evenodd;stroke:none"
   id="path3165"
   inkscape:connector-curvature="0" /><path
   d="m 218.8265,287.87074 -80.78042,80.78041 c -2.65583,2.65583 -6.99501,2.65583 -9.65085,0 l -80.7804,-80.78041 c -2.651931,-2.65193 -2.651931,-6.995 0,-9.64692 l 80.7804,-80.78433 c 2.65584,-2.65191 6.99502,-2.65191 9.65085,0 l 80.78042,80.78433 c 2.65192,2.65192 2.65192,6.99499 0,9.64692"
   style="fill:#000000;fill-opacity:1;fill-rule:evenodd;stroke:none"
   id="path3169"
   inkscape:connector-curvature="0" /><path
   d="m 216.48702,285.36332 -80.95618,80.95616 c -1.27715,1.27715 -3.36275,1.27715 -4.6399,0 L 49.934782,285.36332 c -1.277145,-1.27715 -1.277145,-3.36275 0,-4.6399 l 80.956158,-80.95615 c 1.27715,-1.27716 3.36275,-1.27716 4.6399,0 l 80.95618,80.95615 c 1.27715,1.27715 1.27715,3.36275 0,4.6399"
   style="fill:#fee011;fill-opacity:1;fill-rule:evenodd;stroke:none"
   id="path3173"
   inkscape:connector-curvature="0" /><path
   d="m 130.75816,299.72436 0.77721,1.94893 0,2.11294 -0.10933,1.89034 -0.61319,2.55819 0.39055,1.55835 0.66787,0.5546 -0.22261,1.11312 c 0,0.44523 0.22261,0.89049 0.5546,1.1131 0.33588,0.2773 0.78111,0.44525 1.22636,0.44525 0.5546,0.10933 0.99986,0.10933 1.44509,0.0546 0.44525,0 0.89048,-0.22263 1.28105,-0.38666 0.164,0 0.49991,-0.16794 0.60929,-0.39057 0.0546,-0.22262 0,-0.39056 -0.10934,-0.55851 -0.16794,-0.2773 -0.39055,-0.38665 -0.55849,-0.60928 -0.332,-0.33588 -0.60929,-1.00375 -0.99986,-1.44899 -0.11317,0 -0.33197,-0.22262 -0.44524,0 l -0.10933,-1.22246 c -0.86705,-9.17046 -0.19918,-9.41261 1.49977,-17.91129 l 0.72255,-4.44851 c 0.44523,-0.33588 0.94517,-0.66787 1.00375,-0.66787 0.33197,0 2.11296,-1.7263 2.2223,-1.7263 0.0587,0 1.94893,-1.55834 2.44884,-2.11294 0,0 0.61319,-0.8905 0.61319,-1.00375 0,-0.72255 0.89049,-2.49963 0.89049,-3.1128 0,-1.39041 1.1092,-4.67115 1.22246,-5.00705 0.22264,-0.94515 3.72599,-3.17137 5.28434,-4.33915 l 0.77722,-0.39057 c 0.28121,-0.38667 1.11312,-1.77708 1.16779,-1.89034 0,0 0.89048,-0.66786 1.39431,-0.66786 1.44509,0 1.89034,0.49993 2.44494,0.49993 0.89049,0 2.44883,0.78112 3.17137,0.78112 0.22263,0 1.28105,0.99984 1.72631,1.11312 l 0.21871,0.164 c 0.11333,0 0.2812,0 0.33589,0 0.10933,0 0.33198,0 0.44524,0 0.72254,0 1.55834,-0.164 2.22621,-0.164 0,0 0.38666,-0.55852 0.38666,-0.61319 0,-0.10933 0.28121,-0.44525 0.39057,-0.49993 0,0 0,-0.27731 0.0546,-0.27731 l 0.33588,-0.16793 0.44525,-0.44525 c 0,0 0,-0.33199 0,-0.39056 0,-0.10934 0.16401,-0.44524 0.16401,-0.60927 0,-0.16795 0.11333,-0.50384 0.11333,-0.78114 0,-0.33198 -0.11333,-0.66787 -0.11333,-0.89049 0,-0.27729 -0.16401,-0.77722 -0.27731,-0.89048 -0.22262,-0.22263 -0.99983,-0.33198 -0.99983,-0.33198 -0.2773,0 -1.39042,-1.44508 -1.61304,-1.55836 l -1.22637,-1.11309 c 0,-0.22264 -0.83189,-1.11312 -0.83189,-1.77708 0,0 -0.22264,-0.66786 -0.22264,-0.94907 0,-0.49993 -0.16793,-1.1092 -0.16793,-1.61303 0,-0.0546 -0.44526,-0.49991 -0.44526,-0.60929 0,0 -0.27729,-0.39056 -0.27729,-0.44523 0,-0.0546 -0.33588,-0.22263 -0.33588,-0.22263 -0.16401,0 -0.44134,-0.16793 -0.66396,-0.2773 0,0 -0.39057,0.0546 -0.28121,0 0.0587,-0.11334 0.50383,-0.11334 0.61318,-0.22262 0.0546,-0.0587 -0.16794,-0.22261 -0.16794,-0.22261 -0.10933,-0.0587 -0.77722,-0.22264 -0.77722,-0.39057 l 0.33198,-0.39057 c 0.0587,-0.0546 0.44524,-0.0546 0.44524,-0.2773 0,-0.10934 -0.44524,-0.10934 -0.44524,-0.10934 -0.44524,0 -1.11311,-0.44524 -1.55444,-0.61317 l 0.5546,-0.66788 0.66786,-0.49991 0.72255,-0.3359 0.99984,-0.10933 0.72645,0 0.27731,-0.16795 0,-0.16794 -0.33589,-0.164 -0.8319,-0.28122 -1.22638,0 -1.22248,0.0587 -1.1131,0.38667 -0.99985,0.5585 c -0.33588,0.0546 -0.61318,-0.11334 -0.78112,-0.11334 -0.60928,0 -1.49977,0 -1.94501,0 -1.22246,0 -2.89407,1.33574 -3.94861,1.33574 -0.11333,0 -1.50367,1.05843 -1.78097,1.05843 -0.16793,0 -1.3904,0.83191 -1.3904,0.83191 -1.00375,0.0587 -3.28465,1.89423 -4.28449,1.9489 0,0 -0.83582,0.2773 -1.16779,0.2773 -1.44508,0 -2.89409,0 -4.17124,0 -1.22245,0 -2.67145,-0.2773 -4.00719,-0.2773 -0.94515,0 -2.33556,0 -3.28072,0 -2.11296,0 -4.67116,0.94517 -6.62007,0.94517 -1.44509,0 -3.78067,0.77724 -5.22966,0.77724 -2.2223,0 -4.94845,0.61317 -7.45196,0.61317 -1.78097,0 -4.06187,-0.94517 -5.3976,-0.94517 -2.05827,0 -4.893772,-1.39041 -7.065307,-1.39041 -0.945165,0 -2.780818,-0.66786 -4.225905,-0.66786 -0.777223,0 -2.280895,0.16795 -3.003439,0.16795 -0.945166,0 -2.226217,0.60927 -3.058118,0.94516 -0.835808,0.33199 -2.058275,1.27716 -2.784724,1.27716 -0.10935,0 -1.222465,0.50381 -1.554446,0.50381 -0.558507,0 -1.894236,0.5546 -2.116858,0.5546 -0.886581,0 -2.944855,1.44509 -3.335418,1.44509 0,0 -1.113109,1.00374 -1.113109,1.22638 0,0.38665 -0.499922,1.49975 -0.499922,2.05827 0,0.72254 -0.335886,1.83565 -0.335886,2.66755 0,1.28105 0.05859,2.89408 0.05859,4.11654 0,2.33559 0.445243,4.8391 0.445243,7.17858 0,2.05827 0,4.44852 0,6.56148 0,1.1131 -0.113268,2.17153 -0.113268,3.17139 0,0.33588 -0.499922,1.22245 -0.499922,1.44508 0,1.05842 -0.335886,2.61677 -0.335886,3.61662 0,1.33574 -0.222619,2.94876 -0.222619,4.22981 0,0.77724 0.05858,1.55445 0.05858,2.22232 0,0.89048 0.499923,2.00359 0.499923,2.89407 0,0.22264 0.167944,0.83581 0.499922,1.22246 0,-0.99982 0.05469,-1.49977 0.05469,-2.11294 0,-0.44524 0.277302,-0.99984 0.277302,-1.33574 0,-0.44523 0.281206,-1.1131 0.613186,-1.44509 0.167942,0.44526 0.113267,1.44509 0.113267,1.89034 0,0.55851 0.05469,1.22637 0.499922,2.22622 0,-0.77723 0,-1.55835 0,-2.11295 0,-0.78114 0.222621,-1.55835 0.222621,-2.00361 0,-0.66784 0.499922,-1.6677 0.499922,-2.44884 0,-1.22246 0.222622,-2.50351 0.222622,-3.83533 0,-1.44899 -0.499922,-2.89409 -0.499922,-4.22981 0,-0.22261 -0.445243,-0.77721 -0.445243,-1.22247 0,-2.17153 0.167942,-4.28449 0.167942,-6.45212 0,-1.83566 0.05469,-3.72989 0.05469,-5.62021 0,-1.16779 -0.781127,-3.83926 0.277302,-3.83926 1.167788,0 1.281051,3.67131 1.39041,4.11655 0,0 2.671458,0.3359 2.89408,1.00376 0.445243,1.16779 -0.113266,0.94517 0.109351,2.28088 -0.554602,-0.33588 -0.445243,1.61305 -0.445243,2.05828 0,0.88658 0,1.94502 0,2.72223 0,0.89049 0.335886,1.89424 0.335886,2.67146 0,0.39057 0.667865,1.39041 0.667865,1.83565 0,0.44525 0.445243,1.33574 0.667863,1.89034 0.109351,0.22261 -0.445242,0.94516 -0.445242,1.11309 0,0.22264 -0.890486,1.50369 -0.890486,1.50369 -0.335886,0.44524 -1.671616,1.83566 -2.116858,2.55819 0,0 -0.386659,0.5546 -0.386659,0.72255 0,0.16793 -0.167944,0.44524 -0.167944,0.61319 0,0.89048 0.167944,1.99968 0.167944,2.55818 0,2.67147 1.054523,5.78426 1.054523,8.62367 0,0.83189 0,2.33557 0,3.44868 0,0.88659 0,1.77708 0,2.66756 0,0.22261 0.222622,0.33589 0.222622,0.55851 0,0.10932 0.113267,0.27729 0.113267,0.27729 0.10935,-0.16793 0.445242,-0.61319 0.445242,-0.8358 l 0.222622,-0.10934 0.10935,-0.22263 0.222622,0 0.113267,0.22263 c 0,0.10934 0.109351,0.22262 0.109351,0.33199 0,0 0.222622,0.11333 0.222622,0.2773 0,0 0,0.22262 0,0.2812 0,0.0546 0.113266,0.22262 0.113266,0.33199 0,0 0,0.16793 -0.113266,0.27729 -0.109351,0.22262 0,0.39056 0,0.49992 0.222621,0.28121 0.335884,0.66787 0.558506,0.89049 0.33198,0.11317 0.554602,0.22246 0.886582,0.39056 0.613186,-0.10933 1.335729,-0.10933 2.058273,-0.10933 0.281207,-0.11316 0.667864,-0.28121 0.949072,-0.33588 0.164033,-0.1681 0.445241,-0.33198 0.60928,-0.5546 0,-0.0587 0,-0.11334 0,-0.11334 -0.277302,-0.22263 -0.386658,-0.38667 -0.60928,-0.44525 -0.281208,-0.44523 -0.78113,-0.8319 -1.113109,-1.1131 -0.167942,-0.164 -1.113108,-1.05453 -1.390409,-1.05453 l -0.281207,-0.33588 c 0,-0.10934 0,-0.55461 0,-0.55461 0,-2.11295 -0.5546,-4.2298 -0.5546,-6.45211 0,-0.72255 0.113267,-1.94892 0.113267,-2.61679 0,-0.60928 0.945165,-1.89034 1.167788,-2.5582 0,0 0.10935,-0.10934 0.22262,-0.33196 l 1.99969,3.55803 1.167786,3.44868 0.390565,1.94891 0.499922,2.22623 0.445244,1.44508 0.335885,-0.44524 0.222622,-0.77723 0.331979,0.88659 0,1.00374 c -0.277301,0.10934 0.222622,0.60929 0.222622,0.89049 0,0 0.2773,0.33199 0.390564,0.33199 0.777223,0 1.558352,0.33588 2.335575,0.33588 0.445242,0 1.113108,-0.33588 1.445087,-0.33588 0.222622,0 0.890486,-0.5546 0.890486,-0.77722 0,-0.11334 -0.445241,-0.44526 -0.445241,-0.44526 -0.109367,-0.22261 -0.890489,-1.33573 -1.335731,-1.449 0,0 -0.445244,-0.22262 -0.667865,-0.33196 l -0.77727,-0.89049 c -0.429621,-3.76503 -3.9447,-7.24497 -3.116704,-11.0686 l 0.445245,-3.6713 c -0.109351,0.66786 0.05859,0.99985 0.05859,1.33573 0,0.49992 0,1.1092 0,1.55443 0,0 0.499923,0.11334 0.554601,0 0.05469,-0.10933 0.445244,-0.77721 0.445244,-1.05451 0,-0.39057 0.05469,-1.50367 0.167942,-1.50367 0,0 1.113108,0.2773 1.113108,0.33588 0,0.10934 0,0.83191 0,1.16779 0,0.49991 0.10935,1.27715 0.10935,1.49977 0,0 0.667864,0.11333 0.667864,0 0.113267,-0.10933 0.222622,-0.5546 0.222622,-0.5546 0,-0.44526 0.33198,-0.99986 0.33198,-1.33574 0,-0.2773 0.113266,-0.77722 0.113266,-0.94517 0,-0.11333 0.554603,-0.11333 0.554603,0 0,0.22264 -0.109351,0.77724 -0.109351,1.16781 0,0.39055 0.222622,0.99983 0.331979,1.1131 l 0.445245,0 c 0,-0.22262 0.558507,-1.1131 0.558507,-1.55835 0,-0.22262 -0.113267,-0.89049 -0.113267,-0.99986 0,0 1.226371,-0.39055 1.335729,-0.39055 0.2773,0 1.390408,-0.89048 1.390408,-0.89048 0.222622,0 1.281049,-1.11312 1.281049,-1.11312 0,-0.0546 0.831901,-1.33182 1.054523,-1.89034 0.335887,-0.0546 1.335727,-0.0546 1.671617,-0.0546 1.16779,0 2.66756,0.77723 3.78067,0.77723 0.22262,0 1.22246,0.8358 1.66771,0.8358 0.11326,0 0.61318,0.10933 0.89048,0.10933 0.33589,0 0.83581,0 1.16779,0 0.28121,0 0.78112,0 0.94907,0 1.27714,0 2.89018,-0.49991 3.83534,-0.49991 1.67161,0 4.11655,-1.39042 6.00688,-1.39042 1.22637,0 3.00734,-0.2773 4.50711,-0.2773 0.39057,0 1.44509,0 1.44509,0 0.22262,0 0.94907,1.22246 0.94907,1.66772 0,1.33572 -0.11326,2.78082 -0.11326,4.22981 0,1.55444 0.11326,3.33542 0.11326,4.83908 0,1.11312 0.16403,2.28091 0.16403,3.28075 0,0.89048 -0.49992,2.05826 -0.49992,2.8355 0,0.2812 -0.44524,1.17169 -0.44524,1.44898 0,0 -0.33198,0.33198 -0.33198,0.44526 0,0.10933 0,0.5546 0,0.66786 0,0.66785 0.60928,1.44509 0.60928,2.11296 0,0.44523 0.16794,0.89048 0.16794,1.33571 0,0.33199 -0.16794,0.66788 -0.16794,0.99986 0,0.10933 -0.10936,0.33198 -0.10936,0.5546 0.10936,0.44523 0.44525,1.05841 0.61319,1.50367 0,0 0.38666,0.27744 0.44524,0.27744 0.49993,0 1.27715,0.39057 1.83566,0.39057 0.2773,0 0.77722,0 1.10921,0 0.39056,0 0.89048,-0.22246 1.16778,-0.33588 0,0 0.44524,-0.33198 0.5585,-0.44526 l -0.11333,-0.38664 c 0,-0.27745 -0.66786,-0.61319 -0.66786,-0.61319 -0.10933,-0.22278 -0.66396,-0.94516 -0.77722,-1.16778 0,0 -0.332,-0.44525 -0.49993,-0.61318 0,-0.38667 -0.61318,-0.94517 -0.61318,-1.27715 0,0 -0.22262,-0.22262 -0.22262,-0.44524 0,-0.11333 0,-0.44526 0,-0.66787 0,-0.44525 0.49992,-1.22247 0.49992,-1.78097 0,-0.22263 0,-0.72255 0,-0.99985 0,-0.5585 -0.164,-1.1131 -0.164,-1.61303 0,-1.00376 0.66785,-2.50351 0.66785,-2.89408 0,-0.77723 0.27732,-1.78097 0.77723,-2.78081 z m 48.84007,10.06875 0.0546,1.05844 -0.10933,0.88658 0,0.89048 0.44525,1.00375 0.22262,0.77722 0.2773,0.16779 0.72255,0.22278 0.5585,-0.11333 0.0546,-0.10934 -0.0546,-0.16778 0.164,-0.22279 -0.5546,-0.89048 c -1.01157,-2.26512 -0.32417,-5.81534 0.33199,-8.01031 l 0.11333,-0.5546 -0.44526,-0.44525 0.49993,-0.22262 0.16795,-0.77723 -0.33589,-0.2812 0.33589,-0.38665 -0.0546,-0.94517 c 0.33198,-0.28122 0.44525,-0.78114 0.44525,-1.11312 0,-0.11334 0.5546,-0.22262 0.5546,-0.22262 0,0 0.33197,-0.33588 0.33197,-0.39057 0,-0.10933 0.16795,-0.5546 0.16795,-0.66784 l 0.39057,-0.44526 c 0,-0.16795 0.16793,-0.77721 0.16793,-0.83189 0,-0.11334 0.27729,-0.33589 0.27729,-0.33589 0,0 0.10934,-0.49994 0.10934,-0.72255 l 0.22262,-0.33588 c 0,-0.10934 0.39056,-0.44524 0.39056,-0.66787 0,-0.164 0,-0.60929 0,-0.8319 0,-0.0546 0.49993,-0.22262 0.49993,-0.22262 0,-0.0546 0.11332,-0.39057 0.11332,-0.61319 0,-0.10933 0.10934,-0.27729 0.10934,-0.49991 0,0 0.33589,-0.33198 0.33589,-0.44526 0,-0.16795 0,-0.61318 0,-0.72255 0,-0.0546 0.38665,-0.11333 0.44132,-0.22261 l 0.28121,-0.44524 c 0,-0.39056 0.5546,-0.8905 0.5546,-1.33573 0,0 0.22264,-0.44525 0.22264,-0.66787 0,-0.10934 0.11333,-0.5546 0.11333,-0.5546 0,-0.2773 0.22263,-0.5585 0.49993,-1.00376 l 1.27713,0 c 0.81239,0.32027 0.98814,-0.0625 1.72631,-0.16399 l 0.10933,0 0.16795,-0.22261 0.39057,-0.55852 0.10934,-0.38665 0,-0.16795 -0.332,-0.83581 -1.61301,-2.72614 c 0.10934,-0.27729 0.38665,-0.38665 0.38665,-0.60928 0,-0.11333 -0.164,-0.33589 -0.164,-0.44523 0,-0.33588 0,-0.61319 0,-0.83583 l -0.11333,-0.39054 -0.38665,-0.0546 c 0,0 -0.11334,-0.39057 -0.11334,-0.49993 0,-0.10934 -0.2773,-0.39055 -0.2773,-0.39055 -0.11334,0 -0.39056,-0.164 -0.55851,-0.164 -0.164,0 -0.38666,0.164 -0.38666,0.164 -0.22261,0 -0.5585,-0.38667 -0.72255,-0.38667 -0.11334,0 -0.33588,0 -0.61318,0 -0.0546,0 -0.16794,0.22262 -0.2773,0.22262 -0.22262,0 -0.61319,-0.16794 -0.94517,-0.16794 -0.11316,0 -0.33588,0.16794 -0.5585,0.16794 0,0 -0.27731,0.49993 -0.39057,0.5546 -0.22262,0.10933 -0.72253,0 -0.99984,0 -0.16795,0 -0.72255,0.66787 -0.72255,0.66787 l -0.55849,0.39057 c 0,0 -0.33199,0.33198 -0.33199,0.38665 0,0.11333 -0.0546,0.55851 -0.0546,0.55851 -0.11334,0 -0.5585,0.22261 -0.72254,0.2773 0,0 -0.16795,0.39057 -0.16795,0.5546 0,0.16793 0.10933,0.50382 0.10933,0.50382 0,0.22263 -0.55461,0.38666 -0.66786,0.38666 0,0 -0.21872,0.28121 -0.21872,0.49993 0,0.0585 0,0.44524 0,0.50383 0,0 -0.44525,0.38665 -0.44525,0.44523 -0.0587,0.10934 -0.39057,0.38667 -0.39057,0.49994 0,0 0,0.33196 0,0.49991 l -0.33588,0.10933 c 0,0 -0.33197,0.66788 -0.44523,0.66788 0,0 -0.5546,0.11333 -0.60929,0.11333 -0.11334,0 -0.44525,0.16793 -0.49991,0.22262 -0.0585,0 -0.11334,0.44524 -0.22264,0.44524 -0.28121,0 -0.72645,-0.27731 -0.94907,-0.27731 -0.21872,0 -0.49992,0.10933 -0.83191,0.10933 -0.0546,0 -0.27729,0.16795 -0.33588,0.16795 -0.33198,0 -0.5546,-0.22261 -0.66786,-0.22261 -0.33198,0 -0.60929,0.0546 -0.72254,0.0546 -0.10933,0 -0.33198,0.2773 -0.44525,0.2773 -0.2773,0 -0.5546,-0.10933 -0.77721,-0.10933 -0.16795,0 -0.49993,0.10933 -0.5546,0.10933 -0.11334,0 -0.16796,0.39057 -0.50385,0.39057 -0.27729,0 -0.38665,-0.33588 -0.60927,-0.33588 -0.27731,0 -0.61319,0.11333 -0.83581,0.11333 -0.10933,0 -0.33198,-0.16795 -0.49991,-0.16795 -0.0546,0 -0.27731,0 -0.39057,0 -0.33198,0 -0.33198,0.49991 -0.60929,0.49991 -0.22261,0 -0.50382,-0.33196 -0.61318,-0.33196 -0.33588,0 -0.66787,0 -0.89048,0 -0.0546,0 -0.22264,0.33196 -0.33201,0.33196 -0.11333,0 -0.22261,-0.33196 -0.39056,-0.33196 -0.16794,0 -0.39055,0 -0.5585,0 -0.0546,0 -0.33199,0.10933 -0.33199,0.10933 0,0 -0.33589,0.44524 -0.5546,0.44524 -0.22261,0 -0.39055,-0.5546 -0.66785,-0.5546 0,0 -0.28121,0 -0.44526,0 -0.2226,0 -0.44524,0.22262 -0.55849,0.22262 -0.0546,0 -0.22263,-0.11334 -0.22263,-0.11334 -0.22262,0 -0.38665,0 -0.60927,0 -0.11333,0 -0.33589,0 -0.44526,0 -0.11333,0 -0.22261,0.28122 -0.39056,0.28122 -0.11334,0 -0.33199,-0.16795 -0.33199,-0.16795 -0.11316,0 -0.44523,0 -0.50381,0 -0.10933,0 -0.49992,0.5546 -0.66787,0.5546 0,0 -0.5546,0.11333 -0.66786,0.11333 -0.0546,0 -0.49993,0.44526 -0.49993,0.44526 0,0 -0.164,0.49991 -0.164,0.61317 l -0.94908,0.38665 -0.33197,0.22264 -0.11333,0.44524 -0.49992,0.27729 -0.33198,0.49993 -0.0546,0.55851 -0.55851,0.49991 -0.0546,0.49993 0.0546,0.44524 -0.22261,0.5585 -0.0546,0.44526 0.10933,0.10933 -0.0546,0.49992 0.11316,0.39056 0.5546,0.22262 c 0.16795,0.83582 0.39057,1.05843 0.39057,1.33574 0,0.16795 0,0.60928 0,0.77722 0,0.16795 0.2773,0.55852 0.2773,0.55852 0,0 0.44525,0.10933 0.44525,0.22261 0,0.10933 -0.33198,0.44523 -0.33198,0.44523 0,0.2773 0.164,0.49994 0.164,0.60929 0,0.11333 0.2773,0.11333 0.2773,0.2773 0,0.28122 -0.10934,0.55851 -0.10934,0.66787 0,0.11333 0,0.2812 0,0.39056 0,0.16793 0.22262,0.39057 0.22262,0.5546 0,0.28121 -0.39057,0.5585 -0.39057,0.66787 0,0.11333 0,0.33589 0,0.55851 0,0.10932 0.16795,0.38666 0.16795,0.38666 0,0.16794 -0.61319,0.33589 -0.61319,0.39055 0,0.22263 -0.0546,0.72255 -0.0546,0.94517 0,0.0587 -0.39057,0.22263 -0.44526,0.22263 0,0 -0.10933,0.27731 -0.10933,0.33588 0,0.22262 0.164,0.44524 0.164,0.5546 0,0.22262 -0.27731,0.33589 -0.27731,0.33589 0,0.0546 -0.2226,0.2773 -0.2226,0.5546 0,0.11334 0,0.39057 0,0.49992 0,0.0546 0.78111,0.72255 0.83579,0.66787 l 0,0.66786 0.0546,0.94517 0.22261,1.50367 0,2.5035 0.27731,0.10934 c 1.08186,0.77332 -0.72254,1.69896 2.0036,1.39042 l 0.33196,-0.10933 -0.0546,-0.16779 0.2773,-0.27747 -0.5546,-0.94515 -0.2773,-1.11312 -0.2773,-1.3904 0,-1.89424 0.33196,-1.16778 c 1.4451,-1.49977 0.99986,1.83566 0.99986,2.8394 l 0.0587,0.83191 c 1.21856,0.99983 -0.49602,2.6441 2.50352,2.17153 l 0.16399,-0.16809 -0.0546,-0.22248 0.11334,-0.10933 0.0546,-0.16778 -0.44524,-0.72271 -0.39055,-1.00374 -0.22264,-1.27716 0.11334,-2.00358 0,-1.27715 0.49992,0 0.5546,-0.50383 -0.164,-0.5546 0.49991,0.16793 0.33198,-0.83579 0,-0.49993 0.55852,-0.16794 0.22262,-0.66787 -0.22262,-0.61318 0.66786,-0.60929 c 0.10933,-0.22262 0.38667,0 0.38667,0 0,0 0.16793,0.22262 0.27729,0.22262 0.16794,0 0.33589,-0.0546 0.39057,-0.0546 0.0546,0 0.22262,-0.16793 0.39055,-0.16793 0.16795,0 0.2773,0.44524 0.49993,0.44524 0.0546,0 0.44526,0 0.55462,0 0.11317,0 0.2812,-0.22262 0.55851,-0.22262 0.0546,0 0.16795,0.22262 0.16795,0.22262 0.10932,0.0546 0.33196,0.27729 0.38665,0.27729 0.0587,0 0.33588,0 0.33588,0 0.22262,0 0.44525,-0.27729 0.5546,-0.27729 0.11333,0 0.2773,0.27729 0.33588,0.27729 0.10934,0 0.33198,0 0.44526,0 0.10933,0 0.33198,0 0.44523,0 0.0546,0 0.0546,-0.44522 0.16399,-0.44522 0.11318,0 0.3359,0.33198 0.44524,0.33198 0,0 0.33589,0.0585 0.44526,0 0.11333,0 0.16793,-0.38667 0.33588,-0.38667 0.10933,0 0.33198,0.38667 0.49991,0.38667 0.0546,0 0.33199,-0.164 0.55461,-0.164 0,0 0.0546,-0.27731 0.2773,-0.27731 0.11333,0 0.11333,0.27731 0.33588,0.27731 0.22261,0 0.49992,-0.27731 0.8319,-0.27731 l 0,0.27731 c 0,0.164 0.33588,0.27729 0.33588,0.49991 0,0.10933 -0.22262,0.27731 -0.22262,0.5546 0,0.22262 0.22262,0.44526 0.22262,0.55851 0,0 0.39057,0.16795 0.39057,0.33198 0,0.16795 -0.39057,0.39057 -0.39057,0.72255 0,0.11334 0.10934,0.50381 0.10934,0.50381 0,0 0.2812,0.27731 0.44523,0.38667 l 0.39057,1.1131 0.0546,1.28106 0,1.22247 -0.164,1.44508 -0.0587,1.22637 0,0.66786 0.22262,0.10934 0.2812,0.11317 0.10933,0.44524 0.10933,0.66396 0.39057,0.1681 1.00375,0.16778 0.5546,-0.16778 0.22262,-0.10933 -0.10933,-0.16779 0.21872,-0.10934 0.0585,-0.22652 -0.61318,-0.77722 -0.2773,-0.5546 -0.27731,-0.72255 -0.11333,-0.72644 -0.10932,-1.39041 0.22262,-1.22248 0.27731,-1.83565 0.22262,-0.94517 c 0.0546,-0.0546 0.39055,-0.2773 0.60927,-0.49991 l 0.39057,0.5546 0.22262,1.50367 0,1.4451 z"
   style="fill:#000000;fill-opacity:1;fill-rule:evenodd;stroke:none"
   id="path3177"
   inkscape:connector-curvature="0" /><path
   d="m 284.07808,245.76402 196.48894,0 c 12.00986,0 21.83255,9.82659 21.83255,21.83253 l 0,104.7962 c 0,12.00595 -9.82269,21.82863 -21.83255,21.82863 l -196.48894,0 c -12.00595,0 -21.83254,-9.82268 -21.83254,-21.82863 l 0,-104.7962 c 0,-12.00985 9.82659,-21.83253 21.83254,-21.83253 z"
   style="fill:#fee011;fill-opacity:1;fill-rule:evenodd;stroke:none"
   id="path3181"
   inkscape:connector-curvature="0" /><path
   d="m 284.07808,250.13052 c -9.59616,0 -17.46604,7.86986 -17.46604,17.46603 l 0,104.7962 c 0,9.59617 7.86988,17.46213 17.46604,17.46213 l 196.48894,0 c 9.60009,0 17.46605,-7.86596 17.46605,-17.46213 l 0,-104.7962 c 0,-9.59617 -7.86596,-17.46603 -17.46605,-17.46603 l -196.48894,0"
   style="fill:#000000;fill-opacity:1;fill-rule:evenodd;stroke:none"
   id="path3185"
   inkscape:connector-curvature="0" /><path
   d="m 284.07808,254.49703 c -7.18638,0 -13.09954,5.91314 -13.09954,13.09952 l 0,104.7962 c 0,7.18639 5.91316,13.09953 13.09954,13.09953 l 196.48894,0 c 7.1864,0 13.09954,-5.91314 13.09954,-13.09953 l 0,-104.7962 c 0,-7.18638 -5.90925,-13.09952 -13.09954,-13.09952 l -196.48894,0 z"
   style="fill:#fee011;fill-opacity:1;fill-rule:evenodd;stroke:none"
   id="path3189"
   inkscape:connector-curvature="0" /><path
   d="m 286.25352,267.60826 4.0853,0 1.99187,13.70101 3.69474,-13.70101 3.69473,0 3.37837,13.70101 1.99189,-13.70101 4.08528,0 -3.61272,26.19906 -3.69472,0 -4.11263,-16.45447 -4.11263,16.45447 -3.69474,0 -3.69474,-26.19906"
   style="fill:#000000;fill-opacity:1;fill-rule:nonzero;stroke:none"
   id="path3193"
   inkscape:connector-curvature="0" /><path
   d="m 321.14654,267.60826 -8.85414,26.17173 4.37436,0 2.38245,-7.38558 8.3854,0 2.54259,7.38558 4.24152,0 -8.95955,-26.17173 -4.11263,0 z m 4.74143,14.69695 -5.3429,0 2.62069,-7.80738 2.72221,7.80738"
   style="fill:#000000;fill-opacity:1;fill-rule:nonzero;stroke:none"
   id="path3197"
   inkscape:connector-curvature="0" /><path
   d="m 336.99954,267.60826 15.98186,0 0,3.85098 -5.99904,0 0,22.34808 -3.9564,0 0,-22.34808 -6.02642,0 0,-3.85098"
   style="fill:#000000;fill-opacity:1;fill-rule:nonzero;stroke:none"
   id="path3201"
   inkscape:connector-curvature="0" /><path
   d="m 369.51008,274.02914 c -0.30058,-0.64442 -0.63272,-1.1834 -0.99984,-1.60522 -0.36324,-0.42961 -0.78895,-0.74987 -1.27325,-0.95686 -0.4921,-0.21483 -1.06624,-0.32027 -1.7341,-0.32027 -0.70692,0.003 -1.32792,0.13283 -1.87081,0.37493 -0.53506,0.24607 -1.00765,0.58195 -1.40212,1.01157 -0.39446,0.42572 -0.72644,0.91391 -1.00375,1.46852 -0.2734,0.5546 -0.49601,1.14045 -0.66786,1.76535 -0.16779,0.621 -0.30464,1.24981 -0.39839,1.88642 -0.09,0.63272 -0.15616,1.2459 -0.19153,1.83175 -0.0353,0.58975 -0.0469,1.12874 -0.0469,1.61694 0,0.5546 0.0353,1.15607 0.10932,1.81221 0.0704,0.65616 0.19155,1.32792 0.35932,2.00751 0.16401,0.68348 0.38665,1.33572 0.66787,1.96454 0.2734,0.63662 0.61708,1.19901 1.02327,1.69503 0.4101,0.50384 0.89051,0.90222 1.44511,1.18732 0.55849,0.29294 1.19901,0.44525 1.92156,0.44915 0.39837,-0.003 0.81237,-0.0977 1.23809,-0.2812 0.42571,-0.18357 0.83972,-0.43353 1.23419,-0.74207 0.39838,-0.31637 0.74598,-0.66396 1.05843,-1.05453 0.30463,-0.38665 0.53117,-0.78503 0.68738,-1.19512 l 3.87831,0.9686 c -0.28902,0.94125 -0.67567,1.80051 -1.15997,2.58163 -0.4843,0.77721 -1.06233,1.449 -1.73021,2.02311 -0.66786,0.56632 -1.41775,1.00767 -2.25746,1.3162 -0.8358,0.31245 -1.74582,0.46869 -2.73786,0.47259 -1.18732,-0.008 -2.24965,-0.19137 -3.187,-0.5624 -0.94126,-0.36714 -1.76536,-0.87879 -2.47617,-1.53492 -0.71084,-0.65225 -1.32011,-1.41385 -1.82004,-2.277 -0.50773,-0.86705 -0.91782,-1.79659 -1.23809,-2.79644 -0.31634,-0.99594 -0.5546,-2.01921 -0.70691,-3.07764 -0.15217,-1.05843 -0.23029,-2.10124 -0.23808,-3.14014 0,-0.80457 0.039,-1.64037 0.121,-2.52303 0.0822,-0.87879 0.21872,-1.76536 0.40618,-2.65976 0.18747,-0.89048 0.43744,-1.75753 0.74989,-2.60116 0.31635,-0.84362 0.70302,-1.62864 1.16778,-2.359 0.46086,-0.73037 1.00765,-1.37088 1.63647,-1.92158 0.63269,-0.5546 1.35915,-0.98032 2.17933,-1.29668 0.82019,-0.30854 1.74584,-0.46476 2.77692,-0.47258 1.22638,-0.003 2.36291,0.17968 3.40572,0.5507 1.04281,0.37104 1.98407,0.94907 2.81206,1.73021 0.82801,0.78111 1.53103,1.78487 2.11295,3.01124 l -3.85095,1.65208"
   style="fill:#000000;fill-opacity:1;fill-rule:nonzero;stroke:none"
   id="path3205"
   inkscape:connector-curvature="0" /><path
   d="m 378.3915,267.60826 4.03454,0 0,10.37341 9.45946,0 0,-10.37341 4.11265,0 0,26.19906 -4.11265,0 0,-11.47478 -9.45946,0 0,11.47478 -4.03454,0 0,-26.19906"
   style="fill:#000000;fill-opacity:1;fill-rule:nonzero;stroke:none"
   id="path3209"
   inkscape:connector-curvature="0" /><path
   d="m 418.76413,267.60826 15.9819,0 0,4.08531 -11.81457,0 0,6.52633 7.70192,0 0,4.11264 -7.70192,0 0,11.47478 -4.16733,0 0,-26.19906"
   style="fill:#000000;fill-opacity:1;fill-rule:nonzero;stroke:none"
   id="path3213"
   inkscape:connector-curvature="0" /><path
   d="m 446.95507,294.30724 c -1.36698,0.003 -2.61679,-0.25387 -3.7416,-0.77332 -1.13264,-0.51945 -2.10516,-1.32792 -2.92534,-2.42149 -0.82018,-1.09749 -1.4529,-2.50743 -1.89813,-4.23372 -0.45305,-1.72238 -0.67959,-3.78847 -0.68349,-6.19434 0.003,-2.36292 0.21465,-4.40166 0.63272,-6.11234 0.4257,-1.71847 1.03108,-3.12841 1.83173,-4.23371 0.79676,-1.1014 1.76536,-1.92549 2.90581,-2.45665 1.14045,-0.53117 2.4332,-0.80066 3.8783,-0.79676 1.19513,0.008 2.2809,0.23434 3.2495,0.68349 0.96859,0.44915 1.82003,1.08577 2.5582,1.90595 0.73815,0.828 1.35915,1.8005 1.85517,2.93314 0.49601,1.12484 0.87487,2.37073 1.12483,3.7377 0.25371,1.35917 0.38275,2.81207 0.38275,4.33918 0.003,1.09357 -0.0546,2.19105 -0.164,3.28464 -0.11317,1.08968 -0.30058,2.1442 -0.56242,3.15967 -0.26152,1.01155 -0.621,1.95672 -1.07015,2.82377 -0.44915,0.86705 -1.01155,1.62475 -1.68723,2.27699 -0.67959,0.65615 -1.48806,1.15998 -2.42541,1.5232 -0.93735,0.36323 -2.02703,0.5507 -3.2612,0.5546 z m 0,-4.13998 c 0.82409,0.003 1.54664,-0.17575 2.15591,-0.53116 0.6171,-0.35932 1.12873,-0.91392 1.53491,-1.67163 0.40619,-0.76159 0.70692,-1.74581 0.90613,-2.94875 0.20308,-1.20293 0.30056,-2.64802 0.30056,-4.33135 0.003,-3.09717 -0.39447,-5.42884 -1.19901,-6.99502 -0.80848,-1.56616 -2.03876,-2.3551 -3.69866,-2.359 -0.84752,-0.003 -1.58959,0.16794 -2.22622,0.51164 -0.64442,0.3437 -1.17559,0.88658 -1.60912,1.63255 -0.42961,0.74209 -0.75379,1.70677 -0.9725,2.89409 -0.21872,1.19513 -0.32808,2.6285 -0.32808,4.31574 0.003,2.152 0.20685,3.93297 0.60148,5.33511 0.40226,1.40212 0.98422,2.44492 1.74971,3.1284 0.76161,0.6835 1.68724,1.02329 2.78473,1.01938"
   style="fill:#000000;fill-opacity:1;fill-rule:nonzero;stroke:none"
   id="path3217"
   inkscape:connector-curvature="0" /><path
   d="m 464.79605,271.69749 0,6.41695 5.65928,0 c 0.45305,-0.003 0.87485,-0.10549 1.25762,-0.30463 0.38275,-0.19528 0.71863,-0.46086 1.00373,-0.78893 0.28903,-0.33199 0.51165,-0.69912 0.66787,-1.10531 0.15616,-0.40228 0.24215,-0.81238 0.24215,-1.23028 -0.007,-0.414 -0.0975,-0.80454 -0.28121,-1.16389 -0.18371,-0.35931 -0.43353,-0.67566 -0.74598,-0.94906 -0.31245,-0.27339 -0.66785,-0.4843 -1.06233,-0.64052 -0.39837,-0.15616 -0.81237,-0.23043 -1.23809,-0.23433 l -5.50304,0 z m -4.00719,-4.08531 9.74457,0 c 0.77332,0.003 1.51148,0.13284 2.2145,0.38665 0.69912,0.25778 1.34355,0.621 1.92938,1.07797 0.58976,0.46477 1.10141,1.00375 1.53103,1.62473 0.43351,0.61711 0.7694,1.29278 1.01155,2.01923 0.2381,0.72644 0.35541,1.48805 0.35933,2.27698 -0.003,0.80847 -0.1015,1.53884 -0.3009,2.17936 -0.19529,0.64052 -0.46866,1.21857 -0.82409,1.73019 -0.35541,0.51164 -0.7655,0.97251 -1.23808,1.38651 -0.47259,0.4179 -0.98424,0.80065 -1.53884,1.14825 l 4.71413,12.36527 -4.29621,0 -4.24153,-11.47478 -5.05782,0 0,11.47478 -4.00719,0 0,-26.19514"
   style="fill:#000000;fill-opacity:1;fill-rule:nonzero;stroke:none"
   id="path3221"
   inkscape:connector-curvature="0" /><path
   d="m 286.55425,306.90684 4.08531,0 1.99189,13.70101 3.69472,-13.70101 3.69472,0 3.37837,13.70101 1.99189,-13.70101 4.08529,0 -3.6127,26.19905 -3.69474,0 -4.11263,-16.45447 -4.11264,16.45447 -3.69474,0 -3.69474,-26.19905"
   style="fill:#000000;fill-opacity:1;fill-rule:nonzero;stroke:none"
   id="path3225"
   inkscape:connector-curvature="0" /><path
   d="m 321.45117,306.90684 -8.85411,26.17172 4.37434,0 2.38245,-7.38558 8.38542,0 2.54256,7.38558 4.24153,0 -8.95955,-26.17172 -4.11264,0 z m 4.74146,14.69693 -5.34293,0 2.61679,-7.80737 2.72614,7.80737"
   style="fill:#000000;fill-opacity:1;fill-rule:nonzero;stroke:none"
   id="path3229"
   inkscape:connector-curvature="0" /><path
   d="m 339.05391,306.90684 3.45649,0 9.9828,17.05595 0,-17.05595 4.16731,0 0,26.19905 -3.5385,0 -9.98281,-16.92315 0,16.92315 -4.08529,0 0,-26.19905"
   style="fill:#000000;fill-opacity:1;fill-rule:nonzero;stroke:none"
   id="path3233"
   inkscape:connector-curvature="0" /><path
   d="m 362.71426,306.90684 7.3348,0 c 1.29667,0.003 2.48009,0.22264 3.55414,0.65225 1.07013,0.42962 2.02702,1.04671 2.85502,1.85127 0.8358,0.79675 1.53882,1.75754 2.10904,2.87845 0.57413,1.12093 1.01156,2.36682 1.3084,3.75333 0.29681,1.38259 0.44523,2.86675 0.44523,4.46024 0,0.95688 -0.0974,1.9333 -0.29276,2.91752 -0.19904,0.98813 -0.4843,1.94891 -0.87485,2.89016 -0.38667,0.94128 -0.86707,1.81614 -1.44511,2.63241 -0.57022,0.8241 -1.24198,1.54274 -2.00358,2.16374 -0.76161,0.6249 -1.61305,1.1092 -2.5543,1.4607 -0.94516,0.35542 -1.97625,0.53508 -3.10108,0.53898 l -7.33479,0 0,-26.19905 z m 4.16731,21.95362 3.01125,0 c 0.81629,-0.003 1.54274,-0.1485 2.17546,-0.42962 0.6327,-0.2812 1.1834,-0.66005 1.65209,-1.13653 0.46866,-0.47651 0.86705,-1.00768 1.19511,-1.59742 0.32027,-0.58976 0.58195,-1.20294 0.78114,-1.82784 0.19903,-0.62101 0.3437,-1.23028 0.42962,-1.81222 0.09,-0.57803 0.13283,-1.09358 0.13283,-1.55445 0.003,-0.61708 -0.0353,-1.28104 -0.1135,-1.98406 -0.0782,-0.70302 -0.2109,-1.40993 -0.39836,-2.12467 -0.18372,-0.70693 -0.42963,-1.38649 -0.746,-2.02703 -0.31634,-0.64834 -0.70691,-1.22637 -1.1756,-1.72628 -0.46866,-0.50774 -1.03108,-0.90221 -1.67941,-1.19514 -0.64833,-0.29292 -1.39822,-0.44524 -2.25356,-0.45305 l -3.01125,0 0,17.86831"
   style="fill:#000000;fill-opacity:1;fill-rule:nonzero;stroke:none"
   id="path3237"
   inkscape:connector-curvature="0" /><path
   d="m 384.98033,306.90684 15.01329,0 0,4.19075 -10.95142,0 0,6.44432 7.64725,0 0,4.0892 -7.64725,0 0,7.38558 11.92003,0 0,4.0892 -15.9819,0 0,-26.19905"
   style="fill:#000000;fill-opacity:1;fill-rule:nonzero;stroke:none"
   id="path3241"
   inkscape:connector-curvature="0" /><path
   d="m 409.81632,310.99215 0,6.41697 5.65928,0 c 0.45305,-0.003 0.87095,-0.10933 1.2576,-0.30464 0.38277,-0.19529 0.71865,-0.46087 1.00375,-0.78895 0.28901,-0.33198 0.51165,-0.69911 0.66786,-1.1053 0.15617,-0.40228 0.24215,-0.81236 0.24215,-1.23026 -0.007,-0.41792 -0.0975,-0.80457 -0.28119,-1.16389 -0.18373,-0.35932 -0.43354,-0.67567 -0.74599,-0.94906 -0.31245,-0.27341 -0.66787,-0.4882 -1.06233,-0.64054 -0.39837,-0.15616 -0.81238,-0.23043 -1.23809,-0.23433 l -5.50304,0 z m -4.00719,-4.08531 9.74456,0 c 0.77332,0.003 1.51149,0.13283 2.21451,0.38667 0.69912,0.25776 1.34353,0.621 1.92939,1.07795 0.58974,0.46477 1.10139,1.00375 1.53101,1.62475 0.43352,0.61708 0.76941,1.29276 1.01155,2.01922 0.2381,0.72645 0.35542,1.48804 0.35933,2.27699 -0.003,0.80847 -0.10151,1.53881 -0.30058,2.17934 -0.19528,0.64052 -0.46868,1.21856 -0.8241,1.73019 -0.3554,0.51166 -0.7655,0.97253 -1.24198,1.38651 -0.46869,0.41792 -0.98032,0.80067 -1.53492,1.14826 l 4.7141,12.36527 -4.2962,0 -4.24152,-11.47478 -5.05781,0 0,11.47478 -4.00719,0 0,-26.19515"
   style="fill:#000000;fill-opacity:1;fill-rule:nonzero;stroke:none"
   id="path3245"
   inkscape:connector-curvature="0" /><path
   d="m 428.0791,333.10589 4.11342,0 0,-26.19865 -4.11342,0 0,26.19865 z"
   style="fill:#000000;fill-opacity:1;fill-rule:nonzero;stroke:none"
   id="path3247"
   inkscape:connector-curvature="0" /><path
   d="m 438.24158,306.90684 3.45649,0 9.98282,17.05595 0,-17.05595 4.16733,0 0,26.19905 -3.53852,0 -9.98281,-16.92315 0,16.92315 -4.08531,0 0,-26.19905"
   style="fill:#000000;fill-opacity:1;fill-rule:nonzero;stroke:none"
   id="path3251"
   inkscape:connector-curvature="0" /><path
   d="m 473.82199,313.5894 c -0.3084,-0.60537 -0.64445,-1.13264 -1.01156,-1.57007 -0.36713,-0.44133 -0.80457,-0.78893 -1.30449,-1.03108 -0.49601,-0.24607 -1.09358,-0.37104 -1.7966,-0.38667 -0.8319,0.0116 -1.53881,0.17185 -2.11686,0.49212 -0.58194,0.32026 -1.06233,0.75378 -1.43728,1.30449 -0.37493,0.55069 -0.67176,1.16777 -0.89048,1.86688 -0.21465,0.69521 -0.37104,1.42165 -0.47259,2.17545 -0.0975,0.75379 -0.16033,1.50367 -0.18371,2.23402 -0.0282,0.73427 -0.039,1.41385 -0.0353,2.04265 0,0.85926 0.0546,1.71459 0.16808,2.56211 0.10934,0.84752 0.28529,1.64819 0.53509,2.40586 0.24995,0.75771 0.58193,1.42557 0.99594,2.01533 0.4101,0.58585 0.92173,1.0467 1.5193,1.3826 0.60146,0.33589 1.31229,0.50382 2.12857,0.51553 0.43743,-0.007 0.86315,-0.0937 1.26933,-0.25776 0.40619,-0.1681 0.77722,-0.39057 1.11702,-0.66398 0.33979,-0.27337 0.64052,-0.57411 0.89439,-0.89827 0.25371,-0.32027 0.44914,-0.64444 0.58975,-0.9647 0.14067,-0.31635 0.21465,-0.60147 0.21465,-0.85924 l 0,-1.67552 -4.47978,0 0,-4.13999 8.56508,0 0,5.47571 c -0.003,0.87877 -0.15249,1.71458 -0.44523,2.51133 -0.29277,0.79284 -0.70302,1.52321 -1.22638,2.19108 -0.52336,0.66395 -1.12873,1.24588 -1.82784,1.7341 -0.6991,0.49209 -1.4568,0.87095 -2.27309,1.14435 -0.81237,0.26933 -1.65598,0.40619 -2.53085,0.41008 -1.15607,-0.003 -2.18715,-0.18371 -3.10107,-0.53896 -0.90612,-0.35152 -1.70678,-0.83973 -2.39807,-1.46463 -0.68349,-0.62881 -1.26933,-1.35916 -1.75363,-2.19497 -0.48431,-0.82799 -0.87878,-1.72629 -1.17952,-2.6949 -0.30057,-0.9686 -0.52334,-1.96844 -0.66396,-2.99562 -0.14066,-1.03108 -0.20309,-2.05827 -0.20309,-3.08156 -0.003,-1.20685 0.051,-2.39414 0.16034,-3.56585 0.10933,-1.16387 0.29277,-2.28088 0.5546,-3.33932 0.26152,-1.06234 0.621,-2.03873 1.07405,-2.92922 0.45306,-0.89048 1.02719,-1.66772 1.71068,-2.32777 0.68739,-0.66006 1.50758,-1.17168 2.46447,-1.53492 0.95686,-0.36713 2.06998,-0.55071 3.33539,-0.5546 0.88269,0.003 1.72631,0.1445 2.52306,0.42572 0.80457,0.2773 1.55054,0.67568 2.24184,1.19512 0.68348,0.51945 1.29666,1.14044 1.82783,1.85909 0.53899,0.72644 0.97252,1.53101 1.32013,2.41759 l -3.87832,1.30839"
   style="fill:#000000;fill-opacity:1;fill-rule:nonzero;stroke:none"
   id="path3255"
   inkscape:connector-curvature="0" /><path
   d="m 317.19403,346.20542 -8.85413,26.17172 4.37433,0 2.38243,-7.38558 8.38545,0 2.54257,7.38558 4.24154,0 -8.95955,-26.17172 -4.11264,0 z m 4.74144,14.69693 -5.34293,0 2.6207,-7.80738 2.72223,7.80738"
   style="fill:#000000;fill-opacity:1;fill-rule:nonzero;stroke:none"
   id="path3259"
   inkscape:connector-curvature="0" /><path
   d="m 334.79675,346.20542 3.45649,0 9.98284,17.05593 0,-17.05593 4.16728,0 0,26.19905 -3.53848,0 -9.98282,-16.92314 0,16.92314 -4.08531,0 0,-26.19905"
   style="fill:#000000;fill-opacity:1;fill-rule:nonzero;stroke:none"
   id="path3263"
   inkscape:connector-curvature="0" /><path
   d="m 358.45711,372.40447 4.11302,0 0,-26.19867 -4.11302,0 0,26.19867 z"
   style="fill:#000000;fill-opacity:1;fill-rule:nonzero;stroke:none"
   id="path3265"
   inkscape:connector-curvature="0" /><path
   d="m 368.61959,346.20542 3.95642,0 6.28808,15.14219 5.84284,-15.14219 4.21809,0 0,26.19905 -4.06186,0 0,-15.19686 -5.94828,15.19686 -6.10454,-15.19686 0,15.19686 -4.19075,0 0,-26.19905"
   style="fill:#000000;fill-opacity:1;fill-rule:nonzero;stroke:none"
   id="path3269"
   inkscape:connector-curvature="0" /><path
   d="m 402.36435,346.20542 -8.85411,26.17172 4.37433,0 2.38245,-7.38558 8.38541,0 2.54258,7.38558 4.24152,0 -8.95955,-26.17172 -4.11263,0 z m 4.74145,14.69693 -5.34293,0 2.61679,-7.80738 2.72614,7.80738"
   style="fill:#000000;fill-opacity:1;fill-rule:nonzero;stroke:none"
   id="path3273"
   inkscape:connector-curvature="0" /><path
   d="m 419.97098,346.20542 4.0072,0 0,22.34809 11.9747,0 0,3.85096 -15.9819,0 0,-26.19905"
   style="fill:#000000;fill-opacity:1;fill-rule:nonzero;stroke:none"
   id="path3277"
   inkscape:connector-curvature="0" /><path
   d="m 438.72978,366.16716 3.98376,-1.33574 c 0.35931,0.73818 0.73816,1.35135 1.12873,1.8552 0.39057,0.49601 0.81628,0.89437 1.28105,1.19121 0.46087,0.29684 0.99204,0.51163 1.57397,0.64444 0.58585,0.12499 1.25762,0.19153 2.01532,0.18746 0.414,-0.003 0.828,-0.10933 1.2537,-0.31245 0.42182,-0.19935 0.81629,-0.47649 1.17561,-0.82018 0.35931,-0.33978 0.65225,-0.73035 0.87097,-1.15607 0.22246,-0.42962 0.33588,-0.87097 0.33978,-1.32792 0.003,-0.67958 -0.0937,-1.27324 -0.30839,-1.78878 -0.21092,-0.51164 -0.57023,-0.95299 -1.06625,-1.32011 -0.49992,-0.37103 -1.17559,-0.67568 -2.03093,-0.92174 -0.85142,-0.24589 -1.91768,-0.43742 -3.19481,-0.58195 -0.20311,-0.015 -0.44526,-0.0661 -0.74207,-0.15216 -0.29277,-0.0818 -0.6132,-0.19902 -0.9608,-0.3476 -0.3476,-0.14833 -0.69911,-0.33197 -1.06233,-0.54679 -0.35933,-0.21871 -0.70302,-0.47257 -1.03499,-0.7577 -0.37103,-0.29681 -0.71864,-0.67177 -1.03891,-1.12091 -0.32026,-0.44916 -0.58194,-0.97641 -0.77722,-1.58569 -0.19527,-0.60928 -0.30057,-1.29667 -0.30464,-2.06219 0.003,-1.01155 0.15217,-1.9411 0.44134,-2.78862 0.28526,-0.85143 0.68739,-1.60912 1.20293,-2.2809 0.51945,-0.66786 1.11702,-1.24199 1.80832,-1.71457 0.6874,-0.46477 1.42947,-0.82408 2.23012,-1.07405 0.80067,-0.24215 1.62865,-0.37103 2.49181,-0.37103 1.21854,0 2.29261,0.20683 3.22214,0.621 0.92564,0.41398 1.73411,1.0467 2.42151,1.89423 0.68739,0.84752 1.27714,1.92157 1.76926,3.22216 l -3.90565,1.1795 c -0.17591,-0.53117 -0.4101,-0.97251 -0.6874,-1.3162 -0.28526,-0.34761 -0.60146,-0.61319 -0.95688,-0.80847 -0.3554,-0.19529 -0.73035,-0.3398 -1.12482,-0.43354 -0.39838,-0.0858 -0.80065,-0.14433 -1.21075,-0.164 -0.51555,0.003 -0.99593,0.11717 -1.44119,0.33589 -0.44523,0.21466 -0.83579,0.49993 -1.17169,0.86315 -0.33979,0.35931 -0.60146,0.7577 -0.79285,1.18732 -0.18746,0.43351 -0.28526,0.87095 -0.28901,1.30448 0.003,0.39057 0.0975,0.7655 0.2734,1.13264 0.17966,0.36321 0.4179,0.67566 0.71082,0.94907 0.29276,0.26558 0.60928,0.45696 0.95298,0.56631 0.414,0.11717 0.85923,0.20686 1.34353,0.26152 0.48041,0.0507 0.97643,0.1015 1.48806,0.14833 0.51164,0.0431 1.01157,0.11717 1.51148,0.21498 0.49603,0.0936 0.96079,0.24214 1.39432,0.44914 0.67567,0.32416 1.30449,0.71083 1.88253,1.1756 0.58192,0.45697 1.09356,0.98422 1.53491,1.58569 0.43744,0.59757 0.78112,1.26543 1.03109,1.99579 0.24215,0.73035 0.37103,1.53102 0.37493,2.39417 -0.003,1.23417 -0.19902,2.3629 -0.58583,3.39008 -0.38275,1.03109 -0.94909,1.92159 -1.67553,2.67927 -0.73426,0.7577 -1.62085,1.34746 -2.65583,1.76146 -1.0389,0.41399 -2.2145,0.62879 -3.51899,0.63271 -0.63272,0 -1.3123,-0.10149 -2.02312,-0.30058 -0.71474,-0.2031 -1.43337,-0.49602 -2.1481,-0.87877 -0.71865,-0.37885 -1.40604,-0.84754 -2.05437,-1.39822 -0.65225,-0.54288 -1.23028,-1.16778 -1.73802,-1.86689 -0.51163,-0.69521 -0.91391,-1.46073 -1.20683,-2.28871"
   style="fill:#000000;fill-opacity:1;fill-rule:nonzero;stroke:none"
   id="path3281"
   inkscape:connector-curvature="0" /></svg>