<?xml version="1.0" encoding="UTF-8" standalone="no"?>
<!-- Created with Inkscape (http://www.inkscape.org/) -->

<svg
   xmlns:dc="http://purl.org/dc/elements/1.1/"
   xmlns:cc="http://creativecommons.org/ns#"
   xmlns:rdf="http://www.w3.org/1999/02/22-rdf-syntax-ns#"
   xmlns:svg="http://www.w3.org/2000/svg"
   xmlns="http://www.w3.org/2000/svg"
   xmlns:sodipodi="http://sodipodi.sourceforge.net/DTD/sodipodi-0.dtd"
   xmlns:inkscape="http://www.inkscape.org/namespaces/inkscape"
   width="815.86377"
   height="815.86377"
   viewBox="0 0 815.86385 815.86344"
   id="svg2"
   version="1.1"
   inkscape:version="0.91 r13725"
   sodipodi:docname="Wind sock.svg">
  <defs
     id="defs4">
    <pattern
       y="0"
       x="0"
       height="6"
       width="6"
       patternUnits="userSpaceOnUse"
       id="EMFhbasepattern" />
    <pattern
       y="0"
       x="0"
       height="6"
       width="6"
       patternUnits="userSpaceOnUse"
       id="EMFhbasepattern-6" />
    <pattern
       y="0"
       x="0"
       height="6"
       width="6"
       patternUnits="userSpaceOnUse"
       id="EMFhbasepattern-9" />
  </defs>
  <sodipodi:namedview
     id="base"
     pagecolor="#ffffff"
     bordercolor="#666666"
     borderopacity="1.0"
     inkscape:pageopacity="0.0"
     inkscape:pageshadow="2"
     inkscape:zoom="0.38358332"
     inkscape:cx="240.44043"
     inkscape:cy="196.41745"
     inkscape:document-units="px"
     inkscape:current-layer="layer1"
     showgrid="false"
     fit-margin-top="0.2"
     fit-margin-bottom="0.2"
     fit-margin-left="0.2"
     fit-margin-right="0.2"
     units="px"
     inkscape:window-width="1920"
     inkscape:window-height="1057"
     inkscape:window-x="-8"
     inkscape:window-y="-8"
     inkscape:window-maximized="1"
     showguides="true" />
  <metadata
     id="metadata7">
    <rdf:RDF>
      <cc:Work
         rdf:about="">
        <dc:format>image/svg+xml</dc:format>
        <dc:type
           rdf:resource="http://purl.org/dc/dcmitype/StillImage" />
        <dc:title></dc:title>
      </cc:Work>
    </rdf:RDF>
  </metadata>
  <g
     inkscape:label="Layer 1"
     inkscape:groupmode="layer"
     id="layer1"
     transform="translate(1743.1522,3663.1931)">
    <rect
       ry="40"
       rx="40"
       y="2945.9607"
       x="1057.6741"
       height="600"
       width="600"
       id="rect4770"
       style="fill:#fee011;fill-opacity:1;stroke:none;stroke-width:8;stroke-linejoin:miter;stroke-miterlimit:4;stroke-dasharray:none;stroke-dashoffset:0;stroke-opacity:1"
       transform="matrix(0.70710678,-0.70710678,-0.70710678,-0.70710678,0,0)" />
    <rect
       ry="32"
       rx="32"
       y="2953.9607"
       x="1065.6741"
       height="584"
       width="584"
       id="rect4778"
       style="fill:#000000;fill-opacity:1;stroke:none;stroke-width:8;stroke-linejoin:miter;stroke-miterlimit:4;stroke-dasharray:none;stroke-dashoffset:0;stroke-opacity:1"
       transform="matrix(0.70710678,-0.70710678,-0.70710678,-0.70710678,0,0)" />
    <rect
       style="fill:#fee011;fill-opacity:1;stroke:none;stroke-width:8;stroke-linejoin:miter;stroke-miterlimit:4;stroke-dasharray:none;stroke-dashoffset:0;stroke-opacity:1"
       id="rect4789"
       width="552"
       height="552"
       x="1081.6743"
       y="2969.9607"
       rx="16"
       ry="16"
       transform="matrix(0.70710678,-0.70710678,-0.70710678,-0.70710678,0,0)" />
    <path
       style="fill:#000000;fill-opacity:1;fill-rule:evenodd;stroke:none"
       d="m -1483.5698,-3350.6991 0,7.8398 37.127,16.1309 -5.8242,6.4961 -6.2735,12.7695 -7.8398,42.3418 1.3438,60.4883 11.4257,35.1719 -29.959,13.8906 0,6.4961 34.6641,-16.5781 8.5117,3.8086 40.7735,-21.9551 28.6757,-8.5137 44.3575,-4.9277 41.6699,7.3926 51.0781,13.4414 48.8379,0.6718 47.7188,-11.4238 38.0839,-19.2676 24.6446,-13.8886 4.4804,-5.6016 2.4636,-7.3926 -4.4811,-9.8574 -9.8555,-5.8242 -14.7871,1.791 -16.8028,3.584 -35.8437,1.5683 -33.8281,-4.7031 -39.6524,-15.2344 -28.9004,-16.1308 -43.6855,-29.1231 -21.9551,-11.2011 -46.5976,-15.0098 -36.7403,-1.793 -29.7968,2.9121 -8.961,2.9121 z m 51.0176,23.9707 19.7149,23.5234 12.3203,24.6426 4.7051,28.4512 -3.3594,15.0098 -6.4981,19.2675 -23.0742,28.8985 -15.6816,11.6504 -10.0821,-31.1407 -1.1191,-57.7988 7.168,-39.8769 5.1523,-10.0821 z"
       id="path4255"
       inkscape:connector-curvature="0"
       sodipodi:nodetypes="ccccccccccccccccccccccccccccccccccccccccccccccccccc" />
    <rect
       style="fill:#000000;fill-opacity:1;stroke:none;stroke-width:4;stroke-linejoin:miter;stroke-miterlimit:4;stroke-dasharray:32, 4;stroke-dashoffset:0;stroke-opacity:1"
       id="rect5959"
       width="20.000002"
       height="300.00003"
       x="-1502.5698"
       y="-3382.7615" />
    <circle
       style="fill:#000000;fill-opacity:1;stroke:none;stroke-width:4;stroke-linejoin:miter;stroke-miterlimit:4;stroke-dasharray:32, 4;stroke-dashoffset:0;stroke-opacity:1"
       id="path5961"
       cx="-1492.5698"
       cy="-3382.9614"
       r="23.000002" />
  </g>
</svg>
